<?xml version="1.0" standalone="no"?>
<!DOCTYPE svg PUBLIC "-//W3C//DTD SVG 20010904//EN"
 "http://www.w3.org/TR/2001/REC-SVG-20010904/DTD/svg10.dtd">
<svg version="1.0" xmlns="http://www.w3.org/2000/svg"
 width="2400.000000pt" height="2400.000000pt" viewBox="0 0 2400.000000 2400.000000"
 preserveAspectRatio="xMidYMid meet">
<metadata>
Created by potrace 1.14, written by Peter Selinger 2001-2017
</metadata>
<g transform="translate(0.000000,2400.000000) scale(0.100000,-0.100000)"
fill="#000000" stroke="none">
<path d="M11142 21884 c-101 -27 -173 -83 -218 -168 -16 -31 -33 -56 -37 -56
-5 0 -65 9 -135 20 -1203 185 -2401 26 -3481 -461 -809 -365 -1526 -934 -2023
-1605 -389 -525 -706 -1261 -912 -2114 -92 -383 -161 -773 -227 -1286 -43
-337 -44 -398 -12 -507 38 -129 137 -255 247 -313 65 -34 63 -18 41 -230 -114
-1094 -331 -2129 -638 -3054 -41 -124 -219 -607 -395 -1075 -378 -1003 -503
-1347 -623 -1705 -337 -1015 -450 -1930 -353 -2880 112 -1110 469 -2058 1050
-2790 128 -162 445 -481 599 -604 336 -267 725 -480 1135 -621 281 -96 674
-188 940 -219 840 -99 1116 -115 1810 -105 778 12 1290 69 2000 226 1224 269
2328 742 3235 1388 403 286 651 505 797 701 174 234 245 382 393 812 3 9 19
10 62 5 32 -5 137 -8 233 -7 193 0 294 16 479 76 116 37 336 131 362 154 22
19 25 67 7 81 -7 6 -35 15 -62 22 -100 25 -214 98 -256 166 -29 46 -15 65 47
65 140 0 391 44 557 97 289 93 502 219 709 421 77 76 97 102 97 124 0 42 -25
49 -100 30 -50 -13 -110 -17 -260 -16 -172 0 -210 3 -322 27 -69 15 -163 38
-207 52 -76 24 -81 28 -81 54 0 41 24 55 140 80 258 56 543 179 777 337 137
92 184 129 311 243 90 81 106 111 75 143 -19 18 -25 19 -124 8 -136 -16 -447
-16 -574 -1 -185 23 -427 84 -460 117 -22 23 -18 52 11 79 21 20 38 25 78 25
54 0 218 22 301 41 484 108 1041 428 1410 810 215 223 372 445 514 729 196
391 279 696 338 1236 l8 71 365 -103 c483 -136 565 -146 740 -88 219 73 376
237 451 469 18 56 22 93 22 185 0 102 -4 126 -31 203 -16 48 -45 113 -63 144
-51 86 -171 202 -254 245 -47 24 -310 109 -810 263 -827 254 -1526 473 -1533
480 -3 3 14 78 37 167 71 275 69 268 97 268 13 0 97 -36 186 -81 1127 -564
1933 -854 2603 -934 208 -25 530 -17 675 18 227 54 358 123 501 266 113 113
174 210 221 351 31 91 32 102 33 255 0 141 -3 169 -23 235 -56 178 -145 303
-382 540 -141 141 -217 208 -317 280 -572 410 -1384 754 -2718 1151 -132 39
-241 73 -243 74 -2 2 4 74 12 162 77 761 19 1582 -155 2219 -211 772 -558
1401 -1054 1913 -659 679 -1591 1256 -2720 1681 -479 181 -1029 347 -1555 470
l-205 47 -6 79 c-4 51 -14 97 -30 129 -32 69 -115 148 -181 173 -45 16 -809
134 -858 131 -8 0 -39 -7 -68 -15z m-782 -800 c661 -62 1317 -241 1845 -503
693 -343 1189 -821 1506 -1451 160 -318 264 -657 343 -1120 144 -837 80 -1877
-180 -2942 l-46 -187 -36 15 c-113 49 -341 138 -599 235 -1784 669 -3414 1056
-4943 1174 -686 52 -1488 45 -2130 -20 -327 -34 -862 -112 -1092 -160 -39 -9
-73 -13 -75 -11 -14 14 56 608 103 876 120 684 348 1401 585 1835 560 1029
1617 1795 2922 2119 360 90 706 139 1112 160 130 7 529 -5 685 -20z m3770
-950 c196 -86 593 -286 770 -388 727 -420 1282 -909 1649 -1451 254 -375 414
-751 535 -1255 164 -683 166 -1528 6 -2416 -44 -244 -167 -757 -190 -794 -9
-15 61 -38 -715 238 -324 116 -842 299 -1150 407 -308 108 -561 198 -562 198
-1 1 18 86 42 188 100 425 184 881 229 1239 50 395 60 559 61 985 0 410 -8
548 -46 838 -121 915 -456 1693 -987 2294 -45 51 -82 95 -82 97 0 6 242 -93
440 -180z m-6375 -4494 c1402 -67 2847 -361 4465 -909 638 -216 1541 -561
1594 -610 87 -80 223 -275 301 -430 68 -136 163 -436 144 -455 -3 -3 -41 1
-84 9 -94 17 -213 19 -309 5 -115 -17 -746 -159 -784 -177 -112 -53 -170 -186
-137 -314 8 -34 24 -74 35 -89 25 -35 646 -593 716 -643 70 -50 202 -111 301
-137 44 -13 87 -26 94 -31 11 -6 5 -51 -30 -231 -43 -223 -171 -963 -236
-1367 -38 -235 -37 -272 10 -309 33 -26 821 -292 865 -292 44 0 95 30 115 69
8 17 22 63 30 103 39 184 143 486 237 688 l51 110 196 128 c538 354 932 545
1277 622 337 75 623 -6 860 -244 68 -68 89 -98 133 -186 103 -211 137 -436
107 -720 -51 -500 -232 -899 -566 -1244 -184 -190 -353 -313 -595 -431 -236
-116 -425 -172 -615 -181 -262 -13 -517 66 -596 185 -42 64 -45 98 -23 281 22
183 18 215 -26 226 -53 13 -71 -1 -148 -124 -420 -664 -835 -1554 -1277 -2732
-50 -135 -142 -373 -205 -530 -62 -157 -134 -339 -159 -405 -107 -276 -242
-439 -541 -657 -903 -657 -2027 -1144 -3225 -1397 -271 -57 -389 -77 -914
-151 -379 -54 -1063 -81 -1526 -61 -340 15 -458 23 -825 62 -431 44 -634 80
-908 160 -821 237 -1468 788 -1881 1599 -186 364 -357 887 -440 1342 -66 361
-90 638 -90 1038 0 425 32 762 110 1150 79 396 146 617 579 1915 178 534 360
1085 405 1225 175 548 281 966 390 1535 21 110 45 227 54 260 8 33 38 172 66
309 28 137 52 252 55 254 28 28 688 53 888 33 413 -40 795 -174 1232 -431 136
-80 207 -105 272 -96 155 21 267 147 268 301 0 98 -32 160 -133 257 -329 314
-800 525 -1292 579 -128 14 -403 6 -550 -16 -205 -31 -390 -85 -541 -160 -39
-19 -73 -34 -75 -32 -2 2 7 77 21 168 23 155 86 704 100 872 4 42 8 77 9 77 2
0 80 16 176 35 565 114 977 167 1510 194 231 12 826 12 1065 1z m10830 -1557
c915 -301 1553 -583 1885 -832 164 -123 311 -270 347 -346 38 -83 43 -173 13
-242 -32 -75 -45 -78 -290 -77 -180 0 -222 4 -345 28 -440 85 -984 270 -1700
579 -178 77 -796 355 -801 361 -1 0 16 69 37 151 31 121 76 316 134 581 5 21
10 20 217 -43 117 -36 344 -108 503 -160z m-3325 -1589 c514 -158 937 -288
939 -290 2 -2 -25 -16 -60 -31 -168 -72 -304 -155 -444 -274 l-91 -76 -59 18
c-596 179 -1238 376 -1416 435 l-227 74 -242 213 -243 212 284 55 284 56 170
-53 c94 -30 591 -182 1105 -339z m3109 -955 c157 -51 456 -142 664 -205 401
-119 435 -133 487 -206 40 -55 53 -109 47 -190 -9 -104 -55 -174 -142 -214
-90 -42 -126 -36 -508 80 -188 58 -385 117 -437 132 -119 33 -130 39 -130 68
0 89 -136 415 -233 559 -25 37 -43 67 -40 67 4 0 135 -41 292 -91z"/>
<path d="M8120 19300 c-295 -17 -560 -75 -812 -176 -724 -291 -1246 -979
-1428 -1884 -16 -80 -34 -192 -41 -250 -10 -91 -9 -111 4 -143 24 -57 75 -114
118 -131 51 -21 86 -20 271 3 408 52 746 72 1223 72 764 0 1443 -70 2205 -226
316 -65 808 -191 921 -236 114 -44 229 -9 292 91 18 29 89 378 113 560 20 152
23 447 5 580 -39 294 -131 548 -279 770 -63 95 -231 273 -338 360 -352 283
-864 478 -1494 569 -268 39 -545 54 -760 41z m120 -1704 c745 -64 1604 -211
2285 -390 l50 -13 -3 -84 c-2 -46 -10 -127 -18 -179 -22 -148 -24 -152 -42
-145 -50 19 -446 122 -637 164 -584 131 -1106 205 -1770 253 -112 8 -366 13
-670 12 -489 0 -696 -10 -1022 -47 -132 -15 -125 -23 -94 103 36 145 65 232
83 241 42 23 430 78 688 99 170 14 938 4 1150 -14z"/>
<path d="M9480 13929 c-183 -21 -415 -79 -600 -151 -86 -34 -113 -50 -156 -92
-153 -154 -110 -402 86 -490 75 -34 126 -33 350 7 215 38 386 51 610 44 233
-7 345 -23 590 -83 378 -93 696 -219 1249 -493 100 -50 194 -91 207 -91 32 0
80 25 87 45 31 80 -156 350 -412 598 -343 331 -814 573 -1297 667 -232 45
-521 61 -714 39z"/>
<path d="M5635 13523 c-160 -57 -320 -219 -439 -443 -32 -62 -48 -106 -57
-163 -6 -43 -10 -79 -8 -81 2 -2 70 -56 152 -120 130 -103 147 -120 147 -146
0 -42 -20 -51 -212 -100 -91 -24 -170 -45 -176 -49 -5 -3 -21 -55 -35 -116
-25 -104 -26 -116 -16 -228 26 -302 139 -537 294 -613 49 -23 63 -26 143 -23
78 4 97 8 166 42 212 105 407 404 512 785 105 385 91 770 -38 1032 -46 94
-125 183 -193 215 -56 27 -175 31 -240 8z"/>
<path d="M7340 12836 c-36 -20 -43 -38 -95 -236 -93 -349 -218 -690 -356 -971
-116 -236 -184 -353 -355 -610 l-143 -215 -98 -17 c-466 -77 -845 -430 -968
-902 -113 -436 12 -882 333 -1186 158 -150 322 -236 529 -278 341 -70 730 34
978 260 85 78 94 148 27 212 -39 37 -68 41 -174 23 -281 -46 -540 -23 -728 66
-92 44 -212 167 -262 268 -57 116 -71 184 -66 325 4 101 9 134 35 206 125 359
498 550 977 499 99 -10 141 0 170 41 42 61 1 156 -116 264 l-61 57 65 66 c310
316 520 876 544 1452 7 164 -6 339 -37 509 -27 141 -48 171 -125 177 -31 3
-58 -1 -74 -10z"/>
<path d="M9406 12499 c-302 -35 -576 -165 -767 -365 -110 -115 -208 -284 -209
-360 0 -39 32 -81 68 -89 26 -5 238 45 317 75 17 6 83 24 147 40 383 94 736
75 1128 -58 128 -44 240 -92 484 -209 236 -112 437 -202 499 -223 77 -25 132
30 107 107 -21 64 -130 240 -216 347 -107 132 -276 295 -392 376 -401 281
-795 402 -1166 359z"/>
<path d="M16612 11045 c-310 -80 -567 -273 -777 -584 -36 -53 -65 -106 -65
-119 0 -28 42 -72 69 -72 11 0 129 55 263 121 134 67 268 132 298 146 74 33
182 74 186 70 11 -11 -39 -269 -81 -422 -64 -229 -130 -391 -307 -748 -59
-120 -108 -229 -108 -241 0 -27 29 -56 56 -56 25 0 160 77 229 130 77 59 265
252 336 345 202 264 309 560 313 866 l1 127 60 -31 c98 -49 174 -105 276 -204
80 -77 101 -93 127 -93 19 0 41 9 53 21 20 20 21 29 16 98 -7 94 -44 215 -94
301 -21 36 -76 104 -124 152 -75 75 -100 93 -190 136 -57 28 -136 58 -176 66
-107 24 -249 20 -361 -9z"/>
<path d="M10292 8630 c-196 -28 -437 -120 -496 -190 -46 -55 -31 -131 33 -164
15 -8 105 -31 200 -50 95 -19 220 -50 277 -67 l105 -32 -193 -95 c-1153 -562
-1978 -826 -2898 -929 -115 -13 -240 -17 -485 -17 -323 0 -427 6 -665 40 -751
107 -1463 415 -2134 922 -96 73 -157 112 -180 116 -72 14 -157 -47 -172 -123
-12 -57 5 -98 84 -203 l76 -103 2 -250 c9 -1011 273 -1747 820 -2287 134 -132
211 -194 382 -309 457 -304 1046 -487 1742 -540 200 -15 744 -6 935 15 635 71
978 163 1410 376 325 160 592 349 853 604 449 437 777 994 958 1624 48 168
109 453 120 565 4 37 10 67 15 67 5 0 76 -89 158 -197 206 -273 198 -264 252
-270 68 -8 95 20 120 122 30 122 35 262 15 383 -82 488 -440 861 -936 973 -98
22 -306 32 -398 19z m-5672 -1555 c137 -83 383 -204 545 -268 877 -345 1900
-414 2955 -201 427 87 1019 271 1444 450 44 19 81 32 83 30 3 -3 -204 -168
-397 -318 -105 -81 -344 -241 -510 -340 -496 -298 -968 -494 -1428 -594 -95
-20 -346 -63 -374 -64 -18 0 -38 -35 -38 -65 0 -25 6 -39 23 -49 60 -38 521
-54 752 -27 166 19 402 68 570 116 648 188 1351 592 1963 1129 57 50 122 106
143 125 l40 33 -20 -50 c-45 -113 -77 -183 -141 -312 -345 -687 -890 -1202
-1559 -1475 -282 -115 -521 -171 -956 -224 -378 -46 -831 -53 -1135 -16 -704
85 -1273 345 -1605 735 -325 381 -489 810 -560 1463 l-7 59 59 -40 c32 -22
101 -66 153 -97z"/>
</g>
</svg>
