<?xml version="1.0" encoding="UTF-8"?>
<svg id="Layer_1" data-name="Layer 1" xmlns="http://www.w3.org/2000/svg" viewBox="0 0 792 792">
  <defs>
    <style>
      .cls-1 {
        fill: #fff;
      }
    </style>
  </defs>
  <path class="cls-1" d="m540.06,376.52c-44.64-110.3-2.19-228.82-2.19-228.82-113.37-.51-285.87,90.04-306.74,267.75-20.87,177.71,91.12,219.41,91.12,219.41,6.15,2.61,12.24,4.75,18.27,6.5-7.26-27.71-7.24-87.37-7.24-87.37-3.57-114.53,65.45-254.54,77.18-265.25,0,0-48.54,308.56-3.55,303.96,41.36-4.23,74.87-27.18,77.2-27.82-14.82,32.78-51.56,66.03-64.11,79.2,17.6-3.62,33.08-9.46,45.52-15.33,22.63-10.68,42.1-26.75,56.94-46.41,73.61-97.46,17.62-205.83,17.62-205.83Z"/>
</svg>