<?xml version="1.0" encoding="utf-8"?>
<!-- Generator: Adobe Illustrator 28.0.0, SVG Export Plug-In . SVG Version: 6.00 Build 0)  -->
<svg version="1.1" id="Layer_1" xmlns="http://www.w3.org/2000/svg" xmlns:xlink="http://www.w3.org/1999/xlink" x="0px" y="0px"
	 viewBox="0 0 792 792" style="enable-background:new 0 0 792 792;" xml:space="preserve">
<style type="text/css">
	.st0{fill:#004438;}
	.st1{fill:#FFFFFF;}
</style>
<circle class="st0" cx="396" cy="396" r="396"/>
<path class="st0" d="M559,374.3c-50-123.5-2.5-256.3-2.5-256.3C429.6,117.5,236.4,218.9,213,417.9s102,245.7,102,245.7
	c6.9,2.9,13.7,5.3,20.4,7.3c-8.1-31-8.1-97.9-8.1-97.9c-3.9-128.3,73.3-285.1,86.5-297.1c0,0-54.3,345.6-4,340.4
	c46.3-4.7,83.8-30.5,86.4-31.2c-16.6,36.7-57.7,73.9-71.8,88.7c19.7-4.1,37.1-10.6,51-17.2c25.3-11.9,47.2-30,63.8-52
	C621.7,495.7,559,374.3,559,374.3L559,374.3z"/>
<g>
	<path class="st1" d="M721.1,369c1.4-0.3,1.9-0.7,2-0.7c0-0.1,0.2,0.1,0.4-0.8c0.3-0.6,0.6-1.2,0.7-1.8c1.3-4.1-0.6-7.9-4.2-11.3
		c-9.6-9.4-22.1-15.8-34.4-21.5c-17.5-7.8-36.2-14.1-54.9-18.8c0,0,0,0,0,0c0,0,0,0,0,0c-1.5,8.1-3.3,16.2-5.5,24.3
		C649.3,349.6,698,372.5,721.1,369z"/>
	<path class="st1" d="M674.3,428.6c2.2,0.4,4.3,0,6.2-1.2c1.7-1.1,2.9-2.7,3.5-4.6c0.1-0.2,0.1-0.5,0.2-0.7c0,0,0,0,0-0.1v0
		c0,0,0,0,0,0c0.5-2.2,0.1-4.5-1.2-6.4c-1.2-1.9-3.2-3.2-5.4-3.7l-0.6-0.1L675,411c0,0,0,0,0,0l0,0c0.3,2.8,0.1,5.7-0.6,8.5
		c-0.2,0.7-0.4,1.4-0.6,2.1c-0.7,2.1-1.7,4-2.9,5.8l0,0c0,0,0,0,0,0L674.3,428.6z"/>
	<path class="st1" d="M661.4,417.4c0.1-0.3,0.2-0.7,0.3-1c0.8-3.4,0.3-6.9-1.7-9.8l-0.1-0.2l-18.5-5.7l-4.3-1.3
		c4.6,6,7.5,13.2,9,20.5l0.8,0.3c0,0,0,0,0,0l10.2,3.1C659.1,421.8,660.6,419.8,661.4,417.4z"/>
	<path class="st1" d="M654.6,475.9c1.3-3.2,2.5-6.4,3.6-9.7c1.1-3.5,2.1-7.1,2.9-10.8l5.3,1.5l1.2,0.3l0.4,0.1
		c2.6,0.6,5.3,0.8,8,0.8h0.9c7-0.2,13.9-2.3,19.8-6.1c7.7-5,13.2-12.5,15.7-21.1c1.2-3.9,1.7-8,1.6-12.3c-0.1-1.8-0.3-3.6-0.6-5.4
		c0.4,0,1.1,0,1.1,0c13.4,0,24.7-3.1,33.5-9.4c0,0,0,0,0,0c0,0,0,0,0,0c1.8-1.2,3.4-2.6,5-4l0.1-0.1c12.9-12.5,17.1-31,10.6-47.1
		l-0.2-0.4c-4.4-10.2-11.2-16.8-16.7-22.2l-2-1.9l-0.4-0.3c-7.1-6.2-15.6-11.8-24.9-16.8c-20.4-11-44.9-19.4-68.6-26.6
		c0.7-12.8,0.5-25.4-0.7-37.6c-3.2-33.9-15.4-64.9-34.6-88.5c-2-2.4-4-4.7-6.1-7c-31.6-33.5-80.4-58.9-141.5-73.7
		c-0.8-1.6-1.7-3.2-2.8-4.7c-4.4-5.8-10.8-9.6-18-10.6l-22.4-3.2c-1.3-0.2-2.6-0.3-3.8-0.3c-6.6,0-12.7,2.3-17.5,6.3
		c-0.9-0.1-1.8-0.2-2.7-0.3c-8.5-1.1-17.2-1.6-25.9-1.6c-65.8,0-127.3,31-160.5,81l-0.2,0.3c-23.1,36.6-30.7,79.2-34.7,112.4
		c-0.5,4.3-1.3,10.8,0.6,17.6c1.4,5.5,4.3,10.6,8.3,14.6c-0.4,3.3-0.8,6.6-1.2,9.5c-4.5,35.3-12.8,68.7-24.7,99.2l-0.1,0.3
		c-2.7,7.5-5.7,15.3-8.8,23.5c-5.2,13.6-10.5,27.8-14.9,40.6c-9.2,25.6-14.1,50.9-14.6,75.3c-0.6,41.5,9,79.3,27.8,109.3
		c21.6,34.5,54.3,56.6,94.5,63.9c5.7,1.2,12.9,2.1,15.9,2.4c1.3,0.1,3.1,0.3,5.1,0.6c7.3,0.9,13.2,1.5,17.3,1.6
		c2.2,0.1,4.6,0.2,7,0.4c4,0.3,8.2,0.5,12.4,0.5c0.8,0,1.5,0,2.3,0h1.2c12.3,0,21.8-0.3,28.3-0.9c0.6,0,2.1-0.1,3.7-0.2
		c3.2-0.2,4.6-0.3,5.4-0.4l0.4-0.1c2.2-0.3,4.5-0.6,6.7-0.8c4.3-0.5,8.6-1.1,12.8-1.7l0.3,0l0.3-0.1c31.3-5.3,60.2-14.3,85.7-26.7
		c18.6-8.9,36-19.6,51.5-31.9c12.4-9.2,22.1-21.8,27.7-35.9c12.5-0.6,23.1-4.8,31-8.5c5.7-2.7,9.6-8.1,10.4-14.2
		c14.5-5.2,24.1-13.6,29.4-19.3c4.9-5.4,6.3-13.2,3.3-19.8c-0.3-0.6-0.5-1.2-0.8-1.7c3.1-2.5,5.7-4.8,7.7-6.8
		c5.4-5.3,7.1-13.1,4.2-20.1c-0.3-0.8-0.8-1.6-1.2-2.4c0.6-0.4,1.3-0.9,1.9-1.3c16.7-11.3,29.8-27.8,37.9-47c0,0,0,0,0,0
		c0,0,0,0,0,0c0,0,0,0,0,0C654.5,476.4,654.5,476.2,654.6,475.9z M647.1,437c-1.9,28.6-15.8,56.7-39.9,73
		c-12.7,8.6-26.7,15.4-42.5,15.8l-0.7,0.6c-1.2,0.8-1.3,2.7,0,3.2c5,2,16.6,5.2,35.1,3c1.5-0.2,2.2,1.8,1,3
		c-6.1,6-20.3,17.7-39.6,20.7c-1.7,0.3-2.1,2.9-0.5,3.4c7.2,2.2,18.4,4.7,28,1.9c1.6-0.4,2.4,1.6,1.3,2.8
		c-6.2,6.8-20.2,18.2-43.7,18.7c-0.8,0-1.4,1.1-0.9,1.7c1.3,2,4.3,5,9.9,6c1.5,0.3,1.5,2.6,0,3.3c-9.2,4.3-21.2,9-35.4,6.2
		c-0.8,2.4-1.6,4.7-2.4,7.1c-4.3,13.1-12.8,24.7-23.9,32.9c-15,11.9-31.4,21.9-48.6,30.1c-25.6,12.4-53.4,20.6-81.4,25.3
		c-6.4,0.9-13,1.6-19.4,2.5c-1,0.1-7.6,0.5-8.8,0.6c-8.1,0.8-20.1,0.9-28.3,0.9c-6.8,0.2-14.3-0.6-21.2-0.9c-4.8,0-16.1-1.6-21-2.1
		c-4.2-0.4-10.2-1.2-14.3-2.1c-76.9-13.9-110.2-84.5-109.1-156.9c0.5-24,5.6-47.6,13.7-70.1c6.9-20.2,16.3-43.7,23.7-64
		c12.9-33,21.2-67.9,25.7-103.2c0.8-6.4,1.6-12.9,2.2-19.4c-4.7-2-8.5-5.9-9.8-11.1c-1.1-3.7-0.6-7.7-0.2-11.5
		c4.4-36.5,12.3-73.9,32.3-105.5c36.6-54.9,106.7-80.4,170.8-72.1c4,0.4,7.9,1,11.8,1.7c1.6-4.9,6.5-8.2,11.9-7.4l22.4,3.2
		c5.9,0.8,10.1,6.3,9.2,12.3l-0.1,0.4c53.4,11.6,107.7,33.4,143.5,71.4c5.3,5.7,10.1,11.9,14.2,18.5c0,0,0,0,0,0
		c12.7,20.2,19.9,43.9,22.1,67.3c1.5,16.1,1.3,32.1-0.5,48c28.8,8.4,66.1,20,90.8,36.7c0,0,0,0,0,0c0,0,0,0,0,0
		c3.4,2.3,6.5,4.7,9.4,7.2c5.6,5.5,11.3,10.6,14.7,18.5c3.9,9.7,1.4,20.9-6.2,28.7c-0.2,0.2-0.4,0.4-0.6,0.6
		c-23.5,22.2-80.5-2.2-112.2-17.7c-4-2-7.6-3.8-10.7-5.3c-0.6-0.3-1.3-0.7-1.9-1c-0.1,0.2-0.1,0.3-0.2,0.5c-0.1-0.1-0.4-0.1-0.7-0.3
		l-3.6,14.1l23.6,7.3c0,0,0,0,0,0l44.8,13.8c7.2,1.7,13.1,6.8,15.7,14.2c0.7,1.9,1,3.9,1.1,5.9c0.1,3-0.4,5.8-1.3,8.4
		c-1.6,4.3-4.5,8.1-8.5,10.6c-3.4,2.2-7.2,3.4-11.2,3.5c-1.7,0-3.3-0.1-5-0.5l-0.6-0.1l-20.6-5.8l-2.9-0.8
		C647.2,435.3,647.1,436.2,647.1,437z"/>
	<path class="st1" d="M243,601.3c25.8,12.1,56.6,11,84.2,5.3c33-8.1,55.8-32,67-62.1c-29.7,27.7-70.1,50-108.5,43.8
		c-2.3-0.4-2.3-3.9,0.1-4.1c25.5-3.1,48.8-14.7,69.6-29.4c5.5-3.9,10.8-8.1,16-12.4c-0.3,0.2-0.7,0.3-1,0.5
		c-23.8,9.9-49,17.2-74.8,18.7c-30,1.9-64.4-4.6-89.8-22.6C207.8,564.9,217.9,589.3,243,601.3z"/>
	<path class="st1" d="M523.5,303.1c12.1,4.3,58.8,20.8,76.5,27.1c4.4-15.5,7.6-31.6,9-47.7c1.3-15.6,1-31.4-1.7-46.6
		c-1.8-10.1-4.6-20.1-8.7-29.6c-17.3-39.6-58-64.9-100.2-81.2c15,15.8,26.1,36,31.8,61.4C538.5,225.5,532.8,265.1,523.5,303.1z"/>
	<path class="st1" d="M268.3,213.6c-0.3,0.9-0.6,1.8-0.9,2.6c-0.3,0.9-0.5,1.7-0.7,2.5c-0.6,2.2-1.1,4.3-1.5,6.1
		c12.6-1.5,24.9-2.1,36.6-2.1c40.8,0,75.4,7.5,96.9,13.7c0,0,0,0,0,0l0,0c0.4-2.1,0.8-4.4,1.1-6.9c0.2-1.8,0.4-3.8,0.5-5.7
		C383.5,219.3,315.5,203,268.3,213.6z"/>
	<path class="st1" d="M499.2,294.9c0,0,1.6,0.7,3.7,1.5c8.6-31.6,13.3-72.4,5.9-105.5c-11-57.5-58.3-83.7-112.8-89.9
		c-59.6-6.3-126.9,20.1-153.9,76.1c-11.4,25-17.2,52.8-19.4,80.4c8-1.5,16.2-2.9,24.4-4C333,241.9,419.8,263.2,499.2,294.9z
		 M407.5,250.4c-1.1,0.7-2.4,1.1-3.7,1.1c-0.5,0-1-0.1-1.5-0.2c-0.5-0.1-1-0.3-2.4-0.7c-26.7-8.1-80.5-20.4-141.5-11.5l0,0
		c-2,0.3-4-0.3-5.5-1.7l-0.1-0.1c-0.3-0.3-0.6-0.6-0.8-0.9c-1-1.3-1.5-2.9-1.3-4.6c0.3-3.8,3.5-38.1,29.5-59.2
		c3.1-2.5,6.4-4.7,9.9-6.7c14.9-8.2,33.2-10.9,54.6-8c28.5,3.9,48.4,13.7,59.4,29.1c10.8,15.3,10.6,32.8,8.9,45.3
		c-0.6,3.9-1.3,7.4-1.8,10.1c-0.3,1.2-0.5,2.3-0.6,3.3l0,0c-0.3,1.7-1.2,3.2-2.6,4.3L407.5,250.4z"/>
	<path class="st1" d="M411,520.1c0.1-0.1,0.3-0.3,0.4-0.4l0,0c0,0,0,0,0,0l-0.9-0.1c0,0,0,0,0,0l0,0
		C410.7,519.8,410.9,520,411,520.1z"/>
	<path class="st1" d="M268.9,426.8C268.8,426.8,268.8,426.8,268.9,426.8L268.9,426.8c-0.6,0.3-1.1,0.6-1.7,0.9c0,0,0,0.1-0.1,0.1
		l0,0c0,0,0,0,0,0L268.9,426.8z"/>
	<path class="st1" d="M492.3,363.8l11.8,10.8c0.6-0.6,1.2-1.2,1.6-1.9c0.8-1.2,1.3-2.4,1.7-3.8c0.4-1.7,0.5-3.4,0.2-5
		c-0.2-1.1-0.5-2.1-0.9-3.1L492.3,363.8z"/>
	<path class="st1" d="M516.5,380.1l13.7,4.2l29,8.9c5.4-5.2,11.8-9.4,18.8-12l-47.8-14.7l-9.5-2.9c0.3,2.8,0.1,5.7-0.6,8.5
		C519.3,374.9,518.1,377.6,516.5,380.1z"/>
	<path class="st1" d="M617,413.9c-5.6-5.2-13.7-8.3-21.4-7.5c-3.2,0.4-6.2,1.1-9.1,2h0c-4.8,1.5-9.4,3.5-14.5,5.7
		c-8.8,4.2-17.8,10.2-27.7,16.9l-4,16.7l-3.7,15.3c-0.3,2.4-2.6,4.1-5,3.8l-12.5-4.1l-4.1-1.3l-9.7-3.2c-2.4-0.3-4.1-2.5-3.8-4.9
		c0.7-5.8,2.2-16.2,4.3-28.7c0.8-5.1,1.8-10.5,2.8-16.2c0.9-5.3,2-10.7,3.1-16.3l-4.8-1.4c-4.4-1.3-8.4-3.7-11.8-6.8l-17.6-16.1
		c-2.7-2.4-3.6-6.2-2.2-9.7c1.1-2.8,3.7-4.8,6.7-5.5l20.6-4.4c4.7-1,9.7-0.9,14.3,0.4c-1.7-9.7-5.8-17.5-10.2-23.3h0
		c-0.1-0.2-0.3-0.4-0.4-0.6c-1.3-1.8-2.7-3.3-4-4.7C423,287.7,336,263.8,250.1,275.4c-9.8,1.4-19.6,3.5-29.5,5.5
		c-0.3,11.9-1,23.7-2.2,35.5c5.3-3.1,11.1-5.3,17.1-6.6c5.4-1.2,10.9-1.7,16.5-1.5c17.7,0.5,35.4,7.6,47.5,20.1
		c7.8,8.1-2.1,20.5-11.7,14.9c-11.6-7.1-23.3-12.8-36.7-14.7c-0.4-0.1-0.7-0.1-1.1-0.1c-5.4-0.7-10.8-0.9-16.3-0.8
		c-5.5,0.1-11.1,0.6-16.7,1.3c-3,23.3-7.8,46.4-14.8,68.9c-9.2,28.9-19.8,57.9-28.6,86.9c-12.3,41.4-10.6,87.6,7.9,126.8
		c10.8,22.3,27.1,39.4,50,49.1c11.2,4.5,23.6,7.3,35.8,8.3c2.6,0.3,13.9,1.5,16.3,1.7c2,0.1,7.7,0.4,9.8,0.5
		c12.4,0.7,26.6,0.5,39-0.6c1.2-0.1,7.1-0.5,8.1-0.6c1.1-0.1,3.7-0.5,4.8-0.6c34.1-4,68.1-13.7,98.6-29.6
		c11.4-5.8,22.6-12.6,32.7-20.2c5.8-4,10.8-9.3,14.1-15.7c1.7-3,3.3-8,4.6-11.2l4.8-12.7c10.2-27.1,20.7-54.2,34.6-79.6
		c3.6-6.6,7.4-13.1,11.5-19.4c0.7-1.1,2.2-1.4,3.2-0.6c0.7,0.5,1.1,1.3,1,2.2c-0.4,4.2-1,8.4-1.7,12.5c0.9,0.2,1.7,0.6,2.7,1.2
		c3.5,2.7,6.7,5.1,11.4,5.7c3.8,0.6,8.1,0.4,12.6-0.7c27-6.6,47.4-29.4,49.9-57.4c0.8-8.4,0-17.7-4.3-24.8
		C620,417.1,618.6,415.4,617,413.9z M332.8,393.8l0.3-1c5.3-13.1,19.6-20.8,33.4-21.1c13.8-0.8,27.4,6.2,37.4,14.4
		c4.9,4,9.1,8.8,12.5,14.2c1.1,2.4,5.4,7.1,1.7,8.9c-0.6,0.3-1.3,0.3-1.9,0.1c-13.8-5.2-24.3-12.4-38.1-15.6
		c-12.1-3.1-23.7-1.8-35.5,2.1c-1.9,0.6-4,1.2-6.1,1.8C334.3,398.2,332.1,396,332.8,393.8z M394.4,350.8
		c-14.6-3.8-28.9-3.5-43.6-0.4c-5.3,1.3-10.6-2.1-11.7-7.4c-0.9-4.5,1.5-8.8,5.6-10.6c7.6-3.4,15.9-5.4,24.2-5.8
		c10.7-0.7,21.7,1.2,31.6,4.8c8.8,3.2,17,7.7,24,13.5c7.1,5.8,13.2,12.3,17.6,20.5c0,0,0,0,0,0c0,0,0,0,0,0c0.1,0.7,0.1,1.3,0.2,2
		c0,0,0,0,0,0c0,0,0,0,0,0c0,0,0,0,0,0c-0.5,1.5-2.3,2.5-3.8,1.5C424,361.8,409.7,354.7,394.4,350.8z M276.4,413
		c6.3-9.7,11.4-20.2,15.1-31.4c2-5.9,3.7-12.1,5.3-18.1c0.9-3.7,6.3-3.6,7.2,0c3.3,13.7,2.1,27.8-2.1,41.3
		c-2.9,9.5-8,18.9-15.5,25.8c2.3,1.7,4.3,3.8,5.8,6.3c1.4,2.3-0.6,5.3-3.2,5c-2.8-0.3-5.5-0.4-7.8-0.4c-14.2,0.3-26.1,8.3-26.6,23.1
		c-0.3,7.1,3.5,14.2,9.6,17.9c6.7,3.9,17.4,4,25.5,2.1c4-1.2,7,3.6,4.2,6.6c-9.5,9.2-24.1,12.6-37.2,7.9
		c-6.9-2.7-12.6-7.5-16.8-13.7c-13-18.9-5.6-46.2,15-56.1c4.1-2.2,8.8-3.5,13.6-3.7C270.9,421.4,273.8,417.3,276.4,413z M224,380.8
		c0.5-2.2,1.1-4.3,1.6-6.5v0l11.1-2.9c1.5-0.4,1.9-2.3,0.7-3.2l-9-7.2c0.3-1.6,0.6-3.2,0.9-4.7c4.9-10.9,12.4-18,19.3-17.3
		c0.4,0,0.8,0.1,1.2,0.2c9.6,2.1,14.1,18.5,10.2,36.8c-3.9,18.2-14.9,31.4-24.4,29.3c-0.4-0.1-0.9-0.2-1.3-0.4
		C227.8,402.4,223.9,392.9,224,380.8C224,380.9,224,380.9,224,380.8z M184.7,509.7c1.7-1.2,4.1-1.4,6.1,0.4c3.1,2.4,6.2,4.6,9.3,6.7
		c26.3,18,54.2,27.3,87.3,26.1c35.6-1.2,70.1-14.1,101.8-29.9c2.1-1,4.2-2,6.3-2.9c-4.2-1.5-8.7-2.6-13.1-3.5
		c-1.5-0.3-3.2-0.6-4.8-1c-1.9-0.5-3-2.4-2.5-4.2c0.2-0.9,0.8-1.7,1.6-2.2c2.9-1.7,6.1-3.1,9.4-4c10.8-2.9,22.4-1.1,31.8,5.4
		c12.1,8.4,18.9,24,14.8,38.4c-0.9,2.7-4.4,3-5.9,0.7c-3.6-4.5-7-9.3-10.6-13.8c-5.7,47.4-36.7,87.9-84.5,99.4
		c-41.1,8.7-89.9,5.2-118.6-23.8c-9.1-9.2-16.2-21-20.4-35.8c-4.1-14.3-5.1-29-4.5-43.2c-0.9-1-1.7-2.1-2.5-3.2c-0.7-1-1.3-1.9-2-3
		C184,514.1,184.3,511.9,184.7,509.7L184.7,509.7z M616.6,440.9c-2.6-2.8-5.1-5-7.5-6.6c-1.8-1.2-3.6-2.1-5.3-2.8
		c0.4,4.1,0.2,8.2-0.7,12.1c-2.3,9.8-7.5,18.5-14.5,25.5c-3.4,3.4-7.1,6.4-11.5,8.6c-0.9,0.4-2,0.1-2.4-0.8
		c-0.3-0.6-0.2-1.2,0.1-1.7c1.9-3.9,3.9-7.9,5.8-11.8c0,0,0,0,0,0c3.2-6.7,6-13.6,7.9-20.7c0.2-0.7,0.4-1.5,0.5-2.2
		c0.7-3,1-5.9,1.3-8.9c-2.6,0.7-5.3,1.8-8.2,3.3c-4.5,2.1-9.1,4.7-14.1,7.1c-1.2,0.6-2.6,0.1-3.2-1.1c-0.3-0.7-0.3-1.6,0.1-2.2
		c0.5-0.8,1-1.6,1.6-2.4c6.2-9.1,14.9-16.3,26.4-18.7c14-2.9,27.6,7.7,28.2,22C621,441.7,618.1,442.7,616.6,440.9z"/>
	<polygon class="st1" points="609.8,343.6 609.7,344.7 609.9,343.6 	"/>
</g>
</svg>
