<?xml version="1.0" encoding="UTF-8"?>
<svg id="Layer_1" data-name="Layer 1" xmlns="http://www.w3.org/2000/svg" viewBox="0 0 1295.94 1183.38">
  <defs>
    <style>
      .cls-1 {
        fill: #173831;
      }

      .cls-1, .cls-2 {
        stroke-width: 0px;
      }

      .cls-2 {
        fill: #fff;
      }
    </style>
  </defs>
  <circle class="cls-1" cx="647.97" cy="591.69" r="548.49"/>
  <g>
    <path class="cls-2" d="m1039.55,568.73c1.73-.38,2.34-.88,2.52-.9.03-.1.21.1.54-.96.39-.74.7-1.47.92-2.2,1.57-5.07-.8-9.81-5.22-13.97-11.9-11.62-27.31-19.54-42.49-26.59-21.65-9.64-44.68-17.42-67.85-23.22,0,0,0,0,0,0,0,0,0,0,0,0-1.83,10.07-4.12,20.07-6.81,29.97,29.69,13.86,89.94,42.24,118.39,37.86Z"/>
    <path class="cls-2" d="m981.77,642.34c2.66.49,5.36-.05,7.65-1.52,2.07-1.34,3.57-3.33,4.31-5.66.1-.3.17-.61.24-.93,0-.03.02-.06.02-.09h0s0,0,0,0c.59-2.76.07-5.59-1.47-7.96-1.54-2.37-3.91-3.99-6.67-4.58l-.69-.18-2.57-.78s0,0,0,0h0c.33,3.5.07,7.06-.8,10.52-.22.88-.48,1.75-.77,2.6-.89,2.56-2.11,4.99-3.6,7.21h0s0,0,0,0l4.35,1.34Z"/>
    <path class="cls-2" d="m965.85,628.56c.14-.42.27-.85.38-1.29,1.05-4.18.33-8.48-2.06-12.09l-.16-.25-22.91-7.06-5.33-1.63c5.74,7.45,9.3,16.28,11.13,25.38l1.04.33s0,0,0,0l12.57,3.86c2.49-1.8,4.34-4.31,5.34-7.25Z"/>
    <path class="cls-2" d="m957.48,700.86c1.63-3.91,3.11-7.89,4.39-11.96,1.38-4.37,2.57-8.83,3.54-13.36l6.55,1.83,1.49.39.44.1c3.24.69,6.54,1.03,9.82,1.03h1.06c8.68-.2,17.13-2.81,24.45-7.57,9.54-6.2,16.3-15.42,19.43-26.01,1.42-4.82,2.1-9.92,1.95-15.16-.07-2.27-.31-4.51-.72-6.73.46.02,1.35.02,1.35.02,16.59,0,30.46-3.87,41.36-11.57,0,0,0,0,0,0,0,0,0,0,0,0,2.17-1.5,4.22-3.17,6.14-5l.15-.15c15.97-15.43,21.11-38.29,13.12-58.24l-.2-.46c-5.38-12.57-13.81-20.8-20.59-27.42l-2.42-2.37-.47-.42c-8.82-7.7-19.27-14.56-30.75-20.77-25.25-13.61-55.53-24.02-84.76-32.91.9-15.77.64-31.34-.83-46.46-3.94-41.87-19.01-80.22-42.75-109.31-2.42-2.96-4.92-5.83-7.52-8.6-39.09-41.42-99.35-72.78-174.82-91.07-.96-2.01-2.14-3.95-3.51-5.77-5.41-7.21-13.3-11.86-22.22-13.12l-27.71-3.92c-1.57-.23-3.17-.34-4.74-.34-8.12,0-15.7,2.88-21.6,7.83-1.11-.15-2.22-.28-3.32-.41-10.51-1.34-21.29-2.03-32.03-2.03-81.25,0-157.25,38.34-198.32,100.06l-.28.42c-28.55,45.25-37.9,97.9-42.85,138.83-.62,5.31-1.55,13.3.8,21.77,1.75,6.83,5.34,13.04,10.29,18.06-.47,4.13-.96,8.12-1.42,11.77-5.52,43.55-15.79,84.81-30.49,122.61l-.15.39c-3.37,9.22-7.03,18.86-10.9,29.05-6.39,16.85-12.99,34.28-18.43,50.22-11.34,31.6-17.42,62.85-18.06,93.03-.77,51.25,11.13,97.95,34.38,135.08,26.65,42.57,67.03,69.88,116.77,78.96,7.06,1.52,16,2.53,19.63,2.91,1.6.16,3.81.42,6.26.7,9,1.06,16.31,1.88,21.34,1.94,2.73.1,5.62.28,8.68.47,4.98.31,10.12.64,15.34.64.96,0,1.91,0,2.86-.03h1.52c15.16,0,26.98-.39,34.97-1.14.69-.05,2.58-.18,4.54-.29,3.97-.26,5.69-.36,6.67-.46l.54-.07c2.76-.36,5.54-.7,8.32-1.05,5.29-.65,10.61-1.31,15.83-2.04l.31-.03.33-.07c38.68-6.6,74.35-17.71,105.89-32.99,23.02-10.98,44.45-24.25,63.68-39.42,15.28-11.36,27.29-26.95,34.27-44.32,15.46-.69,28.48-5.93,38.27-10.54,7.09-3.35,11.8-9.98,12.81-17.49,17.89-6.39,29.77-16.75,36.33-23.87,6.11-6.67,7.73-16.26,4.13-24.46-.31-.72-.67-1.42-1.05-2.09,3.86-3.04,7.06-5.93,9.56-8.37,6.67-6.49,8.71-16.21,5.25-24.77-.42-1.03-.93-2.03-1.49-2.97.8-.52,1.6-1.06,2.4-1.6,20.6-13.95,36.77-34.3,46.81-58.02h0s0,0,0,0h0c.12-.29.23-.59.35-.88Zm-9.32-48.09c-2.37,35.3-19.48,70.05-49.24,90.19-15.69,10.62-33.04,18.99-52.55,19.54l-.88.75c-1.54.95-1.57,3.3-.05,3.91,6.19,2.43,20.49,6.42,43.34,3.76,1.86-.21,2.68,2.22,1.21,3.66-7.57,7.37-25.03,21.82-48.96,25.62-2.11.33-2.63,3.59-.67,4.2,8.86,2.76,22.76,5.75,34.64,2.39,1.93-.56,3.02,1.93,1.55,3.51-7.7,8.38-24.92,22.49-53.93,23.04-1.01.02-1.7,1.32-1.13,2.16,1.67,2.43,5.29,6.23,12.17,7.44,1.86.34,1.88,3.24.03,4.1-11.36,5.36-26.13,11.08-43.7,7.65-1,2.92-1.98,5.85-2.96,8.78-5.31,16.19-15.83,30.54-29.56,40.67-18.56,14.67-38.79,27.06-60.09,37.23-31.64,15.31-65.97,25.41-100.56,31.31-7.91,1.09-16.01,2.03-23.96,3.04-1.29.15-9.41.6-10.93.74-10.07.96-24.77,1.09-34.99,1.08-8.45.23-17.7-.8-26.18-1.08-5.96-.03-19.92-1.94-26-2.55-5.23-.54-12.55-1.49-17.7-2.61-95.02-17.19-136.16-104.4-134.83-193.82.64-29.69,6.93-58.84,16.91-86.62,8.53-25,20.12-54.04,29.25-79.01,15.88-40.8,26.19-83.9,31.7-127.43,1.01-7.89,1.98-15.95,2.7-23.91-5.77-2.42-10.54-7.3-12.09-13.71-1.34-4.59-.78-9.53-.25-14.18,5.46-45.09,15.2-91.25,39.86-130.34,45.18-67.88,131.81-99.34,211.03-89.12,4.94.56,9.79,1.26,14.59,2.04,1.96-6.11,8.07-10.12,14.64-9.18l27.71,3.92c7.34,1.05,12.45,7.83,11.41,15.16l-.07.49c66,14.38,133.08,41.29,177.29,88.14,6.59,7.03,12.42,14.67,17.55,22.79,0,0,0,0,0,0,15.67,24.9,24.56,54.22,27.29,83.08,1.91,19.85,1.59,39.68-.59,59.29,35.57,10.43,81.61,24.67,112.17,45.36,0,0,0,0,0,0,0,0,0,0,0,0,4.2,2.84,8.09,5.8,11.63,8.89,6.88,6.8,13.96,13.07,18.17,22.89,4.79,11.95,1.68,25.85-7.7,35.39-.21.23-.44.47-.69.7-29.01,27.44-99.42-2.7-138.64-21.9-4.95-2.42-9.4-4.67-13.2-6.6-.8-.41-1.59-.83-2.37-1.26-.08.21-.16.42-.23.6-.18-.07-.47-.18-.88-.33l-4.4,17.37,29.18,8.97s0,0,0,0l55.33,17.01c8.94,2.04,16.19,8.43,19.38,17.53.82,2.32,1.27,4.77,1.34,7.24.11,3.67-.47,7.18-1.65,10.4-1.97,5.37-5.6,9.95-10.49,13.12-4.2,2.73-8.95,4.18-13.84,4.3-2.06.05-4.13-.15-6.19-.59l-.69-.18-25.48-7.12-3.64-1.01c-.03,1.03-.1,2.06-.16,3.09Z"/>
    <path class="cls-2" d="m449.02,855.69c31.9,14.98,69.97,13.61,104.03,6.49,40.74-10,68.98-39.51,82.8-76.74-36.65,34.27-86.54,61.77-134,54.15-2.88-.52-2.81-4.79.16-5.11,31.54-3.77,60.28-18.14,85.94-36.26,6.77-4.85,13.35-9.97,19.76-15.3-.42.2-.87.38-1.29.57-29.35,12.19-60.48,21.28-92.39,23.07-37.05,2.35-79.6-5.67-110.96-27.89,2.37,32.04,14.94,62.24,45.95,77.02Z"/>
    <path class="cls-2" d="m795.45,487.36c14.94,5.29,72.67,25.7,94.45,33.42,5.39-19.09,9.38-38.99,11.1-58.98,1.67-19.32,1.23-38.73-2.11-57.55-2.21-12.53-5.7-24.81-10.69-36.62-21.33-48.94-71.59-80.15-123.77-100.3,18.55,19.46,32.19,44.46,39.27,75.81,10.26,48.37,3.25,97.21-8.25,144.23Z"/>
    <path class="cls-2" d="m480.18,376.79c-.38,1.1-.74,2.18-1.06,3.24-.33,1.06-.62,2.09-.9,3.09-.77,2.73-1.36,5.26-1.81,7.5,15.57-1.81,30.72-2.58,45.23-2.58,50.4,0,93.16,9.3,119.73,16.91,0,0,0,0,0,0h0c.49-2.6,1-5.47,1.39-8.55.29-2.26.52-4.64.65-7.09-20.88-5.47-104.88-25.62-163.23-12.52Z"/>
    <path class="cls-2" d="m765.43,477.26s2.01.83,4.62,1.91c10.64-38.99,16.47-89.39,7.29-130.29-13.6-71.02-71.98-103.41-139.39-111.04-73.65-7.79-156.83,24.81-190.1,94.01-14.07,30.92-21.31,65.22-23.94,99.29,9.92-1.85,19.95-3.6,30.15-4.9,106.14-14.53,213.35,11.78,311.37,51.02Zm-113.21-55.02c-1.37.9-3.01,1.37-4.62,1.37-.6,0-1.21-.07-1.81-.2-.62-.13-1.29-.34-2.94-.85-32.93-10.03-99.42-25.21-174.8-14.23h0c-2.47.35-4.98-.41-6.83-2.09l-.1-.09c-.38-.36-.72-.74-1.01-1.14-1.21-1.6-1.8-3.61-1.63-5.65.34-4.71,4.35-47.1,36.47-73.11,3.84-3.12,7.91-5.85,12.22-8.22,18.43-10.16,41.03-13.48,67.41-9.89,35.15,4.79,59.84,16.9,73.37,35.98,13.4,18.87,13.12,40.49,10.95,56-.69,4.87-1.55,9.13-2.24,12.53-.31,1.52-.59,2.88-.8,4.04h0c-.38,2.1-1.54,3.98-3.25,5.26l-.38.28Z"/>
    <path class="cls-2" d="m656.55,755.44c.18-.18.34-.36.51-.54h0s0,0,0,0l-1.13-.08s0,0,0,0h0c.21.2.41.41.62.62Z"/>
    <path class="cls-2" d="m480.93,640.1s-.07.04-.11.06l.11-.06c-.69.39-1.37.77-2.06,1.14-.02.05-.05.08-.07.13h0s0,0,0,0l2.12-1.27Z"/>
    <path class="cls-2" d="m757,562.33l14.61,13.35c.75-.7,1.42-1.5,1.98-2.37.95-1.42,1.67-3.01,2.09-4.72.52-2.09.6-4.2.25-6.23-.21-1.31-.6-2.58-1.16-3.79l-17.76,3.76Z"/>
    <path class="cls-2" d="m786.81,582.4l16.98,5.23,35.8,11c6.7-6.44,14.58-11.59,23.22-14.82l-59.02-18.14-11.73-3.61c.33,3.48.07,7.01-.8,10.44-.9,3.56-2.4,6.91-4.44,9.9Z"/>
    <path class="cls-2" d="m910.93,624.17c-6.96-6.42-16.86-10.28-26.39-9.25-3.95.54-7.63,1.39-11.23,2.48h-.02c-5.96,1.8-11.65,4.27-17.88,7.01-10.85,5.18-21.95,12.58-34.17,20.87l-4.95,20.64-4.54,18.94c-.42,2.99-3.2,5.08-6.19,4.66l-15.41-5.07-5.07-1.65-11.95-3.92c-2.97-.41-5.05-3.1-4.67-6.08.9-7.21,2.73-19.95,5.26-35.41,1.01-6.26,2.17-12.98,3.43-19.95,1.16-6.52,2.43-13.27,3.79-20.08l-5.88-1.76c-5.44-1.67-10.43-4.51-14.63-8.35l-21.8-19.9c-3.28-3.01-4.41-7.7-2.78-11.93,1.36-3.51,4.56-5.96,8.24-6.75l25.43-5.39c5.85-1.24,11.93-1.06,17.7.52-2.06-12.04-7.19-21.65-12.55-28.81h-.02c-.16-.23-.33-.46-.52-.69-1.65-2.17-3.33-4.1-4.94-5.8-97.9-40.17-205.34-69.71-311.43-55.41-12.06,1.76-24.23,4.28-36.47,6.85-.38,14.64-1.26,29.27-2.71,43.83,6.55-3.82,13.69-6.52,21.11-8.14,6.63-1.45,13.48-2.06,20.33-1.86,21.82.6,43.7,9.36,58.73,24.79,9.62,10.03-2.57,25.36-14.45,18.42-14.33-8.79-28.79-15.75-45.36-18.17-.44-.07-.9-.13-1.34-.18-6.68-.88-13.4-1.13-20.15-.95-6.83.18-13.69.8-20.64,1.67-3.69,28.78-9.64,57.26-18.25,85.1-11.31,35.75-24.45,71.54-35.3,107.39-15.18,51.16-13.15,108.24,9.71,156.68,13.37,27.6,33.45,48.7,61.77,60.67,13.84,5.57,29.14,8.97,44.19,10.25,3.2.42,17.21,1.9,20.12,2.04,2.48.1,9.49.46,12.09.57,15.36.88,32.88.57,48.24-.7,1.45-.08,8.73-.64,10.02-.7,1.32-.16,4.61-.64,5.96-.8,42.13-4.92,84.16-16.91,121.79-36.51,14.04-7.19,27.89-15.59,40.44-25,7.21-4.98,13.4-11.5,17.42-19.35,2.09-3.76,4.1-9.92,5.7-13.89l5.96-15.7c12.6-33.47,25.57-66.97,42.73-98.39,4.44-8.14,9.17-16.13,14.23-23.94.88-1.32,2.66-1.68,3.97-.8.92.6,1.36,1.65,1.26,2.66-.52,5.2-1.26,10.33-2.09,15.41,1.06.29,2.16.77,3.33,1.49,4.27,3.28,8.22,6.28,14.04,7.08,4.66.77,10.05.51,15.59-.82,33.39-8.19,58.58-36.29,61.7-70.9,1.03-10.39-.02-21.85-5.33-30.61-1.41-2.35-3.14-4.49-5.2-6.39Zm-351.04-24.79l.34-1.21c6.55-16.16,24.25-25.66,41.31-26.08,17.11-.96,33.86,7.66,46.2,17.8,6.05,5,11.28,10.92,15.46,17.53,1.36,2.99,6.65,8.74,2.12,11.05-.78.34-1.63.34-2.39.07-16.99-6.41-30.05-15.38-47.11-19.27-14.89-3.82-29.28-2.17-43.83,2.53-2.39.72-4.97,1.49-7.57,2.21-2.71.83-5.41-1.94-4.54-4.62Zm76.12-53.08c-18.04-4.64-35.75-4.36-53.91-.52-6.5,1.62-13.12-2.53-14.41-9.12-1.08-5.52,1.9-10.92,6.86-13.07,9.36-4.17,19.66-6.65,29.95-7.21,13.27-.82,26.8,1.47,38.99,5.93,10.92,3.94,20.97,9.56,29.71,16.62,8.74,7.14,16.32,15.23,21.7,25.3,0,0,0,0,0,.01,0,0,0,0,0,0,.08.83.16,1.62.29,2.42,0,0,0,0,0,0,0,0,0,0,0,0-.02.02,0,.03,0,.03-.6,1.83-2.83,3.07-4.76,1.9-17.93-8.76-35.57-17.47-54.43-22.27Zm-145.85,76.84c7.81-11.99,14.07-24.94,18.6-38.83,2.45-7.26,4.58-14.98,6.49-22.39,1.16-4.51,7.76-4.46,8.86.05,4.09,16.86,2.63,34.4-2.58,50.97-3.64,11.68-9.94,23.35-19.09,31.83,2.84,2.04,5.31,4.66,7.19,7.84,1.75,2.79-.74,6.59-3.95,6.18-3.48-.34-6.77-.52-9.64-.44-17.55.36-32.24,10.31-32.83,28.52-.33,8.79,4.38,17.5,11.86,22.08,8.24,4.85,21.49,4.92,31.47,2.65,4.92-1.54,8.66,4.48,5.13,8.19-11.72,11.34-29.77,15.59-45.94,9.77-8.56-3.38-15.62-9.31-20.74-16.9-16.08-23.4-6.95-57.06,18.51-69.34,5.03-2.71,10.88-4.27,16.78-4.56,3.14-5.34,6.72-10.31,9.87-15.62Zm-64.69-39.79c.67-2.66,1.32-5.36,1.94-8.06v-.02l13.71-3.53c1.81-.47,2.32-2.79.87-3.97l-11.06-8.87c.39-1.94.77-3.91,1.13-5.87,6.05-13.5,15.28-22.18,23.86-21.42.47.03.96.11,1.44.21,11.81,2.55,17.47,22.88,12.63,45.43-4.85,22.53-18.35,38.76-30.18,36.21-.54-.11-1.08-.28-1.6-.46-8.06-2.97-12.84-14.74-12.75-29.56,0-.02,0-.05.02-.1Zm-48.55,159.2c2.06-1.5,5.07-1.73,7.5.44,3.81,2.93,7.61,5.7,11.46,8.32,32.55,22.29,66.9,33.74,107.88,32.19,44.02-1.42,86.56-17.45,125.78-37,2.58-1.23,5.2-2.43,7.84-3.58-5.21-1.91-10.75-3.17-16.19-4.28-1.91-.36-3.92-.74-5.93-1.26-2.3-.57-3.71-2.91-3.12-5.21.29-1.16,1.05-2.11,2.01-2.66,3.63-2.14,7.5-3.82,11.6-4.89,13.29-3.56,27.62-1.41,39.28,6.73,14.89,10.34,23.38,29.71,18.29,47.44-1.06,3.35-5.49,3.74-7.34.87-4.49-5.52-8.63-11.49-13.11-17.03-7.04,58.58-45.33,108.55-104.42,122.74-50.79,10.7-111.01,6.39-146.47-29.35-11.28-11.39-20.05-25.95-25.21-44.24-5.07-17.71-6.26-35.79-5.59-53.37-1.06-1.27-2.08-2.58-3.07-3.92-.88-1.26-1.63-2.4-2.43-3.76.34-2.73.77-5.46,1.24-8.17v-.02Zm533.62-85.01c-3.22-3.46-6.27-6.18-9.28-8.2-2.21-1.5-4.4-2.63-6.6-3.42.54,5.02.21,10.1-.83,14.94-2.79,12.13-9.31,22.91-17.93,31.54-4.25,4.17-8.81,7.88-14.25,10.65-1.09.56-2.43.13-3.01-.96-.36-.72-.29-1.5.07-2.16,2.4-4.87,4.84-9.72,7.14-14.63l.02-.02c3.92-8.32,7.47-16.77,9.71-25.57.23-.92.46-1.81.65-2.73.83-3.68,1.24-7.3,1.65-10.98-3.15.92-6.5,2.27-10.18,4.04-5.57,2.6-11.23,5.75-17.4,8.71-1.45.72-3.25.11-3.95-1.36-.42-.9-.34-1.93.13-2.73.62-1.01,1.27-2.03,1.96-3.01,7.66-11.26,18.37-20.2,32.62-23.11,17.29-3.55,34.1,9.56,34.81,27.16.08,2.89-3.56,4.05-5.31,1.83Z"/>
    <polygon class="cls-2" points="902.08 537.34 901.95 538.7 902.26 537.39 902.08 537.34"/>
  </g>
</svg>