<?xml version="1.0" encoding="UTF-8"?>
<svg id="Layer_1" data-name="Layer 1" xmlns="http://www.w3.org/2000/svg" viewBox="0 0 2592 1728">
  <defs>
    <style>
      .cls-1 {
        fill: #fff;
      }
    </style>
  </defs>
  <g>
    <path class="cls-1" d="m756.4,1252c-8.87,3.5-17.8,5.25-26.81,5.25-11.44,0-21.66-2.11-30.67-6.33-9.01-4.22-16.66-9.9-22.95-17.05-6.29-7.15-11.08-15.37-14.37-24.67-3.29-9.29-4.93-18.95-4.93-28.96,0-11.15,1.53-21.77,4.61-31.85,3.07-10.08,7.65-18.91,13.73-26.49,6.08-7.58,13.65-13.62,22.74-18.12,9.08-4.51,19.7-6.76,31.85-6.76,8.29,0,16.12.97,23.49,2.9,7.36,1.93,13.94,4.97,19.73,9.12,5.79,4.15,10.65,9.4,14.59,15.77,3.93,6.36,6.61,14.05,8.04,23.06h-20.38c-1-5.86-2.86-10.9-5.58-15.12-2.72-4.22-6.08-7.68-10.08-10.4-4-2.71-8.55-4.75-13.62-6.11-5.08-1.36-10.48-2.04-16.19-2.04-9.3,0-17.27,1.86-23.92,5.58-6.65,3.72-12.09,8.62-16.3,14.69-4.22,6.08-7.33,13.01-9.33,20.81-2,7.79-3,15.77-3,23.92s1.14,15.69,3.43,23.06c2.29,7.37,5.65,13.87,10.08,19.52,4.43,5.65,9.9,10.15,16.41,13.51,6.51,3.36,14.05,5.04,22.63,5.04,8.01,0,15.08-1.29,21.23-3.86,6.15-2.57,11.33-6.11,15.55-10.62,4.22-4.51,7.4-9.79,9.55-15.87,2.14-6.08,3.07-12.62,2.79-19.63h-48.9v-17.16h67.14v80.65h-12.87l-5.36-19.09c-6.01,8.01-13.44,13.76-22.31,17.27Z"/>
    <path class="cls-1" d="m1006.28,1100.68c14.59,0,25.99,3.58,34.21,10.72,8.22,7.15,12.33,16.95,12.33,29.39,0,9.3-2.11,17.45-6.33,24.45-4.22,7.01-10.98,11.8-20.27,14.37v.43c4.43.86,8.04,2.29,10.83,4.29,2.79,2,5,4.4,6.65,7.19,1.64,2.79,2.86,5.9,3.65,9.33.78,3.43,1.39,7.01,1.82,10.72.28,3.72.5,7.51.64,11.37.14,3.86.5,7.65,1.07,11.37.57,3.72,1.39,7.26,2.47,10.62,1.07,3.36,2.68,6.33,4.83,8.9h-22.74c-1.43-1.57-2.4-3.72-2.9-6.43-.5-2.71-.82-5.76-.97-9.12-.14-3.36-.29-6.97-.43-10.83-.14-3.86-.57-7.65-1.29-11.37-.57-3.72-1.29-7.26-2.15-10.62-.86-3.36-2.22-6.29-4.08-8.79-1.86-2.5-4.29-4.5-7.29-6.01-3-1.5-7.01-2.25-12.01-2.25h-49.76v65.42h-20.38v-153.15h72.07Zm4.29,69.5c4.29-.71,8.04-2.11,11.26-4.18,3.22-2.07,5.79-4.86,7.72-8.37,1.93-3.5,2.9-8.04,2.9-13.62,0-7.72-2.15-14.01-6.43-18.88-4.29-4.86-11.23-7.29-20.81-7.29h-50.62v53.41h42.47c4.72,0,9.22-.35,13.51-1.07Z"/>
    <path class="cls-1" d="m1252.52,1100.68l59.84,153.15h-22.52l-16.73-46.12h-64.78l-17.16,46.12h-20.81l59.63-153.15h22.52Zm14.16,89.87l-25.52-71.43h-.43l-25.95,71.43h51.91Z"/>
    <path class="cls-1" d="m1501.76,1100.68c15.44,0,27.13,3.97,35.07,11.91,7.94,7.94,11.9,19.06,11.9,33.35s-3.97,25.45-11.9,33.46c-7.94,8.01-19.63,11.94-35.07,11.8h-46.76v62.63h-20.38v-153.15h67.14Zm-6.86,73.36c11.58.14,20.06-2.22,25.42-7.08,5.36-4.86,8.04-11.87,8.04-21.02s-2.68-16.12-8.04-20.91c-5.36-4.79-13.83-7.19-25.42-7.19h-39.9v56.2h39.9Z"/>
    <path class="cls-1" d="m1701.24,1100.68v65.85h80.65v-65.85h20.38v153.15h-20.38v-70.14h-80.65v70.14h-20.38v-153.15h20.38Z"/>
    <path class="cls-1" d="m1964.21,1100.68v153.15h-20.38v-153.15h20.38Z"/>
    <path class="cls-1" d="m2198.32,1122.34c-7.79-5.43-17.05-8.15-27.78-8.15-9.15,0-16.98,1.72-23.49,5.15-6.51,3.43-11.87,8.04-16.09,13.83-4.22,5.79-7.33,12.41-9.33,19.84-2,7.44-3,15.16-3,23.17,0,8.72,1,16.98,3,24.77,2,7.79,5.11,14.59,9.33,20.38,4.22,5.79,9.62,10.4,16.19,13.83,6.58,3.43,14.44,5.15,23.59,5.15,6.72,0,12.69-1.11,17.91-3.32,5.22-2.22,9.72-5.29,13.51-9.22,3.79-3.93,6.76-8.61,8.9-14.05,2.15-5.43,3.43-11.3,3.86-17.59h20.38c-2,19.31-8.65,34.32-19.95,45.04-11.3,10.72-26.74,16.09-46.33,16.09-11.87,0-22.24-2.04-31.1-6.11-8.87-4.08-16.23-9.69-22.09-16.84-5.87-7.15-10.26-15.58-13.19-25.31-2.93-9.72-4.4-20.16-4.4-31.32s1.57-21.63,4.72-31.42c3.14-9.79,7.76-18.34,13.84-25.63,6.08-7.29,13.65-13.05,22.74-17.27,9.08-4.22,19.48-6.33,31.21-6.33,8.01,0,15.58,1.07,22.74,3.22,7.15,2.14,13.51,5.29,19.09,9.44,5.58,4.15,10.22,9.33,13.94,15.55,3.72,6.22,6.15,13.41,7.29,21.56h-20.38c-2.29-10.87-7.33-19.02-15.12-24.45Z"/>
    <path class="cls-1" d="m2444.56,1121.59c-6.79-4.93-15.48-7.4-26.06-7.4-4.29,0-8.51.43-12.65,1.29-4.15.86-7.83,2.29-11.05,4.29-3.22,2-5.79,4.69-7.72,8.04-1.93,3.36-2.9,7.54-2.9,12.55,0,4.72,1.39,8.55,4.18,11.48,2.79,2.93,6.5,5.33,11.15,7.19,4.64,1.86,9.9,3.4,15.77,4.61,5.86,1.22,11.83,2.54,17.91,3.97,6.08,1.43,12.05,3.11,17.91,5.04,5.86,1.93,11.12,4.54,15.77,7.83,4.65,3.29,8.37,7.44,11.15,12.44,2.79,5.01,4.18,11.3,4.18,18.88,0,8.15-1.82,15.12-5.47,20.91-3.65,5.79-8.33,10.51-14.05,14.16-5.72,3.65-12.12,6.29-19.2,7.94-7.08,1.64-14.12,2.47-21.13,2.47-8.58,0-16.7-1.07-24.35-3.22-7.65-2.15-14.37-5.4-20.16-9.76-5.79-4.36-10.37-9.94-13.73-16.73-3.36-6.79-5.04-14.83-5.04-24.13h19.3c0,6.43,1.25,11.98,3.75,16.62,2.5,4.65,5.79,8.47,9.87,11.48,4.08,3,8.83,5.22,14.26,6.65,5.43,1.43,11.01,2.15,16.73,2.15,4.57,0,9.19-.43,13.83-1.29,4.64-.86,8.83-2.32,12.55-4.4,3.72-2.07,6.72-4.9,9.01-8.47,2.29-3.57,3.43-8.15,3.43-13.73,0-5.29-1.39-9.58-4.18-12.87-2.79-3.29-6.51-5.97-11.15-8.04-4.65-2.07-9.9-3.75-15.77-5.04-5.87-1.29-11.83-2.61-17.91-3.97-6.08-1.36-12.05-2.93-17.91-4.72-5.87-1.79-11.12-4.15-15.77-7.08-4.65-2.93-8.37-6.72-11.15-11.37-2.79-4.65-4.18-10.47-4.18-17.48,0-7.72,1.57-14.41,4.72-20.06,3.14-5.65,7.33-10.3,12.55-13.94,5.22-3.65,11.15-6.36,17.8-8.15,6.65-1.79,13.48-2.68,20.48-2.68,7.86,0,15.16.93,21.88,2.79,6.72,1.86,12.62,4.79,17.7,8.79,5.07,4,9.08,9.04,12.01,15.12,2.93,6.08,4.54,13.34,4.83,21.77h-19.31c-1.15-11.01-5.11-18.98-11.9-23.92Z"/>
  </g>
  <g>
    <path class="cls-1" d="m971.34,786.87c-9.47-12.38-41.18-55.02-81.42-54.57-32.94.39-31.87,40.95-17.7,69.2,17.7,35.36,19.46,39.48,20.97,58.34,2.07,26.37-5.84,58.63-68.08,55.32-18.44-.97-29.08-9.17-35.08-22-1.9-4.07-21.88-62.08-21.88-62.08-58.94-145.65-23-300.25-8.63-349.87,2.37-8.17-3.76-16.32-12.27-16.32h-15.65c-9.81,0-72.28,0-100.51,0-8.34,0-15.69,5.47-18.06,13.46-.03.09-.05.18-.08.26-13.8,46.6-52.14,204.16,7.87,352.45,0,0,38.72,74.94,31.79,170.59-.92,12.64,9.12,23.38,21.79,23.38h351.71c4.02,0,7.85-1.81,10.35-4.96,7.87-9.9,8.43-22.28,8.73-29.82,3.69-93.61-31.32-147.83-73.84-203.41Z"/>
    <path class="cls-1" d="m1296.89,466.06c4.19,0,5.97,3.98-.51,9.1-18.34,14.49-118.39,111.47-122.46,242.17-3.77,120.43,76.9,157.09,118.82,279.73,2.61,7.65,3.32,15.54,2.21,22.62-.5,3.2-3.28,5.53-6.51,5.53h-178.36c-2.3,0-4.49-1.16-5.62-3.16-.99-1.76-1.71-3.8-2.09-6.17-2.22-13.43,1.34-3.11-3.72-60.68-3.4-38.94-14.14-82.33-73.24-183.86-61.94-106.43,88.56-293.7,88.97-294.22,6.3-8.02,16.09-12.49,26.28-12.39,36.56.36,146.18,1.32,156.22,1.32Z"/>
    <path class="cls-1" d="m1435.78,550.63c66.84-1.19,117.97,87.26,193.61,87.26,51.91,0,70.37-42.24,70.37-95.01,0-16.99-1.36-46.29-6.45-65.96-1.81-6.99-8.11-11.87-15.34-11.88-52.25-.05-270.24-.26-274.8.01-41.59,2.55-55.86,16.85-102.7,67.04-35.81,38.39-99.42,174.39-53.04,273.11,29.56,62.88,24.24,47.34,79.92,150,16.29,23.85,22.3,55.4,22.47,57.3.56,5.79-.5,11.03,3.54,12.71.87.35,16.54,0,23.31,0h170.46c9.79,0,17.17-9.17,14.76-18.66-.01-.08-.03-.16-.06-.25-20.91-80.98-191.66-185.99-170.85-220.05,8.34-13.64,25.61-15.91,48.5-15.91,56.29,0,108.99,48.73,169.66,48.73,50.17,0,61.59-43.97,61.59-117.9,0-12.27-4.41-16.67-10.57-16.67-18.48,0-42.21,25.49-108.17,25.49-48.4,0-166.39-33.4-166.39-109.9,0-28.13,12.2-48.8,50.15-49.47Z"/>
    <path class="cls-1" d="m1893.49,568.84c65.83,16.35,65.53,69.05,141.16,69.05,51.93,0,70.36-42.24,70.36-95.01,0-14.68-1.02-38.57-4.58-57.47-2.22-11.81-12.55-20.35-24.57-20.35h-297.59c-17.78,0-31.96,14.82-31.2,32.58,1.1,25.52,3.47,58.53-.79,80.67-10.96,57.09-24.83,51.79-23.99,98.09,1.09,59.1-17.47,124.59-30.81,183.33-13.6,59.95-47.56,128.28-40.05,160.76.64,2.78,3.18,4.72,6.04,4.72h244.76c60.8,0-96.42-113.53-96.1-221.02.06-20.24,21.65-45.85,42.92-37.4,57.4,22.89,105.02,58.9,165.39,52.27,49.84-5.48,69.94-44.45,61.56-117.9-1.42-12.39-11.16-17.19-17.33-17.19-18.48,0-35.45,26.02-101.41,26.02-48.37,0-129.05-19.7-129.05-96.19,0-28.16,31.99-53.24,65.28-44.97Z"/>
    <path class="cls-1" d="m2504.55,833.9c-24.6,0-36.93,80.94-155.66,80.94-98.52,0-117.9-30.75-121.28-97.52-2.1-41.6,25.69-51.53,71.99-32.57,78.94,32.37,59.86,34.22,118.75,34.22,42.21,0,51.02-43.98,51.02-116.99,0-12.32-2.64-15.83-7.9-15.83-15.83,0-35.22,25.51-90.61,25.51-76.53,0-142.83-46.49-128.47-107.1,7.93-33.47,39.19-46.84,73.3-38.36,65.5,16.29,60.42,61.03,129.95,61.03,51.87,0,70.36-30.76,70.36-82.7,0-13.76-.85-34.88-3.67-52.87-2.4-15.35-15.74-26.59-31.27-26.59h-309.27c-13.14,0-22.98,12.02-20.38,24.9,6.56,32.47,15.7,87.14-18.4,140.09-27.65,42.94-1.99,48.04-8.34,119.87-7.88,89.3-88.67,228.43-61.54,262.99.14.19.29.37.44.56,6.06,7.53,15.29,11.76,24.95,11.76h372.53c9.16,0,18.14-3.18,24.93-9.33,24.72-22.37,36.17-63.15,36.17-132.71,0-33.43-7.94-49.29-17.61-49.29Z"/>
  </g>
  <path class="cls-1" d="m602.09,1026.98c-6.52,43.5-23.24,90.18-57.39,135.4-23.76,31.46-54.9,57.17-91.12,74.27-19.89,9.38-44.68,18.73-72.84,24.52,20.09-21.07,74.36-66.27,98.08-118.72-3.73,1.02-52.83,29.73-119.01,36.51-72,7.35,5.67-486.42,5.67-486.42-18.77,17.14-129.21,241.19-123.5,424.47,0,0-.02,95.46,11.59,139.8-9.64-2.8-19.39-6.23-29.23-10.41,0,0-179.21-66.73-145.82-351.12,27.38-233.12,217.83-372.51,385.52-414.73,36.31-9.15,71.54-13.73,103.83-13.73h1.52s-67.93,189.67,3.51,366.18c0,0,8.14,15.76,16.29,42.04,1.9,6.12,3.8,12.83,5.59,20.04,8.66,34.7,14.94,81.13,7.32,131.89Z"/>
</svg>