<?xml version="1.0" encoding="UTF-8"?>
<svg id="Layer_1" data-name="Layer 1" xmlns="http://www.w3.org/2000/svg" viewBox="0 0 1728 2592">
  <defs>
    <style>
      .cls-1 {
        fill: #fff;
      }
    </style>
  </defs>
  <path class="cls-1" d="m1536.03,1713.81c-16.71,111.51-59.57,231.18-147.13,347.11-60.9,80.64-140.74,146.56-233.58,190.4-50.99,24.04-114.54,48.02-186.72,62.86,51.5-54.02,190.62-169.9,251.44-304.35-9.56,2.61-135.44,76.23-305.1,93.59-184.58,18.85,14.54-1246.96,14.54-1246.96-48.11,43.93-331.23,618.3-316.6,1088.14,0,0-.06,244.71,29.71,358.39-24.72-7.18-49.71-15.97-74.94-26.68,0,0-459.42-171.08-373.82-900.12,70.19-597.61,558.41-954.94,988.3-1063.18,93.08-23.45,183.4-35.2,266.17-35.2h3.89s-174.13,486.22,8.99,938.73c0,0,20.87,40.39,41.76,107.77,4.87,15.7,9.74,32.89,14.34,51.38,22.2,88.95,38.29,207.97,18.76,338.12Z"/>
</svg>