<?xml version="1.0" encoding="utf-8"?>
<!-- Generator: Adobe Illustrator 28.0.0, SVG Export Plug-In . SVG Version: 6.00 Build 0)  -->
<svg version="1.1" id="Layer_1" xmlns="http://www.w3.org/2000/svg" xmlns:xlink="http://www.w3.org/1999/xlink" x="0px" y="0px"
	 viewBox="0 0 1295.9 1183.4" style="enable-background:new 0 0 1295.9 1183.4;" xml:space="preserve">
<style type="text/css">
	.st0{fill:#FFFFFF;}
	.st1{fill:#5F5F5F;}
</style>
<g>
	<g id="XMLID_00000082350606348824755500000017326723437823757462_">
		<g>
			<path class="st0" d="M622.2,179.7l28.1,4c9.1,1.2,17.1,6,22.6,13.3c1.4,1.9,2.7,3.9,3.6,5.9c76.6,18.6,137.8,50.4,177.5,92.4
				c2.6,2.8,5.1,5.7,7.6,8.8c24.1,29.5,39.4,68.5,43.4,111c1.4,15.3,1.7,31.1,0.8,47.1c29.7,9,60.4,19.5,86.1,33.4
				c11.7,6.3,22.3,13.3,31.2,21l0.4,0.4l2.5,2.4c6.9,6.7,15.5,15.1,21,27.9l0.2,0.4c8.1,20.3,2.8,43.5-13.4,59.1l-0.2,0.2
				c-1.9,1.9-4,3.5-6.2,5.1c-11.1,7.8-25.1,11.7-42,11.7c0,0-0.9,0-1.3,0c0.4,2.3,0.6,4.6,0.7,6.9c0.2,5.3-0.5,10.4-2,15.4
				c-3.2,10.7-10,20.1-19.6,26.4c-7.4,4.9-16.1,7.5-24.9,7.7h-1.1c-3.4,0-6.7-0.4-10-1.1l-0.4-0.1l-1.5-0.4l-6.6-1.9
				c-1.1,4.6-2.2,9.1-3.6,13.5c-1.3,4.2-2.8,8.1-4.5,12.1c-0.1,0.4-0.2,0.6-0.4,0.9c-10.2,24.1-26.5,44.8-47.5,58.9
				c-0.8,0.6-1.6,1.1-2.4,1.7c0.5,1,1.1,1.9,1.5,3c3.4,8.7,1.4,18.6-5.4,25.1c-2.5,2.5-5.7,5.4-9.6,8.5c0.4,0.7,0.7,1.4,1.1,2.2
				c3.6,8.3,1.9,18-4.2,24.8c-6.6,7.3-18.7,17.8-36.9,24.2c-1.1,7.6-5.7,14.4-13,17.8c-9.9,4.7-23.2,10-38.8,10.7
				c-7.1,17.6-19.3,33.4-34.8,45c-19.5,15.4-41.3,28.8-64.7,40c-32,15.6-68.3,26.8-107.5,33.5l-0.4,0.1h-0.3
				c-5.3,0.8-10.7,1.4-16.1,2.1c-2.8,0.4-5.7,0.6-8.5,1l-0.4,0.1c-1.1,0.1-2.8,0.3-6.8,0.4c-2,0.2-3.9,0.3-4.6,0.4
				c-8.1,0.8-20.2,1.1-35.6,1.1h-1.5c-1,0-1.9,0-2.9,0c-5.3,0-10.5-0.3-15.6-0.6c-3.1-0.2-6.1-0.4-8.8-0.4c-5-0.1-12.6-1-21.7-2
				c-2.5-0.3-4.7-0.5-6.4-0.7c-3.6-0.4-12.7-1.4-19.9-2.9c-50.5-9.3-91.5-37-118.5-80.2c-23.6-37.7-35.7-85.1-34.9-137.1
				c0.6-30.7,6.8-62.4,18.3-94.5c5.6-16.2,12.3-33.9,18.8-50.9c3.9-10.3,7.6-20.2,11.1-29.5l0.1-0.4c15-38.4,25.4-80.3,31-124.5
				c0.4-3.7,1-7.7,1.4-11.9c-5-5-8.7-11.4-10.4-18.3c-2.4-8.6-1.5-16.7-0.8-22.1c5-41.6,14.5-95,43.5-141l0.3-0.4
				c41.7-62.7,118.9-101.6,201.3-101.6c10.9,0,21.8,0.7,32.5,2c1.1,0.2,2.2,0.3,3.4,0.4c5.9-5,13.7-8,21.9-8
				C619,179.4,620.6,179.4,622.2,179.7z M402.6,977c5.2,1.1,12.6,2.1,18,2.7c6.2,0.6,20.3,2.6,26.4,2.7c8.7,0.3,18,1.3,26.6,1.1
				c10.3,0,25.3-0.1,35.5-1.1c1.6-0.2,9.8-0.6,11.1-0.8c8-1.1,16.3-1.9,24.3-3.1c35.1-5.9,70-16.3,102.1-31.8
				c21.7-10.3,42.2-22.9,61-37.8c13.9-10.3,24.6-24.9,30-41.3c1.1-3,2-5.9,3-8.9c17.9,3.4,32.8-2.3,44.4-7.8c1.9-0.9,1.9-3.8,0-4.2
				c-7-1.2-10.7-5-12.4-7.5c-0.6-0.9,0.1-2.2,1.1-2.2c29.5-0.6,46.9-14.9,54.7-23.3c1.6-1.7,0.4-4.2-1.5-3.6
				c-12,3.4-26.2,0.4-35.2-2.4c-1.9-0.6-1.4-4,0.7-4.3c24.3-3.8,42-18.5,49.7-26c1.4-1.4,0.6-3.9-1.2-3.7c-23.2,2.7-37.7-1.3-44-3.8
				c-1.6-0.6-1.6-3,0-4l0.9-0.7c19.8-0.6,37.4-9.1,53.3-19.8c30.2-20.5,47.6-55.8,50.1-91.6c0-1.1,0.1-2.1,0.1-3.1l3.7,1l25.9,7.3
				l0.7,0.2c2,0.4,4.2,0.6,6.3,0.6c5-0.1,9.7-1.6,14.1-4.3c5-3.3,8.6-7.9,10.6-13.4c1.1-3.3,1.8-6.8,1.7-10.5
				c-0.1-2.6-0.5-5-1.3-7.3c-3.3-9.3-10.6-15.7-19.7-17.9L887,588.9l-29.6-9.1l4.4-17.6c0.4,0.1,0.7,0.2,0.9,0.3
				c0.1-0.2,0.2-0.4,0.3-0.6c0.8,0.4,1.6,0.9,2.5,1.3c3.8,1.9,8.3,4.2,13.4,6.7c39.8,19.5,111.3,50.1,140.7,22.2
				c0.3-0.3,0.5-0.4,0.7-0.7c9.6-9.7,12.6-23.8,7.8-35.9c-4.2-10-11.4-16.4-18.4-23.3c-3.6-3.2-7.5-6.2-11.8-9
				c-31-21-77.8-35.5-113.9-46.1c2.2-19.9,2.5-40.1,0.6-60.1c-2.8-29.4-11.9-59.1-27.8-84.4c-5.2-8.2-11.1-16-17.8-23.2
				C794,261.9,726,234.6,659,220l0.1-0.4c1.1-7.4-4.2-14.3-11.6-15.4l-28.1-4c-6.7-1-12.9,3.1-14.9,9.3c-4.9-0.8-9.7-1.5-14.8-2
				C509.2,197,421.2,229,375.4,297.9c-25,39.6-34.9,86.5-40.5,132.3c-0.5,4.7-1.1,9.7,0.3,14.3c1.6,6.5,6.5,11.5,12.3,14
				c-0.8,8-1.8,16.3-2.7,24.2c-5.6,44.2-16.1,88-32.2,129.4c-9.3,25.4-21,54.8-29.7,80.2c-10.1,28.2-16.5,57.8-17.2,87.9
				C264.3,871.1,306.1,959.6,402.6,977z"/>
			<path class="st0" d="M992.6,550.1c4.5,4.2,6.9,9,5.3,14.2c-0.2,0.7-0.5,1.5-0.9,2.2c-0.4,1.1-0.5,0.9-0.5,1c-0.3,0-0.8,0.5-2.6,1
				C965,572.9,903.8,544,873.7,530c2.7-9.7,4.9-19.5,6.7-29.4c25.6,7.5,68.4,20.3,97.6,37.9C983.2,541.9,988.2,545.7,992.6,550.1z"
				/>
			<path class="st0" d="M936.8,636.2c0.2,0,0.3,0,0.4,0c0.7,0,1.3-0.2,1.9-0.5c0.7-0.5,1.1-1.1,1.4-1.7c0.2-0.6,0.3-1.1,0.3-1.9
				v-0.3c-0.5-1.6-1.5-2.5-2.8-2.7l-0.9-0.3l-42.8-13.1c-1.6-3.3-3.4-6.4-5.7-9.3l5.5,1.7l17.7,5.5l27.7,8.5
				c2.8,0.6,5.2,2.2,6.8,4.6c1.1,1.8,1.8,3.8,1.8,5.8c0,0.8-0.2,1.5-0.3,2.3c0,0-0.1,0-0.1,0.1c-0.1,0.3-0.1,0.6-0.2,0.9
				c-0.8,2.4-2.3,4.4-4.4,5.7c-2.3,1.5-5,2-7.8,1.6l-25-7.8l-9.3-2.8l-1.1-0.3c-0.4-2.3-1.1-4.7-1.7-6.9l13.1,3.6L936.8,636.2z"/>
			<path class="st0" d="M936.8,636.2l-25.6-7.2l-13.1-3.6c-1.1-3.4-2.3-6.5-3.9-9.6l42.8,13.1l0.9,0.3c1.3,0.3,2.3,1.1,2.8,2.7v0.3
				c0,0.7-0.1,1.2-0.3,1.9c-0.3,0.6-0.7,1.1-1.4,1.7c-0.5,0.4-1.1,0.5-1.9,0.5C937,636.2,937,636.2,936.8,636.2z"/>
			<path class="st0" d="M868.6,631.1c5.4,8.9,6.5,20.5,5.4,31.1c-3.2,35.1-28.7,63.7-62.6,71.9c-5.7,1.4-11.1,1.6-15.8,0.9
				c-17-2.5-17.3-10.5-17-12.7c0.5-3.8,1.1-7.7,1.5-11.6c0.1-1.1-0.4-2.1-1.3-2.7c-1.3-0.9-3.1-0.5-4.1,0.8
				c-5.1,8-9.9,16.1-14.4,24.3c-17.4,31.9-30.6,66-43.3,99.9l-6.1,15.9c-1.6,4-3.6,10.3-5.7,14.1c-4.1,8-10.4,14.6-17.7,19.7
				c-12.7,9.6-26.8,18-41.1,25.4c-38.2,19.8-80.8,32-123.6,37.1c-1.3,0.1-4.7,0.6-6,0.8c-1.3,0-8.7,0.6-10.2,0.7
				c-15.6,1.2-33.4,1.6-49,0.7c-2.7-0.1-9.7-0.5-12.3-0.6c-2.9-0.2-17.2-1.6-20.3-2c-15.3-1.3-30.9-4.8-44.9-10.4
				c-28.7-12.1-49.1-33.6-62.7-61.6c-23.2-49.2-25.2-107.1-9.8-159.1c11-36.4,24.3-72.7,35.8-109c6.2-20.1,11.1-40.5,14.7-61.1
				c1.9-8.4,3.6-16.9,5.1-25.5c6.6-0.9,13.2-1.4,19.6-1.6c6.9-0.2,13.7,0.1,20.5,1c0.4,0.1,0.9,0.2,1.3,0.2
				c16.8,2.5,31.5,9.6,46.1,18.5c12,7.1,24.4-8.5,14.6-18.8c-15.2-15.7-37.4-24.5-59.6-25.1c-6.9-0.2-13.9,0.4-20.6,1.9
				c-6.6,1.5-13.1,3.8-19.1,7c0.8-5.1,1.5-10.3,2.2-15.4c0.9-6.9,1.9-16.1,2.8-25.1l0.3-3.7c10.8-2.2,21.6-4.3,32.2-5.9
				c107.6-14.5,216.7,15.5,316.2,56.3c1.6,1.8,3.3,3.7,5,5.9c0.2,0.2,0.4,0.4,0.5,0.7c5.5,7.3,10.7,17,12.8,29.2
				c-5.9-1.6-12.1-1.8-18-0.5l-25.8,5.5c-3.7,0.8-7,3.3-8.3,6.9c-1.7,4.2-0.5,9,2.8,12.1l22.1,20.2c4.2,3.9,9.3,6.8,14.9,8.5
				l5.9,1.8c-1.3,6.9-2.7,13.8-3.8,20.4c-1.3,7.1-2.5,13.9-3.5,20.3c-2.6,15.7-4.1,22.7-5,30.1c-0.4,3,1.8,5.7,4.7,6.2l30.2,10.2
				c3,0.4,5.8-1.7,6.3-4.7l0.8-3.4c2.5-10.5,6.3-20.8,11.2-30.4c12.4-8.4,23.7-15.9,34.7-21.1c6.3-2.8,12.1-5.3,18.1-7.2h0.1
				c3.6-1.1,7.3-1.9,11.3-2.5c9.7-1.1,19.7,2.8,26.8,9.4C865.4,626.6,867.2,628.8,868.6,631.1z M862.9,658.6
				c1.8,2.3,5.5,1.1,5.4-1.9c-0.7-17.9-17.8-31.1-35.4-27.6c-14.4,3-25.3,12-33.1,23.5c-0.7,1-1.4,1.9-2,3c-0.4,0.8-0.5,1.9-0.1,2.7
				c0.7,1.5,2.5,2.1,4,1.4c6.3-3,12-6.2,17.7-8.8c3.7-1.8,7.2-3.2,10.3-4.2c-0.4,3.8-0.9,7.4-1.7,11.1c-0.2,1-0.4,1.9-0.7,2.8
				c-2.2,8.9-5.8,17.5-9.8,26c-2.4,5-4.9,9.9-7.3,14.9c-0.4,0.6-0.4,1.4-0.1,2.1c0.6,1.1,1.9,1.6,3,1c5.6-2.7,10.2-6.5,14.5-10.8
				c8.8-8.8,15.4-19.7,18.2-32c1.1-5,1.4-10.1,0.8-15.1c2.3,0.8,4.5,1.9,6.7,3.4C856.6,652.3,859.7,655,862.9,658.6z M644.3,566.3
				c-0.2-0.8-0.3-1.6-0.3-2.5c-5.5-10.3-13.2-18.4-22.1-25.6c-8.8-7.2-19-12.9-30.1-16.9c-12.5-4.5-26.2-6.9-39.6-6
				c-10.4,0.5-21,3.1-30.4,7.3c-5,2.1-8,7.6-7,13.3c1.3,6.6,8,10.9,14.6,9.2c18.5-3.9,36.5-4.2,54.7,0.5
				c19.2,4.9,37.1,13.7,55.3,22.6C641.4,569.5,643.7,568.2,644.3,566.3z M632.2,781.7c5.2-18-3.4-37.7-18.5-48.2
				c-11.9-8.2-26.4-10.4-39.9-6.8c-4.2,1.1-8.1,2.7-11.9,5c-0.9,0.5-1.7,1.5-2,2.7c-0.6,2.3,0.9,4.7,3.2,5.2c2,0.6,4.2,1,6,1.3
				c5.6,1.1,11.1,2.4,16.5,4.3c-2.7,1.1-5.3,2.4-8,3.6c-39.8,19.8-83,36.2-127.7,37.6c-41.6,1.6-76.4-10.1-109.5-32.7
				c-3.9-2.7-7.8-5.5-11.7-8.4c-1.2-1.1-2.7-1.6-4-1.6s-2.6,0.4-3.6,1.1c0,0-4.4,3.4-1.2,8.3c0.8,1.4,1.6,2.5,2.5,3.8
				c1.1,1.3,2,2.7,3.1,4c-0.6,17.9,0.5,36.2,5.7,54.2c5.2,18.5,14.2,33.3,25.6,44.8c36,36.4,97.1,40.7,148.7,29.8
				c60.1-14.4,98.9-65.1,106-124.6c4.5,5.7,8.8,11.7,13.3,17.3C626.6,785.5,631.1,785,632.2,781.7z M614,618.9
				c4.6-2.4-0.8-8.2-2.1-11.2c-4.3-6.7-9.6-12.7-15.7-17.8c-12.5-10.3-29.5-19.1-46.9-18.1c-17.3,0.4-35.3,10.1-41.9,26.5l-0.4,1.1
				c-0.9,2.7,1.9,5.6,4.6,4.7c2.7-0.7,5.2-1.5,7.7-2.2c14.8-4.8,29.4-6.5,44.5-2.6c17.3,4,30.5,13.1,47.8,19.5
				C612.3,619.3,613.2,619.3,614,618.9z M467.9,613.3c5.3-16.8,6.8-34.6,2.7-51.7c-1.1-4.6-7.8-4.6-9-0.1
				c-1.9,7.5-4.1,15.4-6.5,22.7c-4.6,14.2-11,27.2-18.9,39.4c-3.2,5.4-6.8,10.4-10,15.9c-6,0.3-11.9,1.9-17.1,4.6
				c-25.8,12.5-35.1,46.6-18.8,70.4c5.2,7.7,12.3,13.7,21,17.2c16.4,5.9,34.8,1.6,46.6-9.9c3.6-3.8-0.2-9.9-5.2-8.3
				c-10.1,2.3-23.5,2.2-31.9-2.7c-7.6-4.6-12.4-13.4-12-22.4c0.5-18.5,15.5-28.6,33.3-29c2.9-0.1,6.3,0.2,9.7,0.4
				c3.3,0.4,5.8-3.4,4.1-6.2c-1.9-3.3-4.4-5.9-7.3-8C457.8,637,464.3,625.1,467.9,613.3z M415.7,577c4.9-22.9-0.9-43.5-12.8-46.1
				c-0.5-0.1-1.1-0.2-1.5-0.3c-8.7-0.7-18,8.1-24.2,21.8c-0.4,1.9-0.7,4-1.1,5.9l11.2,9c1.5,1.1,1,3.5-0.9,4l-13.9,3.6
				c-0.6,2.7-1.3,5.5-1.9,8.2c-0.2,15.1,4.7,27.1,12.9,30.1c0.5,0.2,1.1,0.4,1.6,0.4C397,616.4,410.7,599.9,415.7,577z"/>
			<path d="M868.3,656.7c0.1,2.9-3.6,4.2-5.4,1.9c-3.3-3.5-6.4-6.3-9.5-8.3c-2.2-1.6-4.4-2.7-6.7-3.4c0.6,5,0.3,10.2-0.8,15.1
				c-2.8,12.3-9.5,23.3-18.2,32c-4.3,4.2-8.9,8-14.5,10.8c-1.1,0.6-2.4,0.2-3-1c-0.4-0.7-0.3-1.5,0.1-2.1c2.4-5,4.9-9.9,7.3-14.9
				c4-8.5,7.6-17.1,9.8-26c0.3-1,0.5-1.9,0.7-2.8c0.8-3.7,1.2-7.3,1.7-11.1c-3.2,1-6.6,2.4-10.3,4.2c-5.7,2.7-11.4,5.8-17.7,8.8
				c-1.5,0.7-3.3,0.1-4-1.4c-0.4-0.9-0.4-1.9,0.1-2.7c0.6-1.1,1.3-2,2-3c7.8-11.5,18.7-20.5,33.1-23.5
				C850.5,625.6,867.6,638.8,868.3,656.7z"/>
			<path class="st0" d="M851.1,401.4c3.4,19.2,3.8,38.9,2.1,58.5c-1.7,20.3-5.7,40.5-11.2,59.9c-22.1-7.8-80.8-28.6-95.9-33.9
				c11.7-47.8,18.8-97.4,8.3-146.5c-7.2-31.8-21-57.2-39.9-76.9c53.1,20.4,104,52.1,125.8,101.8
				C845.3,376.2,848.9,388.7,851.1,401.4z"/>
			<path class="st0" d="M754.5,565.2l60,18.5c-8.8,3.3-16.8,8.5-23.6,15l-36.4-11.1l-17.2-5.3c0.1-0.1,0.1-0.1,0.1-0.1l-14.1-4.4
				l-18.9-16.6l22.4-4.4l15.9,4.9l4.2,1.3L754.5,565.2z"/>
			<path class="st0" d="M727.7,345.2c9.3,41.6,3.4,92.7-7.4,132.3c-2.7-1.1-4.7-1.9-4.7-1.9c-99.5-39.9-208.4-66.6-316.1-51.8
				c-10.3,1.3-20.5,3.1-30.6,5c2.7-34.6,10-69.4,24.3-100.7c33.7-70.3,118.2-103.4,193-95.5C654.6,240.2,713.9,273.1,727.7,345.2z
				 M607.4,397.2c2.2-15.7,2.5-37.7-11.1-56.8c-13.7-19.5-38.8-31.8-74.5-36.5c-26.8-3.7-49.7-0.4-68.4,10
				c-4.4,2.4-8.6,5.1-12.5,8.3c-32.5,26.4-36.7,69.4-37.1,74.2c-0.1,2.1,0.5,4.2,1.7,5.7c0.4,0.4,0.7,0.8,1.1,1.2l0.1,0.1
				c1.9,1.7,4.4,2.4,6.9,2.1c76.6-11.1,144.1,4.2,177.5,14.4c1.7,0.5,2.3,0.7,2.9,0.9c0.7,0.1,1.2,0.2,1.9,0.2
				c1.7,0,3.4-0.5,4.8-1.4l0.4-0.3c1.7-1.3,2.9-3.2,3.3-5.3c0.3-1.2,0.5-2.6,0.8-4.2C605.8,406.5,606.7,402.2,607.4,397.2z"/>
			<path d="M899.8,632.3l1.1,0.3l9.3,2.8l25,7.8c2.7,0.4,5.5-0.1,7.8-1.6c2.1-1.3,3.6-3.4,4.4-5.7c0.1-0.3,0.1-0.6,0.2-0.9
				c0-0.1,0.1-0.1,0.1-0.1c0.1-0.8,0.3-1.5,0.3-2.3c0-2-0.6-4.1-1.8-5.8c-1.6-2.4-4-4-6.8-4.6l-27.7-8.5l-17.7-5.5l-5.5-1.7
				c2.3,2.9,4.2,6,5.7,9.3c1.6,3.1,2.8,6.3,3.9,9.6C898.7,627.6,899.4,630,899.8,632.3z M647.5,204.1c7.4,1.1,12.6,8,11.6,15.4
				L659,220c67,14.6,135.1,41.9,180,89.5c6.7,7.2,12.6,14.9,17.8,23.2c15.9,25.3,24.9,55,27.8,84.4c1.9,20.1,1.6,40.2-0.6,60.1
				c36.1,10.6,82.9,25,113.9,46.1c4.2,2.8,8.1,5.8,11.8,9c7,6.9,14.2,13.3,18.4,23.3c4.9,12.1,1.8,26.2-7.8,35.9
				c-0.2,0.3-0.4,0.4-0.7,0.7c-29.5,27.9-100.9-2.7-140.7-22.2c-5-2.5-9.6-4.8-13.4-6.7c-0.9-0.4-1.7-0.9-2.5-1.3
				c-0.1,0.3-0.2,0.4-0.3,0.6c-0.2-0.1-0.4-0.2-0.9-0.3l-4.4,17.6l29.6,9.1l56.2,17.2c9.1,2.1,16.5,8.6,19.7,17.9
				c0.8,2.3,1.2,4.8,1.3,7.3c0.1,3.7-0.5,7.3-1.7,10.5c-2,5.5-5.7,10.1-10.6,13.4c-4.3,2.7-9.1,4.2-14.1,4.3c-2.1,0-4.2-0.2-6.3-0.6
				l-0.7-0.2l-25.9-7.3l-3.7-1c0,1-0.1,2-0.1,3.1c-2.5,35.8-19.8,71.1-50.1,91.6c-15.9,10.7-33.5,19.2-53.3,19.8l-0.9,0.7
				c-1.6,1-1.6,3.4,0,4c6.3,2.5,20.8,6.5,44,3.8c1.9-0.2,2.7,2.3,1.2,3.7c-7.7,7.5-25.4,22.2-49.7,26c-2.1,0.4-2.7,3.7-0.7,4.3
				c9,2.7,23.2,5.8,35.2,2.4c1.9-0.5,3.1,1.9,1.5,3.6c-7.8,8.5-25.2,22.7-54.7,23.3c-1.1,0-1.8,1.3-1.1,2.2
				c1.7,2.5,5.4,6.3,12.4,7.5c1.9,0.4,1.9,3.3,0,4.2c-11.6,5.5-26.5,11.2-44.4,7.8c-1,3-1.9,5.9-3,8.9c-5.4,16.5-16.1,31-30,41.3
				c-18.8,14.9-39.4,27.4-61,37.8c-32.1,15.5-67,25.8-102.1,31.8c-8,1.1-16.3,2-24.3,3.1c-1.3,0.2-9.6,0.6-11.1,0.8
				c-10.2,1-25.1,1.1-35.5,1.1c-8.6,0.3-18-0.8-26.6-1.1c-6-0.1-20.2-2-26.4-2.7c-5.3-0.5-12.7-1.5-18-2.7
				c-96.5-17.4-138.2-106-136.9-196.8c0.6-30.1,7.1-59.7,17.2-87.9c8.7-25.4,20.4-54.8,29.7-80.2c16.1-41.4,26.6-85.2,32.2-129.4
				c1-8,1.9-16.2,2.7-24.2c-5.8-2.5-10.7-7.4-12.3-14c-1.3-4.6-0.8-9.6-0.3-14.3c5.6-45.8,15.5-92.7,40.5-132.3
				C421.2,229,509.2,197,589.6,207.4c5,0.5,9.9,1.2,14.8,2c2-6.2,8.2-10.3,14.9-9.3L647.5,204.1z M997.9,564.3
				c1.6-5.1-0.8-10-5.3-14.2c-4.4-4.4-9.4-8.2-14.6-11.7c-29.2-17.5-72-30.3-97.6-37.9c-1.9,9.8-4.1,19.6-6.7,29.4
				c30.1,14.1,91.3,42.9,120.2,38.5c1.8-0.4,2.3-1,2.6-1c0-0.1,0.2,0.2,0.5-1C997.4,565.8,997.7,565,997.9,564.3z M874,662.3
				c1.1-10.6,0-22.2-5.4-31.1c-1.4-2.3-3.2-4.5-5.3-6.5c-7.1-6.5-17.1-10.4-26.8-9.4c-4,0.5-7.7,1.4-11.3,2.5h-0.1
				c-6,1.9-11.9,4.3-18.1,7.2c-11,5.2-22.3,12.7-34.7,21.1c-5,9.6-8.8,19.9-11.2,30.4l-0.8,3.4c-0.4,3-3.3,5.1-6.3,4.7l-30.2-10.2
				c-2.9-0.4-5-3.2-4.7-6.2c0.9-7.3,2.4-14.4,5-30.1c1.1-6.4,2.2-13.2,3.5-20.3c1.1-6.6,2.5-13.5,3.8-20.4l-5.9-1.8
				c-5.6-1.7-10.6-4.6-14.9-8.5L688.4,567c-3.4-3.1-4.5-7.9-2.8-12.1c1.3-3.6,4.6-6.1,8.3-6.9l25.8-5.5c5.9-1.2,12.1-1.1,18,0.5
				c-2.1-12.2-7.3-21.9-12.8-29.2c-0.2-0.3-0.4-0.5-0.5-0.7c-1.7-2.2-3.4-4.2-5-5.9C620,466.5,510.9,436.5,403.3,451
				c-10.6,1.6-21.4,3.7-32.2,5.9l-0.3,3.7c-0.9,9-1.9,18.2-2.8,25.1c-0.7,5.1-1.4,10.3-2.2,15.4c6-3.2,12.5-5.5,19.1-7
				c6.7-1.4,13.7-2,20.6-1.9c22.2,0.6,44.4,9.5,59.6,25.1c9.8,10.3-2.6,25.8-14.6,18.8c-14.6-8.9-29.3-16-46.1-18.5
				c-0.4,0-0.9-0.1-1.3-0.2c-6.8-0.9-13.6-1.1-20.5-1c-6.5,0.2-13,0.7-19.6,1.6c-0.4,0-0.9,0.1-1.3,0.1c-1.1,8.5-2.3,16.9-3.8,25.4
				c-3.6,20.6-8.5,41-14.7,61.1c-11.5,36.3-24.9,72.6-35.8,109c-15.4,52-13.4,109.9,9.8,159.1c13.6,27.9,34,49.4,62.7,61.6
				c14.1,5.7,29.6,9.1,44.9,10.4c3.2,0.4,17.4,1.9,20.3,2c2.6,0.1,9.6,0.5,12.3,0.6c15.6,0.9,33.4,0.5,49-0.7
				c1.5-0.1,8.8-0.7,10.2-0.7c1.3-0.2,4.7-0.7,6-0.8c42.8-5,85.4-17.2,123.6-37.1c14.3-7.3,28.4-15.8,41.1-25.4
				c7.3-5.1,13.6-11.8,17.7-19.7c2.1-3.8,4.2-10.1,5.7-14.1l6.1-15.9c12.7-34,25.9-68,43.3-99.9c4.5-8.2,9.3-16.4,14.4-24.3
				c1-1.3,2.7-1.7,4.1-0.8c1,0.6,1.4,1.7,1.3,2.7c-0.4,3.9-1,7.8-1.5,11.6c-0.4,2.2,0,10.3,17,12.7c4.7,0.7,10.2,0.5,15.8-0.9
				C845.2,725.9,870.8,697.4,874,662.3z M853.2,459.8c1.7-19.5,1.2-39.3-2.1-58.5c-2.2-12.6-5.7-25.1-10.8-37.1
				c-21.8-49.7-72.7-81.4-125.8-101.8c18.8,19.7,32.7,45.1,39.9,76.9c10.4,49.1,3.4,98.7-8.3,146.5c15.1,5.3,73.8,26.1,95.9,33.9
				C847.4,500.3,851.5,480.2,853.2,459.8z M814.5,583.7l-60-18.5l-7.6-2.3l-4.2-1.3l-15.9-4.9l-22.4,4.4l18.9,16.6l14.1,4.4
				c0,0,0,0-0.1,0.1l17.2,5.3l36.4,11.1C797.7,592.2,805.6,587,814.5,583.7z M720.3,477.5c10.8-39.6,16.7-90.7,7.4-132.3
				c-13.8-72.1-73.1-105-141.5-112.8c-74.8-7.9-159.3,25.2-193,95.5c-14.3,31.3-21.7,66.2-24.3,100.7c10.1-1.9,20.3-3.6,30.6-5
				c107.7-14.8,216.6,11.9,316.1,51.8C715.6,475.6,717.6,476.4,720.3,477.5z"/>
			<path d="M644,563.8c0,0.9,0.1,1.7,0.3,2.5c-0.6,1.9-2.9,3.2-4.9,1.9c-18.1-8.9-36.1-17.8-55.3-22.6c-18.2-4.7-36.3-4.4-54.7-0.5
				c-6.5,1.7-13.3-2.6-14.6-9.2c-1.1-5.7,1.9-11.1,7-13.3c9.5-4.2,20-6.8,30.4-7.3c13.4-0.9,27.2,1.5,39.6,6
				c11.1,4,21.2,9.7,30.1,16.9C630.8,545.4,638.5,553.6,644,563.8z"/>
			<path d="M613.7,733.5c15.1,10.5,23.7,30.2,18.5,48.2c-1.1,3.4-5.6,3.8-7.4,0.9c-4.5-5.7-8.8-11.7-13.3-17.3
				c-7.2,59.5-46,110.2-106,124.6c-51.6,10.9-112.7,6.5-148.7-29.8c-11.4-11.5-20.3-26.4-25.6-44.8c-5.2-18-6.4-36.4-5.7-54.2
				c-1.1-1.3-2-2.7-3.1-4c-0.9-1.3-1.7-2.4-2.5-3.8c-3.2-5,1.2-8.3,1.2-8.3c1.1-0.8,2.3-1.1,3.6-1.1s2.7,0.4,4,1.6
				c3.9,2.9,7.8,5.7,11.7,8.4c33.1,22.6,67.9,34.3,109.5,32.7c44.8-1.4,87.9-17.8,127.7-37.6c2.7-1.2,5.3-2.5,8-3.6
				c-5.3-1.9-10.9-3.2-16.5-4.3c-1.9-0.4-4-0.7-6-1.3c-2.3-0.5-3.8-2.9-3.2-5.2c0.4-1.2,1.1-2.2,2-2.7c3.7-2.2,7.7-3.9,11.9-5
				C587.2,723,601.8,725.2,613.7,733.5z M499.9,866.3c41.4-10.2,70-40.2,84.1-77.9c-37.2,34.8-87.9,62.7-136,55
				c-3-0.5-2.9-4.9,0.1-5.2c32-3.8,61.2-18.4,87.3-36.8c6.9-5,13.5-10.2,20.1-15.6c-0.4,0.3-0.9,0.4-1.3,0.6
				c-29.8,12.4-61.4,21.6-93.8,23.4c-37.6,2.4-80.8-5.7-112.6-28.3c2.4,32.5,15.1,63.1,46.6,78.1C426.7,875,465.4,873.6,499.9,866.3
				z"/>
			<path d="M611.8,607.7c1.3,3,6.7,8.8,2.1,11.2c-0.8,0.4-1.7,0.4-2.5,0c-17.2-6.5-30.4-15.6-47.8-19.5c-15.1-3.9-29.7-2.2-44.5,2.6
				c-2.5,0.7-5,1.5-7.7,2.2c-2.7,0.9-5.5-1.9-4.6-4.7l0.4-1.1c6.6-16.5,24.6-26.1,41.9-26.5c17.3-1,34.4,7.8,46.9,18.1
				C602.2,595,607.5,601,611.8,607.7z"/>
			<path d="M596.3,340.4c13.6,19.1,13.4,41,11.1,56.8c-0.7,5-1.6,9.3-2.3,12.7c-0.3,1.6-0.5,2.9-0.8,4.2c-0.4,2.1-1.6,4-3.3,5.3
				l-0.4,0.3c-1.4,0.9-3.1,1.4-4.8,1.4c-0.6,0-1.1-0.1-1.9-0.2c-0.6-0.2-1.2-0.4-2.9-0.9c-33.4-10.2-100.9-25.6-177.5-14.4
				c-2.5,0.3-5-0.4-6.9-2.1l-0.1-0.1c-0.4-0.4-0.7-0.8-1.1-1.2c-1.1-1.6-1.8-3.6-1.7-5.7c0.4-4.8,4.5-47.8,37.1-74.2
				c3.9-3.2,8-5.9,12.5-8.3c18.7-10.3,41.6-13.7,68.4-10C557.4,308.7,582.6,321,596.3,340.4z M591,393.4c0.3-2.2,0.5-4.7,0.6-7.2
				c-21.1-5.6-106.5-26-165.7-12.7c-0.4,1.1-0.8,2.3-1.1,3.3c-0.4,1.1-0.7,2.1-1,3.2c-0.8,2.7-1.3,5.3-1.9,7.6
				c15.8-1.9,31.2-2.7,46-2.7c25.6,0,49.2,2.4,69.8,5.7c20.7,3.3,38.2,7.6,51.7,11.5C590.1,399.5,590.6,396.6,591,393.4z"/>
			<path class="st0" d="M591.7,386.2c-0.1,2.5-0.4,5-0.6,7.2c-0.4,3.2-1,6.1-1.4,8.8c-13.5-3.9-31-8.2-51.7-11.5
				c-20.6-3.4-44.2-5.7-69.8-5.7c-14.8,0-30.2,0.8-46,2.7c0.5-2.3,1.1-4.9,1.9-7.6c0.3-1.1,0.6-2,1-3.2c0.3-1,0.6-2.1,1.1-3.3
				C485.2,360.2,570.5,380.7,591.7,386.2z"/>
			<path class="st0" d="M584.1,788.4c-14.1,37.8-42.7,67.7-84.1,77.9c-34.6,7.3-73.2,8.7-105.6-6.6c-31.5-14.9-44.2-45.6-46.6-78.1
				c31.8,22.6,75,30.7,112.6,28.3c32.5-1.9,64-11.1,93.8-23.4c0.4-0.2,0.9-0.4,1.3-0.6c-6.5,5.4-13.2,10.6-20.1,15.6
				c-26.1,18.4-55.3,33-87.3,36.8c-3,0.4-3.1,4.7-0.1,5.2C496.1,851.1,546.8,823.1,584.1,788.4z"/>
			<path d="M470.6,561.5c4.2,17.2,2.7,34.9-2.7,51.7c-3.6,11.9-10.1,23.7-19.4,32.4c2.9,2,5.4,4.7,7.3,8c1.8,2.8-0.8,6.6-4.1,6.2
				c-3.4-0.3-6.8-0.5-9.7-0.4c-17.9,0.4-32.8,10.5-33.3,29c-0.4,8.9,4.4,17.8,12,22.4c8.4,5,21.8,5,31.9,2.7c5-1.6,8.8,4.5,5.2,8.3
				c-11.9,11.5-30.2,15.8-46.6,9.9c-8.8-3.4-15.8-9.5-21-17.2c-16.4-23.8-7.1-57.9,18.8-70.4c5.1-2.7,11.1-4.3,17.1-4.6
				c3.2-5.5,6.8-10.5,10-15.9c8-12.2,14.3-25.3,18.9-39.4c2.5-7.3,4.6-15.2,6.5-22.7C462.8,556.9,469.5,556.9,470.6,561.5z"/>
			<path d="M402.8,530.9c11.9,2.6,17.7,23.2,12.8,46.1c-5,22.9-18.7,39.4-30.7,36.8c-0.5-0.1-1.1-0.3-1.6-0.4
				c-8.2-3-13.1-14.9-12.9-30.1c0.6-2.7,1.3-5.5,1.9-8.2l13.9-3.6c1.9-0.4,2.4-2.8,0.9-4l-11.2-9c0.4-1.9,0.8-4,1.1-5.9
				c6.2-13.7,15.6-22.6,24.2-21.8C401.8,530.8,402.3,530.8,402.8,530.9z"/>
			<path class="st1" d="M357.8,543.6c1.5-8.5,2.7-16.9,3.8-25.4c0.4,0,0.9-0.1,1.3-0.1C361.4,526.7,359.8,535.2,357.8,543.6z"/>
		</g>
	</g>
</g>
</svg>
