<?xml version="1.0" encoding="UTF-8"?>
<svg id="Layer_1" data-name="Layer 1" xmlns="http://www.w3.org/2000/svg" viewBox="0 0 1295.94 1183.38">
  <defs>
    <style>
      .cls-1 {
        fill: #fff;
        stroke-width: 0px;
      }
    </style>
  </defs>
  <path class="cls-1" d="m982.07,569.17c1.7-.37,2.29-.87,2.47-.88.03-.1.21.1.53-.95.38-.72.68-1.44.9-2.15,1.54-4.97-.78-9.62-5.11-13.7-11.66-11.39-26.77-19.16-41.66-26.07-21.23-9.45-43.81-17.08-66.53-22.77,0,0,0,0,0,0,0,0,0,0,0,0-1.79,9.87-4.04,19.68-6.68,29.39,29.11,13.59,88.19,41.42,116.09,37.13Z"/>
  <path class="cls-1" d="m925.41,641.36c2.61.48,5.26-.05,7.5-1.49,2.03-1.32,3.5-3.26,4.22-5.55.09-.3.17-.6.24-.91,0-.03.02-.06.02-.08h0s0,0,0,0c.58-2.71.06-5.48-1.44-7.8s-3.83-3.91-6.54-4.49l-.67-.18-2.52-.77s0,0,0,0h0c.32,3.43.06,6.92-.79,10.32-.22.86-.47,1.72-.76,2.55-.87,2.51-2.07,4.9-3.53,7.07h0s0,0,0,0l4.26,1.31Z"/>
  <path class="cls-1" d="m909.8,627.84c.14-.41.27-.83.37-1.26,1.03-4.1.32-8.32-2.02-11.86l-.16-.24-22.46-6.92-5.22-1.6c5.62,7.31,9.12,15.96,10.91,24.88l1.02.32s0,0,0,0l12.32,3.78c2.44-1.77,4.25-4.22,5.24-7.11Z"/>
  <path class="cls-1" d="m901.59,698.73c1.59-3.83,3.04-7.74,4.31-11.73,1.36-4.29,2.52-8.66,3.47-13.1l6.42,1.79,1.46.38.43.1c3.17.67,6.41,1.01,9.63,1.01h1.04c8.51-.19,16.79-2.76,23.97-7.42,9.35-6.08,15.98-15.12,19.05-25.51,1.4-4.72,2.06-9.73,1.91-14.86-.06-2.23-.3-4.42-.7-6.6.45.02,1.33.02,1.33.02,16.26,0,29.87-3.8,40.55-11.34,0,0,0,0,0,0,0,0,0,0,0,0,2.13-1.47,4.13-3.11,6.02-4.9l.14-.14c15.65-15.13,20.7-37.54,12.87-57.11l-.19-.45c-5.27-12.32-13.54-20.4-20.19-26.89l-2.37-2.32-.46-.42c-8.65-7.55-18.89-14.28-30.16-20.37-24.76-13.35-54.45-23.55-83.11-32.27.88-15.46.62-30.73-.82-45.55-3.86-41.05-18.64-78.66-41.92-107.18-2.37-2.9-4.82-5.72-7.37-8.43-38.33-40.62-97.42-71.37-171.42-89.3-.95-1.97-2.1-3.88-3.45-5.66-5.3-7.07-13.04-11.63-21.79-12.87l-27.18-3.85c-1.54-.22-3.11-.34-4.65-.34-7.96,0-15.4,2.82-21.18,7.68-1.09-.14-2.18-.27-3.25-.4-10.3-1.31-20.88-1.99-31.41-1.99-79.67,0-154.19,37.59-194.46,98.11l-.27.42c-27.99,44.37-37.16,95.99-42.01,136.13-.61,5.21-1.52,13.04.79,21.34,1.71,6.7,5.24,12.79,10.09,17.71-.46,4.05-.95,7.96-1.39,11.54-5.42,42.7-15.48,83.16-29.9,120.22l-.14.38c-3.3,9.04-6.89,18.49-10.69,28.49-6.27,16.52-12.74,33.62-18.07,49.24-11.12,30.99-17.08,61.63-17.71,91.22-.75,50.25,10.91,96.04,33.71,132.45,26.13,41.74,65.73,68.51,114.5,77.42,6.92,1.49,15.69,2.48,19.24,2.85,1.57.16,3.73.42,6.14.69,8.83,1.04,15.99,1.84,20.93,1.91,2.68.1,5.51.27,8.51.46,4.89.3,9.92.62,15.05.62.95,0,1.87,0,2.8-.03h1.49c14.87,0,26.45-.38,34.29-1.12.67-.05,2.53-.18,4.45-.29,3.89-.26,5.58-.35,6.54-.45l.53-.06c2.71-.35,5.43-.69,8.16-1.03,5.19-.64,10.4-1.28,15.53-2l.3-.03.32-.06c37.93-6.47,72.91-17.37,103.83-32.35,22.58-10.77,43.58-23.78,62.44-38.65,14.98-11.14,26.76-26.42,33.6-43.45,15.16-.67,27.93-5.82,37.53-10.34,6.95-3.28,11.57-9.79,12.56-17.14,17.55-6.26,29.19-16.42,35.62-23.41,5.99-6.54,7.58-15.94,4.05-23.99-.3-.71-.66-1.39-1.03-2.05,3.78-2.98,6.92-5.82,9.37-8.2,6.54-6.36,8.54-15.89,5.14-24.29-.42-1.01-.91-1.99-1.46-2.92.79-.51,1.57-1.04,2.36-1.57,20.2-13.68,36.05-33.63,45.9-56.89h0s0,0,0,0h0c.12-.29.22-.58.34-.86Zm-9.14-47.16c-2.32,34.61-19.1,68.69-48.28,88.43-15.38,10.42-32.4,18.62-51.53,19.16l-.87.74c-1.51.93-1.54,3.24-.05,3.83,6.07,2.39,20.09,6.3,42.49,3.69,1.83-.21,2.63,2.18,1.19,3.59-7.42,7.23-24.55,21.39-48.01,25.12-2.07.32-2.58,3.53-.66,4.12,8.68,2.71,22.32,5.64,33.97,2.34,1.89-.54,2.96,1.89,1.52,3.44-7.55,8.22-24.44,22.05-52.88,22.59-.99.02-1.67,1.3-1.11,2.12,1.63,2.39,5.19,6.1,11.94,7.29,1.83.34,1.84,3.17.03,4.02-11.14,5.26-25.62,10.86-42.85,7.5-.98,2.87-1.94,5.74-2.9,8.6-5.21,15.88-15.53,29.95-28.99,39.88-18.2,14.39-38.04,26.53-58.92,36.5-31.02,15.01-64.69,24.92-98.61,30.7-7.76,1.07-15.7,1.99-23.49,2.98-1.27.14-9.23.59-10.72.72-9.87.95-24.29,1.07-34.31,1.06-8.28.22-17.35-.79-25.67-1.06-5.85-.03-19.53-1.91-25.49-2.5-5.13-.53-12.31-1.46-17.35-2.56-93.17-16.86-133.5-102.37-132.21-190.05.62-29.11,6.79-57.7,16.58-84.94,8.36-24.52,19.72-52.99,28.68-77.47,15.57-40.01,25.69-82.26,31.08-124.95.99-7.74,1.94-15.64,2.64-23.44-5.66-2.37-10.33-7.16-11.86-13.44-1.31-4.5-.77-9.34-.24-13.91,5.35-44.21,14.9-89.47,39.08-127.8,44.3-66.56,129.24-97.4,206.92-87.39,4.84.54,9.6,1.23,14.31,2,1.92-5.99,7.92-9.92,14.36-9l27.18,3.85c7.19,1.03,12.21,7.68,11.18,14.87l-.06.48c64.72,14.1,130.49,40.49,173.83,86.43,6.46,6.89,12.18,14.39,17.21,22.35,0,0,0,0,0,0,15.37,24.42,24.08,53.17,26.76,81.46,1.87,19.47,1.55,38.9-.58,58.13,34.88,10.22,80.02,24.19,109.98,44.48,0,0,0,0,0,0,0,0,0,0,0,0,4.12,2.79,7.93,5.69,11.41,8.72,6.75,6.67,13.68,12.82,17.82,22.45,4.69,11.71,1.65,25.35-7.55,34.71-.21.22-.43.46-.67.69-28.44,26.9-97.48-2.64-135.94-21.47-4.86-2.37-9.21-4.58-12.95-6.47-.79-.4-1.55-.82-2.32-1.23-.08.21-.16.42-.22.59-.18-.06-.46-.18-.87-.32l-4.31,17.03,28.61,8.8s0,0,0,0l54.25,16.68c8.76,2,15.88,8.27,19,17.19.8,2.28,1.25,4.68,1.31,7.1.11,3.6-.46,7.04-1.61,10.2-1.93,5.27-5.49,9.75-10.29,12.87-4.12,2.68-8.78,4.1-13.57,4.21-2.02.05-4.05-.14-6.07-.58l-.67-.18-24.98-6.99-3.57-.99c-.03,1.01-.1,2.02-.16,3.03Z"/>
  <path class="cls-1" d="m403.03,850.55c31.28,14.69,68.61,13.35,102,6.36,39.95-9.81,67.63-38.74,81.19-75.24-35.94,33.6-84.86,60.57-131.39,53.1-2.82-.51-2.76-4.69.16-5.02,30.92-3.7,59.11-17.79,84.27-35.56,6.63-4.76,13.09-9.77,19.37-15-.42.19-.85.37-1.27.56-28.78,11.95-59.3,20.86-90.59,22.62-36.32,2.31-78.05-5.56-108.8-27.35,2.32,31.42,14.65,61.03,45.06,75.52Z"/>
  <path class="cls-1" d="m742.72,489.39c14.64,5.19,71.25,25.2,92.61,32.77,5.29-18.71,9.2-38.23,10.88-57.83,1.63-18.94,1.2-37.97-2.07-56.43-2.16-12.29-5.59-24.32-10.48-35.91-20.91-47.99-70.2-78.59-121.36-98.35,18.19,19.08,31.57,43.6,38.5,74.33,10.06,47.43,3.19,95.32-8.09,141.42Z"/>
  <path class="cls-1" d="m433.58,380.98c-.38,1.08-.72,2.14-1.04,3.17-.32,1.04-.61,2.05-.89,3.03-.75,2.68-1.33,5.16-1.78,7.35,15.27-1.78,30.12-2.53,44.35-2.53,49.42,0,91.35,9.12,117.4,16.58,0,0,0,0,0,0h0c.48-2.55.98-5.37,1.36-8.38.29-2.21.51-4.55.64-6.95-20.48-5.37-102.84-25.12-160.06-12.27Z"/>
  <path class="cls-1" d="m713.28,479.49s1.97.82,4.53,1.87c10.43-38.23,16.15-87.65,7.15-127.75-13.33-69.64-70.58-101.39-136.68-108.88-72.22-7.64-153.77,24.32-186.4,92.18-13.8,30.32-20.89,63.95-23.47,97.36,9.73-1.81,19.56-3.53,29.56-4.81,104.07-14.24,209.2,11.55,305.3,50.02Zm-111.01-53.95c-1.35.88-2.95,1.35-4.53,1.35-.59,0-1.19-.06-1.78-.19-.61-.13-1.27-.34-2.88-.83-32.29-9.84-97.48-24.72-171.4-13.96h0c-2.43.35-4.88-.4-6.7-2.05l-.09-.08c-.37-.35-.7-.72-.99-1.12-1.19-1.57-1.76-3.54-1.6-5.54.34-4.61,4.26-46.18,35.76-71.69,3.77-3.06,7.76-5.74,11.99-8.06,18.07-9.97,40.23-13.22,66.1-9.69,34.47,4.69,58.68,16.57,71.94,35.28,13.14,18.51,12.87,39.71,10.74,54.91-.67,4.78-1.52,8.96-2.2,12.29-.3,1.49-.58,2.82-.79,3.96h0c-.37,2.06-1.51,3.9-3.19,5.15l-.37.28Z"/>
  <path class="cls-1" d="m606.52,752.25c.18-.18.34-.35.5-.53h0s0,0,0,0l-1.11-.08s0,0,0,0h0c.21.19.4.4.61.61Z"/>
  <path class="cls-1" d="m434.32,639.16s-.07.04-.1.06l.11-.06c-.67.38-1.35.75-2.02,1.12-.02.05-.05.08-.06.13h0s0,0,0,0l2.08-1.25Z"/>
  <path class="cls-1" d="m705.01,562.9l14.32,13.09c.74-.69,1.39-1.47,1.94-2.32.93-1.39,1.63-2.95,2.05-4.63.51-2.05.59-4.12.24-6.1-.21-1.28-.59-2.53-1.14-3.72l-17.42,3.69Z"/>
  <path class="cls-1" d="m734.24,582.58l16.65,5.13,35.11,10.78c6.57-6.31,14.29-11.36,22.77-14.53l-57.88-17.79-11.5-3.54c.32,3.41.06,6.87-.79,10.24-.88,3.49-2.36,6.78-4.36,9.71Z"/>
  <path class="cls-1" d="m855.95,623.53c-6.83-6.3-16.54-10.08-25.88-9.07-3.88.53-7.48,1.36-11.01,2.44h-.02c-5.85,1.76-11.42,4.18-17.53,6.87-10.64,5.08-21.52,12.34-33.5,20.46l-4.86,20.24-4.45,18.57c-.42,2.93-3.14,4.98-6.07,4.57l-15.11-4.97-4.97-1.62-11.71-3.85c-2.92-.4-4.95-3.04-4.58-5.96.88-7.07,2.68-19.56,5.16-34.72.99-6.14,2.13-12.72,3.36-19.56,1.14-6.39,2.39-13.01,3.72-19.69l-5.77-1.73c-5.34-1.63-10.22-4.42-14.34-8.19l-21.37-19.52c-3.22-2.95-4.33-7.55-2.72-11.7,1.33-3.44,4.47-5.85,8.08-6.62l24.93-5.29c5.74-1.22,11.7-1.04,17.35.51-2.02-11.81-7.05-21.23-12.31-28.25h-.02c-.16-.22-.32-.45-.51-.67-1.62-2.13-3.27-4.02-4.84-5.69-95.99-39.38-201.35-68.35-305.37-54.33-11.82,1.73-23.76,4.2-35.76,6.71-.37,14.36-1.23,28.7-2.66,42.97,6.43-3.75,13.43-6.39,20.7-7.98,6.51-1.43,13.22-2.02,19.93-1.83,21.39.59,42.85,9.18,57.59,24.31,9.44,9.84-2.52,24.87-14.16,18.06-14.05-8.62-28.23-15.45-44.48-17.82-.43-.06-.88-.13-1.31-.18-6.55-.87-13.14-1.11-19.76-.93-6.7.18-13.43.79-20.24,1.63-3.62,28.22-9.45,56.15-17.9,83.45-11.09,35.06-23.97,70.15-34.61,105.3-14.89,50.17-12.9,106.14,9.52,153.63,13.11,27.06,32.8,47.75,60.57,59.49,13.57,5.46,28.57,8.8,43.33,10.05,3.14.42,16.87,1.86,19.72,2,2.44.1,9.31.45,11.86.56,15.06.87,32.24.56,47.3-.69,1.43-.08,8.56-.62,9.82-.69,1.3-.16,4.52-.62,5.85-.79,41.31-4.82,82.52-16.58,119.42-35.8,13.76-7.05,27.35-15.29,39.66-24.52,7.07-4.89,13.14-11.28,17.08-18.97,2.05-3.69,4.02-9.73,5.59-13.62l5.85-15.4c12.35-32.82,25.08-65.66,41.9-96.48,4.36-7.98,8.99-15.81,13.96-23.47.87-1.3,2.61-1.65,3.89-.79.9.59,1.33,1.62,1.23,2.61-.51,5.1-1.23,10.13-2.05,15.11,1.04.29,2.12.75,3.27,1.46,4.18,3.22,8.06,6.15,13.76,6.94,4.57.75,9.85.5,15.29-.8,32.74-8.03,57.44-35.59,60.5-69.52,1.01-10.19-.02-21.42-5.22-30.01-1.38-2.31-3.08-4.41-5.1-6.26Zm-344.21-24.31l.34-1.19c6.43-15.85,23.78-25.16,40.51-25.57,16.78-.95,33.2,7.51,45.3,17.45,5.93,4.9,11.06,10.7,15.16,17.19,1.33,2.93,6.52,8.57,2.08,10.83-.77.34-1.6.34-2.34.06-16.66-6.28-29.47-15.08-46.19-18.89-14.6-3.75-28.71-2.13-42.97,2.48-2.34.7-4.87,1.46-7.42,2.16-2.66.82-5.3-1.91-4.45-4.53Zm74.64-52.04c-17.69-4.55-35.06-4.28-52.86-.51-6.38,1.59-12.87-2.48-14.13-8.94-1.06-5.42,1.86-10.7,6.73-12.82,9.18-4.09,19.28-6.52,29.37-7.07,13.01-.8,26.28,1.44,38.23,5.82,10.7,3.86,20.56,9.37,29.13,16.3,8.57,7,16.01,14.93,21.28,24.8,0,0,0,0,0,.01,0,0,0,0,0,0,.08.82.16,1.59.29,2.37,0,0,0,0,0,0,0,0,0,0,0,0-.02.02,0,.03,0,.03-.59,1.79-2.77,3.01-4.66,1.86-17.58-8.59-34.88-17.13-53.37-21.84Zm-143.01,75.34c7.66-11.76,13.8-24.45,18.23-38.07,2.4-7.11,4.49-14.69,6.36-21.95,1.14-4.42,7.61-4.37,8.68.05,4.01,16.54,2.58,33.73-2.53,49.98-3.57,11.46-9.74,22.9-18.71,31.21,2.79,2,5.21,4.57,7.05,7.69,1.71,2.74-.72,6.46-3.88,6.06-3.41-.34-6.63-.51-9.45-.43-17.21.35-31.61,10.11-32.19,27.96-.32,8.62,4.29,17.16,11.63,21.65,8.08,4.76,21.07,4.82,30.86,2.6,4.82-1.51,8.49,4.39,5.03,8.03-11.49,11.12-29.19,15.29-45.04,9.58-8.4-3.32-15.32-9.13-20.33-16.57-15.77-22.95-6.81-55.95,18.15-67.99,4.94-2.66,10.67-4.18,16.46-4.47,3.08-5.24,6.59-10.11,9.68-15.32Zm-63.44-39.02c.66-2.61,1.3-5.26,1.91-7.9v-.02l13.44-3.46c1.78-.46,2.28-2.74.85-3.89l-10.85-8.7c.38-1.91.75-3.83,1.11-5.75,5.93-13.24,14.98-21.74,23.39-21.01.46.03.95.11,1.41.21,11.58,2.5,17.13,22.43,12.39,44.54-4.76,22.1-17.99,38.01-29.59,35.51-.53-.11-1.06-.27-1.57-.45-7.9-2.92-12.59-14.45-12.5-28.99,0-.02,0-.05.02-.1Zm-47.6,156.1c2.02-1.47,4.97-1.7,7.35.43,3.73,2.87,7.47,5.59,11.23,8.16,31.92,21.86,65.6,33.09,105.78,31.57,43.17-1.39,84.87-17.11,123.33-36.28,2.53-1.2,5.1-2.39,7.69-3.51-5.11-1.87-10.54-3.11-15.88-4.2-1.87-.35-3.85-.72-5.82-1.23-2.26-.56-3.64-2.85-3.06-5.11.29-1.14,1.03-2.07,1.97-2.61,3.56-2.1,7.35-3.75,11.38-4.79,13.03-3.49,27.08-1.38,38.52,6.6,14.6,10.14,22.93,29.13,17.93,46.52-1.04,3.28-5.38,3.67-7.19.85-4.41-5.42-8.46-11.26-12.85-16.7-6.91,57.44-44.45,106.44-102.39,120.35-49.8,10.5-108.85,6.27-143.62-28.78-11.06-11.17-19.66-25.44-24.72-43.37-4.97-17.37-6.14-35.09-5.48-52.33-1.04-1.25-2.03-2.53-3.01-3.85-.87-1.23-1.6-2.36-2.39-3.69.34-2.68.75-5.35,1.22-8.01v-.02Zm523.24-83.35c-3.16-3.4-6.15-6.06-9.1-8.04-2.16-1.47-4.31-2.58-6.47-3.35.53,4.92.21,9.9-.82,14.64-2.74,11.89-9.13,22.46-17.58,30.92-4.17,4.09-8.64,7.72-13.97,10.45-1.07.54-2.39.13-2.95-.95-.35-.7-.29-1.47.06-2.11,2.36-4.77,4.74-9.53,7-14.34l.02-.02c3.85-8.16,7.32-16.44,9.52-25.08.22-.9.45-1.78.64-2.68.82-3.61,1.22-7.16,1.62-10.77-3.09.9-6.38,2.23-9.98,3.96-5.46,2.55-11.01,5.64-17.06,8.54-1.43.71-3.19.11-3.88-1.33-.42-.88-.34-1.89.13-2.68.61-.99,1.25-1.99,1.92-2.95,7.51-11.04,18.01-19.8,31.98-22.66,16.95-3.48,33.44,9.37,34.13,26.63.08,2.84-3.49,3.97-5.21,1.79Z"/>
  <polygon class="cls-1" points="847.27 538.4 847.14 539.73 847.44 538.45 847.27 538.4"/>
</svg>