<?xml version="1.0" encoding="utf-8"?>
<!-- Generator: Adobe Illustrator 27.2.0, SVG Export Plug-In . SVG Version: 6.00 Build 0)  -->
<svg version="1.1" id="Layer_1" xmlns="http://www.w3.org/2000/svg" xmlns:xlink="http://www.w3.org/1999/xlink" x="0px" y="0px"
	 viewBox="0 0 792 792" style="enable-background:new 0 0 792 792;" xml:space="preserve">
<style type="text/css">
	.st0{fill:#FFFFFF;}
	.st1{fill:#004438;}
</style>
<circle class="st0" cx="396" cy="396" r="396"/>
<path class="st1" d="M559,374.3c-50-123.5-2.5-256.3-2.5-256.3C429.6,117.5,236.4,218.9,213,417.9s102,245.7,102,245.7
	c6.9,2.9,13.7,5.3,20.4,7.3c-8.1-31-8.1-97.9-8.1-97.9c-3.9-128.3,73.3-285.1,86.5-297.1c0,0-54.3,345.6-4,340.4
	c46.3-4.7,83.8-30.5,86.4-31.2c-16.6,36.7-57.7,73.9-71.8,88.7c19.7-4.1,37.1-10.6,51-17.2c25.3-11.9,47.2-30,63.8-52
	C621.7,495.7,559,374.3,559,374.3L559,374.3z"/>
</svg>
