<?xml version="1.0" encoding="utf-8"?>
<!-- Generator: Adobe Illustrator 27.1.1, SVG Export Plug-In . SVG Version: 6.00 Build 0)  -->
<svg version="1.1" id="Layer_1" xmlns="http://www.w3.org/2000/svg" xmlns:xlink="http://www.w3.org/1999/xlink" x="0px" y="0px"
	 viewBox="0 0 792 792" style="enable-background:new 0 0 792 792;" xml:space="preserve">
<style type="text/css">
	.st0{fill:#030000;}
</style>
<path class="st0" d="M626.7,365c-71.2-175.9-3.5-365-3.5-365c-180.8-0.8-456,143.6-489.3,427.1s145.3,350,145.3,350
	c9.8,4.2,19.5,7.6,29.1,10.4c-11.6-44.2-11.5-139.4-11.5-139.4C291.2,465.4,401.2,242.1,420,225c0,0-77.4,492.2-5.7,484.8
	c66-6.7,119.4-43.4,123.1-44.4c-23.6,52.3-82.2,105.3-102.3,126.3c28.1-5.8,52.8-15.1,72.6-24.5c36.1-17,67.2-42.7,90.8-74
	C716,537.8,626.7,365,626.7,365L626.7,365z"/>
</svg>
