<?xml version="1.0" encoding="UTF-8"?>
<svg id="Layer_1" data-name="Layer 1" xmlns="http://www.w3.org/2000/svg" viewBox="0 0 1921.73 1105.69">
  <defs>
    <style>
      .cls-1 {
        fill: #094438;
      }

      .cls-1, .cls-2, .cls-3 {
        stroke-width: 0px;
      }

      .cls-2 {
        fill: #0c594a;
      }

      .cls-3 {
        fill: #0f2d26;
      }
    </style>
  </defs>
  <rect class="cls-2" x="0" width="1921.73" height="1105.69"/>
  <path class="cls-1" d="m1921.73,671.67c0,143.77,0,287.53-.17,431.3,0,.81-2.64,2.33-4.05,2.33-638.85.1-1277.71.1-1916.56.1,0-324.75,0-649.51,0-974.26,18.56,4.37,38.09,7.73,55.53,13.27,145.21,46.12,299.99,72.46,465.78,79.48,75.25,3.19,150.62,9.52,224.53,18.34,127.95,15.26,244.73,45.71,333.07,102.77,69.41,44.83,130.2,94.03,198.07,139.7,55.79,37.54,111.93,75.58,175.77,108.33,103.23,52.95,234.03,66.62,367.02,73.77,33.64,1.81,67.34,3.27,101.02,4.88Z"/>
  <path class="cls-3" d="m0,446.14c45.37,6.13,92.03,10.11,135.84,18.83,108.41,21.57,198.57,60.34,277.6,107.08,105.49,62.39,209.68,125.57,311.44,189.97,192.63,121.9,435.88,191.91,707.85,234.25,137.58,21.42,276.34,41.36,403.61,80.11,23.08,7.03,45.46,14.83,68.08,22.35,4.72,1.57,9.09,3.48,17.29,6.66-7.64,0-11.29,0-14.93,0-630.36,0-1260.73,0-1891.09.01-5.24,0-10.47.18-15.71.28C0,885.84,0,665.99,0,446.14Z"/>
</svg>