<?xml version="1.0" encoding="utf-8"?>
<!-- Generator: Adobe Illustrator 28.0.0, SVG Export Plug-In . SVG Version: 6.00 Build 0)  -->
<svg version="1.1" id="Layer_2_00000103972410833888357320000012008058382276909467_"
	 xmlns="http://www.w3.org/2000/svg" xmlns:xlink="http://www.w3.org/1999/xlink" x="0px" y="0px" viewBox="0 0 422.5 175.1"
	 style="enable-background:new 0 0 422.5 175.1;" xml:space="preserve">
<style type="text/css">
	.st0{fill:#FFFFFF;}
</style>
<g>
	<g id="XMLID_00000124121785536091151760000002730028668437956226_">
		<g>
			<path class="st0" d="M391.5,92.4v12c0,0.8-0.3,1.4-0.8,1.9s-1.2,0.8-1.9,0.8h-51c-0.7,0-1.3-0.3-1.8-0.8s-0.8-1.1-0.8-1.9V37.9
				c0-0.7,0.3-1.4,0.8-1.9c0.5-0.5,1.2-0.8,1.8-0.8h50.2c0.8,0,1.4,0.3,1.9,0.8c0.5,0.5,0.8,1.1,0.8,1.9V50c0,0.7-0.3,1.3-0.8,1.8
				c-0.5,0.5-1.2,0.8-1.9,0.8h-31.7v10.1h29.4c0.8,0,1.4,0.3,1.9,0.8c0.5,0.5,0.8,1.1,0.8,1.9v11.1c0,0.8-0.3,1.4-0.8,1.9
				c-0.5,0.5-1.2,0.8-1.9,0.8h-29.4v10.4h32.5c0.8,0,1.4,0.3,1.9,0.8S391.5,91.6,391.5,92.4z"/>
			<path class="st0" d="M391.5,132.9c0,1.5-0.4,2.7-1.1,3.7c-0.8,1-1.8,1.8-3.2,2.4c-1.4,0.5-3,0.8-4.9,0.8c-2,0-3.7-0.3-5.1-0.9
				c-1.4-0.6-2.4-1.4-3.1-2.4c-0.7-1-1.1-2-1.2-3.1c0-0.2,0.1-0.4,0.2-0.5c0.1-0.1,0.3-0.2,0.5-0.2h1.8c0.3,0,0.5,0.1,0.6,0.2
				c0.1,0.1,0.2,0.3,0.3,0.5c0.1,0.6,0.4,1.1,0.8,1.6c0.5,0.5,1.1,1,1.9,1.3c0.8,0.4,1.9,0.5,3.2,0.5c2,0,3.4-0.4,4.4-1.1
				c0.9-0.7,1.4-1.6,1.4-2.8c0-0.8-0.2-1.5-0.7-2c-0.5-0.5-1.3-0.9-2.3-1.3c-1-0.4-2.3-0.8-3.9-1.3c-1.7-0.5-3.1-1-4.2-1.6
				c-1.1-0.6-1.9-1.3-2.5-2.1c-0.5-0.9-0.8-1.9-0.8-3.3c0-1.2,0.3-2.4,1-3.3c0.7-1,1.6-1.8,2.9-2.3c1.3-0.6,2.8-0.9,4.6-0.9
				c1.4,0,2.7,0.2,3.8,0.6c1.1,0.4,2,0.9,2.7,1.5c0.7,0.6,1.3,1.3,1.6,2c0.4,0.7,0.6,1.4,0.6,2.1c0,0.2-0.1,0.3-0.2,0.5
				c-0.1,0.2-0.3,0.2-0.6,0.2h-1.8c-0.2,0-0.3,0-0.5-0.1c-0.2-0.1-0.3-0.3-0.4-0.5c-0.1-0.9-0.7-1.7-1.6-2.4s-2.1-1-3.6-1
				c-1.5,0-2.7,0.3-3.7,0.9c-0.9,0.6-1.4,1.5-1.4,2.7c0,0.8,0.2,1.4,0.7,2c0.4,0.5,1.1,1,2.1,1.4c0.9,0.4,2.2,0.8,3.7,1.2
				c1.8,0.5,3.4,1,4.5,1.6c1.2,0.6,2,1.3,2.6,2.1C391.2,130.5,391.5,131.6,391.5,132.9z"/>
			<path class="st0" d="M356,122.6c0,0.2,0,0.4-0.2,0.5c-0.1,0.1-0.3,0.2-0.5,0.2h-1.9c-0.2,0-0.4-0.1-0.5-0.2
				c-0.1-0.1-0.3-0.3-0.3-0.6c-0.4-1.8-1.1-3-2.2-3.7c-1.1-0.7-2.4-1-4-1c-1.8,0-3.3,0.5-4.4,1.6c-1.1,1-1.7,2.7-1.8,5
				c-0.1,1.9-0.1,3.8,0,5.8c0.1,2.3,0.7,4,1.8,5c1.1,1,2.5,1.6,4.4,1.6c1.6,0,3-0.3,4-1c1.1-0.7,1.8-1.9,2.2-3.7
				c0.1-0.3,0.2-0.5,0.3-0.6c0.2-0.1,0.3-0.2,0.5-0.2h1.9c0.2,0,0.4,0.1,0.5,0.2c0.2,0.1,0.2,0.3,0.2,0.5c0,1-0.3,1.9-0.7,2.8
				c-0.4,0.9-1,1.7-1.8,2.5c-0.8,0.7-1.8,1.3-3,1.8c-1.2,0.4-2.6,0.7-4.2,0.7c-2.1,0-3.9-0.4-5.3-1.2c-1.4-0.8-2.5-1.9-3.2-3.3
				c-0.7-1.4-1.1-3-1.2-4.9c0-0.9,0-2,0-3c0-1.1,0-2.1,0-3.1c0.1-1.9,0.5-3.5,1.2-4.9c0.7-1.4,1.8-2.5,3.2-3.3
				c1.4-0.8,3.2-1.2,5.3-1.2c1.6,0,3,0.2,4.2,0.7c1.2,0.4,2.2,1,3,1.8c0.8,0.7,1.4,1.6,1.8,2.5C355.7,120.7,355.9,121.6,356,122.6z"
				/>
			<path class="st0" d="M330.2,37.9v13c0,0.7-0.3,1.3-0.8,1.8c-0.5,0.5-1.2,0.8-1.9,0.8H297v11.3h28.4c0.8,0,1.4,0.3,1.9,0.8
				c0.5,0.5,0.8,1.1,0.8,1.9v12.9c0,0.8-0.3,1.4-0.8,1.9c-0.5,0.5-1.2,0.8-1.9,0.8H297v21.2c0,0.8-0.3,1.4-0.8,1.9
				c-0.5,0.5-1.1,0.8-1.9,0.8H278c-0.7,0-1.3-0.3-1.8-0.8c-0.5-0.5-0.8-1.1-0.8-1.9V37.9c0-0.7,0.3-1.4,0.8-1.9
				c0.5-0.5,1.2-0.8,1.8-0.8h49.4c0.8,0,1.4,0.3,1.9,0.8C329.9,36.6,330.2,37.2,330.2,37.9z"/>
			<path class="st0" d="M317.7,116v22.6c0,0.2-0.1,0.4-0.2,0.6s-0.3,0.2-0.6,0.2h-1.8c-0.3,0-0.5-0.1-0.6-0.2
				c-0.1-0.1-0.2-0.3-0.2-0.6V116c0-0.2,0.1-0.4,0.2-0.6c0.1-0.2,0.3-0.2,0.6-0.2h1.8c0.2,0,0.4,0.1,0.6,0.2
				C317.6,115.6,317.7,115.8,317.7,116z"/>
			<path class="st0" d="M294.5,116.1v22.6c0,0.2-0.1,0.4-0.2,0.6c-0.2,0.1-0.4,0.2-0.6,0.2h-1.8c-0.2,0-0.4-0.1-0.6-0.2
				c-0.1-0.1-0.2-0.3-0.2-0.6v-9.9h-11.9v9.9c0,0.2-0.1,0.4-0.2,0.6c-0.2,0.1-0.4,0.2-0.6,0.2h-1.8c-0.3,0-0.4-0.1-0.6-0.2
				c-0.1-0.1-0.2-0.3-0.2-0.6v-22.6c0-0.3,0.1-0.5,0.2-0.6c0.1-0.2,0.3-0.2,0.6-0.2h1.8c0.3,0,0.5,0.1,0.6,0.2
				c0.1,0.1,0.2,0.4,0.2,0.6v9.5h11.9v-9.5c0-0.3,0.1-0.5,0.2-0.6c0.2-0.2,0.3-0.2,0.6-0.2h1.8c0.3,0,0.5,0.1,0.6,0.2
				C294.4,115.6,294.5,115.8,294.5,116.1z"/>
			<path class="st0" d="M270.5,37.9v13c0,0.7-0.3,1.3-0.8,1.8c-0.5,0.5-1.2,0.8-1.9,0.8h-30.4v11.3h28.4c0.8,0,1.4,0.3,1.9,0.8
				c0.5,0.5,0.8,1.1,0.8,1.9v12.9c0,0.8-0.3,1.4-0.8,1.9c-0.5,0.5-1.2,0.8-1.9,0.8h-28.4v21.2c0,0.8-0.3,1.4-0.8,1.9
				c-0.5,0.5-1.1,0.8-1.9,0.8h-16.3c-0.7,0-1.3-0.3-1.8-0.8c-0.5-0.5-0.8-1.1-0.8-1.9V37.9c0-0.7,0.3-1.4,0.8-1.9
				c0.5-0.5,1.2-0.8,1.8-0.8h49.4c0.7,0,1.4,0.3,1.9,0.8C270.3,36.6,270.5,37.2,270.5,37.9z"/>
			<path class="st0" d="M256.7,118.5c0.7,1.1,1,2.5,1,4.1c0,1.6-0.3,3-1,4.1c-0.7,1.1-1.7,1.9-2.9,2.5c-1.3,0.6-2.7,0.8-4.4,0.8
				h-6.1v8.7c0,0.2-0.1,0.4-0.2,0.6s-0.4,0.2-0.6,0.2h-1.8c-0.3,0-0.5-0.1-0.6-0.2c-0.1-0.1-0.2-0.3-0.2-0.6v-22.6
				c0-0.3,0.1-0.5,0.2-0.6c0.1-0.2,0.3-0.2,0.6-0.2h8.8c1.7,0,3.2,0.3,4.4,0.8C255,116.6,256,117.4,256.7,118.5z M254.3,122.6
				c0-1.4-0.4-2.5-1.2-3.3c-0.8-0.8-2.1-1.2-3.9-1.2h-6v9h6c1.7,0,3-0.4,3.8-1.1C253.8,125.2,254.3,124.1,254.3,122.6z"/>
			<path class="st0" d="M222.1,138.4c0,0.1,0.1,0.3,0.1,0.4c0,0.2-0.1,0.3-0.2,0.5s-0.3,0.2-0.5,0.2h-1.8c-0.3,0-0.5-0.1-0.6-0.2
				c-0.1-0.1-0.2-0.3-0.3-0.4l-1.9-4.9h-11.3l-1.9,4.9c0,0.1-0.1,0.2-0.2,0.4c-0.1,0.1-0.3,0.2-0.6,0.2h-1.8c-0.2,0-0.3-0.1-0.5-0.2
				s-0.2-0.3-0.2-0.5c0-0.1,0-0.2,0-0.4L209,116c0.1-0.2,0.2-0.4,0.4-0.6c0.2-0.1,0.4-0.2,0.7-0.2h2.4c0.3,0,0.5,0.1,0.7,0.2
				c0.2,0.1,0.3,0.3,0.4,0.6L222.1,138.4z M216,131l-4.7-12.3l-4.7,12.3H216z"/>
			<path class="st0" d="M210.6,37.9v66.4c0,0.8-0.3,1.4-0.8,1.9c-0.5,0.5-1.1,0.8-1.9,0.8h-17.4c-0.7,0-1.3-0.3-1.8-0.8
				c-0.5-0.5-0.8-1.1-0.8-1.9V37.9c0-0.7,0.3-1.4,0.8-1.9c0.5-0.5,1.2-0.8,1.8-0.8h17.4c0.8,0,1.4,0.3,1.9,0.8
				C210.3,36.6,210.6,37.2,210.6,37.9z"/>
			<path class="st0" d="M184.3,138.4c0.1,0.1,0.1,0.3,0.1,0.4c0,0.2-0.1,0.3-0.2,0.5c-0.1,0.1-0.3,0.2-0.5,0.2H182
				c-0.4,0-0.7-0.1-0.9-0.3c-0.2-0.2-0.3-0.4-0.5-0.6l-5-8.8h-6.1v8.9c0,0.2-0.1,0.4-0.2,0.6s-0.4,0.2-0.6,0.2H167
				c-0.3,0-0.5-0.1-0.6-0.2c-0.1-0.1-0.2-0.3-0.2-0.6v-22.6c0-0.3,0.1-0.5,0.2-0.6c0.1-0.2,0.3-0.2,0.6-0.2h8.4
				c2.6,0,4.7,0.6,6.2,1.8c1.5,1.2,2.3,3,2.3,5.4c0,1.8-0.4,3.2-1.3,4.3c-0.9,1.1-2.1,1.9-3.6,2.3L184.3,138.4z M180.5,122.5
				c0-1.4-0.4-2.5-1.3-3.2c-0.8-0.7-2.1-1.1-3.9-1.1h-5.7v8.7h5.7c1.7,0,3-0.4,3.9-1.1C180,125,180.5,123.9,180.5,122.5z"/>
			<path class="st0" d="M182.7,91.4v12.9c0,0.8-0.3,1.4-0.8,1.9c-0.5,0.5-1.2,0.8-1.9,0.8h-47.6c0.2-0.5,0.5-1,0.7-1.5
				c0-0.1,0.1-0.2,0.1-0.2c0.2-0.4,0.3-0.7,0.4-1.1c0.1,0,0.2,0,0.3,0h0.2c2,0,3.9-0.6,5.5-1.7c2.1-1.4,3.7-3.5,4.4-5.8
				c0.1-0.4,0.2-0.7,0.3-1.1c1.9-0.4,3.6-1.1,5-2.1c0.5-0.3,0.9-0.7,1.4-1.1l0,0c1.1-1,1.9-2.2,2.5-3.5h26.8c0.8,0,1.4,0.3,1.9,0.8
				C182.4,90.1,182.7,90.7,182.7,91.4z"/>
			<path class="st0" d="M150.3,81.5c0.5,1.6,0.5,3.4,0,4.9c-0.4,1.3-1.1,2.4-2.1,3.4l0,0c-0.3,0.3-0.6,0.5-0.9,0.8
				c-1.6,1.2-3.7,1.7-6.2,1.7c0,0-0.1,0-0.2,0c0.1,0.3,0.1,0.7,0.1,1c0,0.8-0.1,1.6-0.3,2.3c-0.5,1.6-1.5,3-2.9,3.9
				c-1.1,0.7-2.4,1.1-3.7,1.1h-0.2c-0.5,0-1,0-1.5-0.2l-0.1,0l-0.2-0.1l-1-0.3c-0.1,0.7-0.3,1.4-0.5,2c-0.2,0.6-0.4,1.2-0.7,1.8
				c0,0,0,0.1-0.1,0.1c-0.3,0.7-0.7,1.5-1.1,2.2c-1.5,2.6-3.5,4.9-6,6.6c-0.1,0.1-0.2,0.2-0.4,0.2c0.1,0.1,0.2,0.3,0.2,0.5
				c0.5,1.3,0.2,2.8-0.8,3.7c-0.4,0.4-0.9,0.8-1.4,1.3c0.1,0.1,0.1,0.2,0.2,0.3c0.5,1.2,0.3,2.7-0.6,3.7c-1,1.1-2.8,2.6-5.5,3.6
				c-0.2,1.1-0.9,2.1-1.9,2.6c-1.5,0.7-3.4,1.5-5.8,1.6c-1.1,2.6-2.9,5-5.2,6.7c-2.9,2.3-6.1,4.3-9.6,5.9c-4.8,2.3-10.1,4-16,5
				l-0.1,0l0,0c-0.8,0.1-1.6,0.2-2.4,0.3c-0.4,0-0.8,0.1-1.3,0.2l-0.1,0c-0.1,0-0.4,0-1,0.1c-0.3,0-0.6,0-0.7,0
				c-1.2,0.1-3,0.2-5.3,0.2H65c-0.1,0-0.3,0-0.4,0c-0.8,0-1.6,0-2.3-0.1c-0.5,0-0.9-0.1-1.3-0.1c-0.8,0-1.9-0.1-3.2-0.3
				c-0.4,0-0.7-0.1-0.9-0.1c-0.5-0.1-1.9-0.2-3-0.4c-7.5-1.4-13.6-5.5-17.6-11.9c-3.5-5.6-5.3-12.6-5.2-20.4c0.1-4.5,1-9.3,2.7-14
				c0.8-2.4,1.8-5,2.8-7.6c0.6-1.5,1.1-3,1.6-4.4l0-0.1c2.2-5.7,3.8-11.9,4.6-18.5c0.1-0.6,0.1-1.1,0.2-1.8
				c-0.7-0.8-1.3-1.7-1.5-2.7c-0.4-1.3-0.2-2.5-0.1-3.3c0.7-6.2,2.2-14.1,6.5-20.9l0-0.1c6.2-9.3,17.7-15.1,29.9-15.1
				c1.6,0,3.2,0.1,4.8,0.3c0.2,0,0.3,0,0.5,0.1c0.9-0.7,2-1.2,3.3-1.2c0.2,0,0.5,0,0.7,0.1l4.2,0.6c1.3,0.2,2.5,0.9,3.4,2
				c0.2,0.3,0.4,0.6,0.5,0.9c11.4,2.8,20.5,7.5,26.4,13.7c0.4,0.4,0.8,0.8,1.1,1.3c2.4,2.9,4.2,6.4,5.3,10.3c0.6,2,1,4.1,1.2,6.2
				c0.2,2.3,0.3,4.6,0.1,7c4.4,1.3,9,2.9,12.8,5c1.7,0.9,3.3,2,4.6,3.1l0.1,0.1l0.4,0.4c1,1,2.3,2.2,3.1,4.1l0,0.1
				C150.2,81.2,150.3,81.3,150.3,81.5z M146.2,87.5c1.4-1.4,1.9-3.5,1.2-5.3c-0.6-1.5-1.7-2.4-2.7-3.5c-0.5-0.5-1.1-0.9-1.8-1.3
				c-4.1-2.7-9.9-4.7-14.9-6.3c-0.7-0.2-1.3-0.4-2-0.6c0.3-3,0.4-5.9,0.1-8.9c-0.4-4.4-1.8-8.8-4.1-12.5c0,0,0,0,0,0
				c-0.8-1.2-1.6-2.4-2.6-3.4c-6.7-7.1-16.8-11.1-26.7-13.3l0-0.1c0.2-1.1-0.6-2.1-1.7-2.3l-4.2-0.6c-1-0.1-1.9,0.5-2.2,1.4
				c-0.7-0.1-1.5-0.2-2.2-0.3c-11.9-1.5-25,3.2-31.8,13.4c-3.7,5.9-5.2,12.9-6,19.7c-0.1,0.7-0.2,1.4,0,2.1c0.2,1,1,1.7,1.8,2.1
				c-0.1,1.2-0.3,2.4-0.4,3.6C45,77.9,43.4,84.4,41,90.6c-1.4,3.8-3.1,8.1-4.4,11.9c-1.5,4.2-2.5,8.6-2.6,13.1
				c-0.2,13.5,6,26.6,20.3,29.2c0.8,0.2,1.9,0.3,2.7,0.4c0.9,0.1,3,0.4,3.9,0.4c1.3,0,2.7,0.2,3.9,0.2c1.5,0,3.8,0,5.3-0.2
				c0.2,0,1.5-0.1,1.7-0.1c1.2-0.2,2.4-0.3,3.6-0.5c5.2-0.9,10.4-2.4,15.2-4.7c3.2-1.5,6.3-3.4,9.1-5.6c2.1-1.5,3.7-3.7,4.5-6.1
				c0.1-0.4,0.3-0.9,0.4-1.3c2.7,0.5,4.9-0.3,6.6-1.2c0.3-0.1,0.3-0.6,0-0.6c-1-0.2-1.6-0.8-1.8-1.1c-0.1-0.1,0-0.3,0.2-0.3
				c4.4-0.1,7-2.2,8.1-3.5c0.2-0.2,0.1-0.6-0.2-0.5c-1.8,0.5-3.9,0.1-5.2-0.4c-0.3-0.1-0.2-0.6,0.1-0.6c3.6-0.6,6.2-2.8,7.4-3.9
				c0.2-0.2,0.1-0.6-0.2-0.5c-3.4,0.4-5.6-0.2-6.5-0.6c-0.2-0.1-0.2-0.4,0-0.6l0.1-0.1c2.9-0.1,5.6-1.3,7.9-2.9
				c3.5-2.3,5.8-6,6.8-10c0.3-1.2,0.5-2.4,0.6-3.6c0-0.2,0-0.3,0-0.5l0.5,0.2l3.8,1.1l0.1,0c0.3,0.1,0.6,0.1,0.9,0.1
				c0.7,0,1.5-0.2,2.1-0.6c0.7-0.5,1.3-1.2,1.6-2c0.2-0.5,0.3-1,0.2-1.6c0-0.4-0.1-0.7-0.2-1.1c-0.5-1.4-1.6-2.3-2.9-2.6l-6.8-2.1
				l-1.5-0.5c0,0,0,0,0,0l-4.4-1.4l0.7-2.6c0.1,0,0.1,0,0.1,0c0,0,0-0.1,0-0.1c0.1,0.1,0.2,0.1,0.4,0.2c0.6,0.3,1.2,0.6,2,1
				c0.8,0.4,1.7,0.8,2.7,1.3c6,2.7,14.4,5.6,18.2,2C146.1,87.6,146.1,87.5,146.2,87.5z"/>
			<path class="st0" d="M150.3,37.9v37.2c-0.3-0.3-0.6-0.6-0.9-0.9l-0.4-0.4l-0.2-0.2l-0.1,0c-1.5-1.3-3.2-2.4-5.3-3.6
				c-3.5-1.9-7.4-3.3-10.9-4.4c0-1.6-0.1-3.2-0.2-4.8c-0.5-5.3-2.1-10.4-4.6-14.6v-8.4c0-0.7,0.3-1.4,0.8-1.9
				c0.5-0.5,1.2-0.8,1.8-0.8h17c0.8,0,1.4,0.3,1.9,0.8C150,36.6,150.3,37.2,150.3,37.9z"/>
			<path class="st0" d="M147.4,127.1v3.3c0,1.9-0.4,3.5-1.2,4.9c-0.8,1.4-1.9,2.5-3.4,3.3c-1.5,0.8-3.2,1.2-5.3,1.2
				c-2,0-3.8-0.4-5.2-1.1c-1.4-0.8-2.5-1.8-3.3-3.2c-0.7-1.4-1.2-3-1.3-4.9c0-1,0-2.1,0-3.2s0-2.2,0-3.3c0.1-1.9,0.5-3.5,1.3-4.8
				c0.7-1.4,1.8-2.4,3.3-3.2c1.4-0.8,3.1-1.1,5.2-1.1c1.6,0,3.1,0.2,4.3,0.7c1.2,0.5,2.2,1,3,1.7c0.8,0.7,1.3,1.4,1.7,2.2
				c0.4,0.8,0.6,1.4,0.6,2c0,0.2,0,0.4-0.2,0.5c-0.1,0.1-0.3,0.2-0.6,0.2h-2c-0.2,0-0.4,0-0.5-0.1c-0.1-0.1-0.2-0.3-0.3-0.5
				c-0.2-0.6-0.5-1.2-1-1.8c-0.5-0.6-1.1-1.1-1.9-1.4c-0.8-0.4-1.8-0.6-3.1-0.6c-1.8,0-3.3,0.5-4.4,1.5c-1.1,1-1.7,2.6-1.8,4.9
				c-0.1,2.1-0.1,4.1,0,6.2c0.1,2.3,0.7,4,1.8,5c1.1,1,2.6,1.5,4.4,1.5c1.2,0,2.3-0.2,3.3-0.7c1-0.5,1.7-1.1,2.3-2.1
				c0.6-0.9,0.8-2.1,0.8-3.6V129h-5.2c-0.2,0-0.4-0.1-0.6-0.2c-0.1-0.1-0.2-0.4-0.2-0.6v-1.1c0-0.3,0.1-0.5,0.2-0.6s0.3-0.2,0.6-0.2
				h7.8c0.3,0,0.5,0.1,0.6,0.2C147.4,126.6,147.4,126.8,147.4,127.1z"/>
			<path d="M147.3,82.2c0.7,1.8,0.3,3.9-1.2,5.3c0,0-0.1,0.1-0.1,0.1c-3.8,3.6-12.1,0.7-18.2-2c-1-0.4-1.9-0.9-2.7-1.3
				c-0.7-0.4-1.4-0.7-2-1c-0.1-0.1-0.2-0.1-0.4-0.2c0,0,0,0.1,0,0.1c0,0-0.1,0-0.1,0l-0.7,2.6l4.4,1.4c0,0,0,0,0,0l1.5,0.5l6.8,2.1
				c1.3,0.3,2.4,1.3,2.9,2.6c0.1,0.4,0.2,0.7,0.2,1.1c0,0.6-0.1,1.1-0.2,1.6c-0.3,0.8-0.8,1.5-1.6,2c-0.6,0.4-1.4,0.6-2.1,0.6
				c-0.3,0-0.6,0-0.9-0.1l-0.1,0l-3.8-1.1l-0.5-0.2c0,0.2,0,0.3,0,0.5c-0.1,1.2-0.3,2.4-0.6,3.6c-1,4-3.4,7.6-6.8,10
				c-2.4,1.6-5,2.9-7.9,2.9l-0.1,0.1c-0.2,0.1-0.2,0.5,0,0.6c0.9,0.4,3.1,1,6.5,0.6c0.3,0,0.4,0.3,0.2,0.5c-1.1,1.1-3.8,3.3-7.4,3.9
				c-0.3,0-0.4,0.5-0.1,0.6c1.3,0.4,3.4,0.9,5.2,0.4c0.3-0.1,0.5,0.3,0.2,0.5c-1.2,1.3-3.8,3.4-8.1,3.5c-0.2,0-0.3,0.2-0.2,0.3
				c0.3,0.4,0.8,0.9,1.8,1.1c0.3,0.1,0.3,0.5,0,0.6c-1.7,0.8-3.9,1.7-6.6,1.2c-0.1,0.4-0.3,0.9-0.4,1.3c-0.8,2.4-2.4,4.6-4.5,6.1
				c-2.8,2.2-5.8,4.1-9.1,5.6c-4.8,2.3-10,3.8-15.2,4.7c-1.2,0.2-2.4,0.3-3.6,0.5c-0.2,0-1.4,0.1-1.7,0.1c-1.5,0.1-3.7,0.2-5.3,0.2
				c-1.3,0-2.7-0.1-3.9-0.2c-0.9,0-3-0.3-3.9-0.4c-0.8-0.1-1.9-0.2-2.7-0.4c-14.3-2.6-20.5-15.7-20.3-29.2c0.1-4.5,1-8.9,2.6-13.1
				c1.3-3.8,3-8.2,4.4-11.9c2.4-6.1,3.9-12.6,4.8-19.2c0.2-1.2,0.3-2.4,0.4-3.6c-0.9-0.4-1.6-1.1-1.8-2.1c-0.2-0.7-0.1-1.4,0-2.1
				c0.8-6.8,2.3-13.8,6-19.7c6.8-10.2,19.9-15,31.8-13.4c0.7,0.1,1.5,0.2,2.2,0.3c0.3-0.9,1.2-1.5,2.2-1.4l4.2,0.6
				c1.1,0.2,1.9,1.2,1.7,2.3l0,0.1c10,2.2,20.1,6.2,26.7,13.3c1,1.1,1.9,2.2,2.6,3.4c0,0,0,0,0,0c2.4,3.8,3.7,8.2,4.1,12.5
				c0.3,3,0.2,6-0.1,8.9c0.6,0.2,1.3,0.4,2,0.6c5,1.5,10.9,3.5,14.9,6.3c0.6,0.4,1.2,0.9,1.8,1.3C145.6,79.7,146.7,80.7,147.3,82.2z
				 M142.8,83.5c0.2-0.8-0.1-1.5-0.8-2.1c-0.1-0.1-0.3-0.3-0.5-0.4c0,0-0.1-0.1-0.1-0.1c-0.1-0.1-0.3-0.2-0.4-0.4c0,0,0,0-0.1-0.1
				c-0.1-0.1-0.2-0.2-0.4-0.3c0,0-0.1-0.1-0.1-0.1c0,0-0.1,0-0.1-0.1c-0.1,0-0.1-0.1-0.2-0.1c-0.1-0.1-0.2-0.1-0.3-0.2c0,0,0,0,0,0
				c0,0-0.1,0-0.1-0.1c0,0,0,0,0,0c-0.3-0.2-0.5-0.3-0.8-0.5c-0.1-0.1-0.2-0.1-0.3-0.2c-0.1-0.1-0.2-0.1-0.4-0.2
				c-0.1-0.1-0.2-0.1-0.4-0.2c-0.1,0-0.1-0.1-0.2-0.1c-0.1-0.1-0.3-0.1-0.4-0.2c0,0-0.1,0-0.1-0.1c-0.2-0.1-0.4-0.2-0.5-0.3
				c-0.2-0.1-0.4-0.2-0.6-0.3c-0.1-0.1-0.3-0.1-0.4-0.2c-0.4-0.2-0.8-0.3-1.2-0.5c0,0,0,0,0,0c0,0,0,0,0,0c0,0,0,0-0.1,0
				c-0.4-0.1-0.7-0.3-1.1-0.4c-0.1,0-0.1,0-0.2-0.1c0,0-0.1,0-0.1,0c0,0-0.1,0-0.1-0.1c-0.3-0.1-0.6-0.2-0.9-0.3c0,0,0,0-0.1,0
				c-0.4-0.1-0.7-0.3-1.1-0.4c0,0,0,0-0.1,0c-0.2-0.1-0.4-0.1-0.7-0.2c-0.2-0.1-0.3-0.1-0.5-0.2c-0.2-0.1-0.3-0.1-0.5-0.2
				c0,0-0.1,0-0.1,0c-0.2-0.1-0.5-0.2-0.7-0.2c0,0,0,0,0,0c-0.1,0-0.3-0.1-0.4-0.1c-0.8-0.2-1.6-0.5-2.5-0.7c0,0.1,0,0.1,0,0.2
				c0,0.1-0.1,0.3-0.1,0.4c0,0.2-0.1,0.3-0.1,0.5c0,0.1,0,0.1,0,0.2c0,0,0,0,0,0c0,0,0,0,0,0c0,0,0,0.1,0,0.1c0,0.2-0.1,0.5-0.1,0.7
				c0,0.1,0,0.2-0.1,0.3c0,0.1,0,0.1,0,0.2c0,0.1,0,0.1,0,0.2c0,0.2-0.1,0.4-0.2,0.6c-0.1,0.4-0.2,0.7-0.3,1.1
				c0.3,0.1,0.5,0.3,0.8,0.4c0.1,0.1,0.3,0.1,0.4,0.2c0.7,0.3,1.4,0.7,2.2,1c0.5,0.2,1.1,0.5,1.7,0.7c0.1,0.1,0.3,0.1,0.4,0.2
				c0.5,0.2,1,0.4,1.5,0.6c0.2,0.1,0.4,0.2,0.6,0.2c0.2,0.1,0.4,0.2,0.6,0.2c0.2,0.1,0.4,0.2,0.6,0.2c0.4,0.1,0.8,0.3,1.2,0.4
				c0.2,0.1,0.4,0.2,0.7,0.2c0.2,0.1,0.3,0.1,0.5,0.2c0.2,0.1,0.5,0.1,0.7,0.2c0.3,0.1,0.5,0.2,0.8,0.2c0,0,0,0,0,0
				c0.1,0,0.2,0.1,0.4,0.1c0.1,0,0.3,0.1,0.4,0.1c0.2,0.1,0.5,0.1,0.7,0.2c0.1,0,0.2,0,0.3,0.1c0.1,0,0.3,0.1,0.4,0.1c0,0,0,0,0,0
				c0.2,0,0.3,0,0.5,0.1c0.1,0,0.3,0,0.4,0c0.1,0,0.1,0,0.2,0h0c0.1,0,0.2,0,0.3,0c0.1,0,0.1,0,0.2,0c0.5,0,0.9,0,1.3-0.1
				c0.3-0.1,0.4-0.1,0.4-0.1c0,0,0,0,0.1-0.1C142.8,83.7,142.8,83.6,142.8,83.5z M135.4,93.9c0-0.1,0-0.2,0-0.3
				c0-0.3-0.1-0.6-0.3-0.9c-0.2-0.4-0.6-0.6-1-0.7l-4.1-1.3l-2.2-0.7l-0.5-0.1l-0.8-0.2c0,0.1,0.1,0.1,0.1,0.2
				c0,0.1,0.1,0.1,0.1,0.2c0.1,0.1,0.1,0.2,0.2,0.3c0.1,0.1,0.1,0.2,0.2,0.3c0,0.1,0.1,0.1,0.1,0.2c0,0.1,0.1,0.2,0.1,0.3
				c0.1,0.1,0.1,0.3,0.2,0.4c0,0.1,0.1,0.2,0.1,0.3c0,0,0,0.1,0,0.1c0,0.1,0,0.1,0.1,0.2v0.4l0.1,0c0.1,0.2,0.1,0.3,0.1,0.5
				c0,0,0,0,0,0c0,0.2,0.1,0.3,0.1,0.5l0.2,0v0l1.4,0.4l3.7,1.1c0.4,0.1,0.8,0,1.2-0.2c0.3-0.2,0.5-0.5,0.6-0.9
				C135.4,94.1,135.4,94,135.4,93.9C135.4,94,135.4,93.9,135.4,93.9z M124.4,98c0.2-1.6,0-3.3-0.8-4.6c-0.2-0.4-0.5-0.7-0.8-1
				c-1-1-2.5-1.5-4-1.4c-0.6,0.1-1.1,0.2-1.7,0.4h0c-0.9,0.3-1.8,0.6-2.7,1.1c-1.6,0.8-3.3,1.9-5.1,3.1c-0.7,1.4-1.3,3-1.7,4.5
				l-0.1,0.5c-0.1,0.5-0.5,0.8-0.9,0.7l-4.5-1.5c-0.4-0.1-0.8-0.5-0.7-0.9c0.1-1.1,0.4-2.1,0.7-4.5c0.2-0.9,0.3-2,0.5-3
				c0.2-1,0.4-2,0.6-3l-0.9-0.3c-0.8-0.2-1.6-0.7-2.2-1.3l-3.3-3c-0.5-0.5-0.7-1.2-0.4-1.8c0.2-0.5,0.7-0.9,1.2-1l3.8-0.8
				c0.9-0.2,1.8-0.2,2.7,0.1c-0.3-1.8-1.1-3.3-1.9-4.3h0c0,0,0-0.1-0.1-0.1c-0.2-0.3-0.5-0.6-0.7-0.9c-14.8-6.1-31-10.5-47-8.4
				c-1.6,0.2-3.2,0.5-4.8,0.9l0,0.5c-0.1,1.4-0.3,2.7-0.4,3.7c-0.1,0.8-0.2,1.5-0.3,2.3c0.9-0.5,1.8-0.8,2.8-1c1-0.2,2-0.3,3.1-0.3
				c3.3,0.1,6.6,1.4,8.9,3.7c1.5,1.5-0.4,3.8-2.2,2.8c-2.2-1.3-4.3-2.4-6.8-2.7c-0.1,0-0.1,0-0.2,0c-1-0.1-2-0.2-3-0.1
				c-1,0-1.9,0.1-2.9,0.2c-0.1,0-0.1,0-0.2,0c-0.2,1.2-0.3,2.5-0.6,3.7c-0.5,3.1-1.3,6.1-2.2,9.1c-1.7,5.4-3.7,10.8-5.3,16.2
				c-2.3,7.7-2,16.3,1.5,23.6c2,4.2,5,7.3,9.3,9.1c2.1,0.8,4.4,1.4,6.7,1.5c0.5,0.1,2.6,0.3,3,0.3c0.4,0,1.4,0.1,1.8,0.1
				c2.3,0.1,5,0.1,7.3-0.1c0.2,0,1.3-0.1,1.5-0.1c0.2,0,0.7-0.1,0.9-0.1c6.4-0.7,12.7-2.6,18.4-5.5c2.1-1.1,4.2-2.4,6.1-3.8
				c1.1-0.8,2-1.7,2.6-2.9c0.3-0.6,0.6-1.5,0.9-2.1l0.9-2.4c1.9-5,3.9-10.1,6.4-14.8c0.7-1.2,1.4-2.4,2.1-3.6
				c0.1-0.2,0.4-0.3,0.6-0.1c0.1,0.1,0.2,0.3,0.2,0.4c-0.1,0.6-0.1,1.2-0.2,1.7c0,0.3,0,1.5,2.5,1.9c0.7,0.1,1.5,0.1,2.4-0.1
				C120.2,107.5,124,103.2,124.4,98z M121.4,68c0.3-2.9,0.2-5.8-0.3-8.7c-0.3-1.9-0.9-3.7-1.6-5.5c-3.2-7.4-10.8-12.1-18.7-15.1
				c2.8,2.9,4.9,6.7,5.9,11.4c1.6,7.3,0.5,14.7-1.2,21.8c2.2,0.8,11,3.9,14.2,5C120.5,74,121.1,71,121.4,68z M115.6,86.4l-8.9-2.7
				l-1.1-0.4l-0.6-0.2l-2.4-0.7L99.2,83l2.8,2.5l2.1,0.7c0,0,0,0,0,0l2.6,0.8l5.4,1.7C113.1,87.6,114.3,86.8,115.6,86.4z
				 M101.6,70.6c1.6-5.9,2.5-13.5,1.1-19.6c-2-10.7-10.9-15.6-21-16.7C70.6,33,58,37.9,53,48.4c-2.1,4.7-3.2,9.8-3.6,15
				c1.5-0.3,3-0.5,4.5-0.7c16-2.2,32.2,1.8,47,7.7C100.9,70.3,101.2,70.4,101.6,70.6z"/>
			<path class="st0" d="M142.1,81.4c0.7,0.6,1,1.3,0.8,2.1c0,0.1-0.1,0.2-0.1,0.3c0,0.2-0.1,0.1-0.1,0.1c0,0-0.1,0.1-0.4,0.1
				c-0.4,0.1-0.9,0.1-1.3,0.1c-0.1,0-0.1,0-0.2,0c-0.1,0-0.2,0-0.3,0h0c-0.1,0-0.1,0-0.2,0c-0.1,0-0.2,0-0.4,0c-0.2,0-0.3,0-0.5-0.1
				c0,0,0,0,0,0c-0.1,0-0.3,0-0.4-0.1c-0.1,0-0.2,0-0.3-0.1c-0.2,0-0.4-0.1-0.7-0.2c-0.1,0-0.3-0.1-0.4-0.1c-0.1,0-0.2-0.1-0.4-0.1
				c0,0,0,0,0,0c-0.3-0.1-0.5-0.2-0.8-0.2c-0.2-0.1-0.5-0.1-0.7-0.2c-0.2-0.1-0.3-0.1-0.5-0.2c-0.2-0.1-0.4-0.1-0.7-0.2
				c-0.4-0.1-0.8-0.3-1.2-0.4c-0.2-0.1-0.4-0.2-0.6-0.2c-0.2-0.1-0.4-0.1-0.6-0.2c-0.2-0.1-0.4-0.2-0.6-0.2c-0.5-0.2-1-0.4-1.5-0.6
				c-0.1-0.1-0.3-0.1-0.4-0.2c-0.6-0.2-1.1-0.5-1.7-0.7c-0.8-0.4-1.5-0.7-2.2-1c-0.2-0.1-0.3-0.1-0.4-0.2c-0.3-0.1-0.6-0.3-0.8-0.4
				c0.1-0.4,0.2-0.7,0.3-1.1c0.1-0.2,0.1-0.4,0.2-0.6c0-0.1,0-0.1,0-0.2c0-0.1,0-0.1,0-0.2c0-0.1,0-0.2,0.1-0.3
				c0.1-0.2,0.1-0.5,0.1-0.7c0,0,0-0.1,0-0.1c0,0,0,0,0,0c0,0,0,0,0,0c0-0.1,0-0.1,0-0.2c0-0.2,0.1-0.3,0.1-0.5
				c0-0.1,0.1-0.3,0.1-0.4c0-0.1,0-0.1,0-0.2c0.8,0.2,1.6,0.4,2.5,0.7c0.1,0,0.3,0.1,0.4,0.1c0,0,0,0,0,0c0.2,0.1,0.5,0.1,0.7,0.2
				c0,0,0.1,0,0.1,0c0.2,0,0.3,0.1,0.5,0.2c0.2,0,0.3,0.1,0.5,0.2c0.2,0.1,0.4,0.1,0.7,0.2c0,0,0,0,0.1,0c0.4,0.1,0.7,0.2,1.1,0.4
				c0,0,0,0,0.1,0c0.3,0.1,0.6,0.2,0.9,0.3c0,0,0.1,0,0.1,0.1c0,0,0.1,0,0.1,0c0.1,0,0.1,0,0.2,0.1c0.4,0.1,0.7,0.3,1.1,0.4
				c0,0,0,0,0.1,0c0,0,0,0,0,0c0,0,0,0,0,0c0.4,0.2,0.8,0.3,1.2,0.5c0.1,0.1,0.3,0.1,0.4,0.2c0.2,0.1,0.4,0.2,0.6,0.3
				c0.2,0.1,0.4,0.2,0.5,0.3c0,0,0.1,0,0.1,0.1c0.1,0.1,0.3,0.1,0.4,0.2c0.1,0,0.1,0.1,0.2,0.1c0.1,0.1,0.2,0.1,0.4,0.2
				c0.1,0.1,0.2,0.1,0.4,0.2c0.1,0.1,0.2,0.1,0.3,0.2c0.3,0.2,0.5,0.3,0.8,0.5c0,0,0,0,0,0c0,0,0.1,0,0.1,0.1c0,0,0,0,0,0
				c0.1,0.1,0.2,0.1,0.3,0.2c0.1,0,0.1,0.1,0.2,0.1c0,0,0.1,0,0.1,0.1c0,0,0.1,0.1,0.1,0.1c0.1,0.1,0.3,0.2,0.4,0.3c0,0,0,0,0.1,0.1
				c0.1,0.1,0.3,0.2,0.4,0.4c0,0,0.1,0.1,0.1,0.1C141.8,81.1,141.9,81.2,142.1,81.4z"/>
			<path class="st0" d="M135.4,93.6c0,0.1,0,0.2,0,0.3c0,0,0,0,0,0c0,0,0,0.1,0,0.1c-0.1,0.4-0.3,0.7-0.6,0.9
				c-0.3,0.2-0.8,0.3-1.2,0.2l-3.7-1.1l-1.4-0.4v0l-0.2,0c0-0.2-0.1-0.3-0.1-0.5c0,0,0,0,0,0c0-0.2-0.1-0.3-0.1-0.5l-0.1,0v-0.4
				c0-0.1,0-0.1-0.1-0.2c0,0,0,0,0-0.1c0-0.1-0.1-0.2-0.1-0.3c-0.1-0.2-0.1-0.3-0.2-0.4c0-0.1-0.1-0.2-0.1-0.3
				c0-0.1-0.1-0.1-0.1-0.2c0-0.1-0.1-0.2-0.2-0.3c-0.1-0.1-0.1-0.2-0.2-0.3c0-0.1-0.1-0.1-0.1-0.2c0-0.1-0.1-0.1-0.1-0.2l0.8,0.2
				l0.5,0.1l2.2,0.7l4.1,1.3c0.4,0.1,0.8,0.3,1,0.7C135.3,93,135.4,93.3,135.4,93.6z"/>
			<path class="st0" d="M123.6,93.4c0.8,1.3,1,3.1,0.8,4.6c-0.5,5.2-4.3,9.5-9.3,10.7c-0.8,0.2-1.6,0.2-2.4,0.1
				c-2.5-0.4-2.6-1.6-2.5-1.9c0.1-0.6,0.2-1.1,0.2-1.7c0-0.2-0.1-0.3-0.2-0.4c-0.2-0.1-0.5-0.1-0.6,0.1c-0.8,1.2-1.5,2.4-2.1,3.6
				c-2.6,4.7-4.5,9.8-6.4,14.8l-0.9,2.4c-0.2,0.6-0.5,1.5-0.9,2.1c-0.6,1.2-1.5,2.2-2.6,2.9c-1.9,1.4-4,2.7-6.1,3.8
				c-5.7,3-12,4.8-18.4,5.5c-0.2,0-0.7,0.1-0.9,0.1c-0.2,0-1.3,0.1-1.5,0.1c-2.3,0.2-5,0.2-7.3,0.1c-0.4,0-1.5-0.1-1.8-0.1
				c-0.4,0-2.5-0.2-3-0.3c-2.3-0.2-4.6-0.7-6.7-1.5c-4.3-1.8-7.3-5-9.3-9.1c-3.4-7.3-3.8-15.9-1.5-23.6c1.6-5.4,3.6-10.8,5.3-16.2
				c0.9-3,1.6-6,2.2-9.1c0.2-1.2,0.4-2.5,0.6-3.7c0.1,0,0.1,0,0.2,0c1-0.1,1.9-0.2,2.9-0.2c1,0,2,0,3,0.1c0.1,0,0.1,0,0.2,0
				c2.5,0.4,4.7,1.4,6.8,2.7c1.8,1,3.6-1.3,2.2-2.8c-2.3-2.3-5.6-3.6-8.9-3.7c-1,0-2.1,0.1-3.1,0.3c-1,0.2-1.9,0.6-2.8,1
				c0.1-0.8,0.2-1.5,0.3-2.3c0.1-1,0.3-2.4,0.4-3.7l0-0.5c1.6-0.3,3.2-0.6,4.8-0.9c16-2.2,32.2,2.3,47,8.4c0.2,0.3,0.5,0.5,0.7,0.9
				c0,0,0.1,0.1,0.1,0.1h0c0.8,1.1,1.6,2.5,1.9,4.3c-0.9-0.2-1.8-0.3-2.7-0.1L97.7,81c-0.6,0.1-1,0.5-1.2,1
				c-0.2,0.6-0.1,1.3,0.4,1.8l3.3,3c0.6,0.6,1.4,1,2.2,1.3l0.9,0.3c-0.2,1-0.4,2-0.6,3c-0.2,1.1-0.4,2.1-0.5,3
				c-0.4,2.3-0.6,3.4-0.7,4.5c-0.1,0.4,0.3,0.9,0.7,0.9l4.5,1.5c0.5,0.1,0.9-0.3,0.9-0.7l0.1-0.5c0.4-1.6,0.9-3.1,1.7-4.5
				c1.8-1.2,3.5-2.4,5.1-3.1c0.9-0.4,1.8-0.8,2.7-1.1h0c0.5-0.2,1.1-0.3,1.7-0.4c1.4-0.2,2.9,0.4,4,1.4
				C123.2,92.7,123.4,93,123.6,93.4z M122.8,97.5c0.3,0.3,0.8,0.2,0.8-0.3c-0.1-2.7-2.6-4.6-5.3-4.1c-2.1,0.4-3.8,1.8-4.9,3.5
				c-0.1,0.1-0.2,0.3-0.3,0.5c-0.1,0.1-0.1,0.3,0,0.4c0.1,0.2,0.4,0.3,0.6,0.2c0.9-0.4,1.8-0.9,2.6-1.3c0.6-0.3,1.1-0.5,1.5-0.6
				c-0.1,0.6-0.1,1.1-0.3,1.7c0,0.1-0.1,0.3-0.1,0.4c-0.3,1.3-0.9,2.6-1.5,3.9c0,0,0,0,0,0c-0.3,0.7-0.7,1.5-1.1,2.2
				c-0.1,0.1-0.1,0.2,0,0.3c0.1,0.2,0.3,0.2,0.5,0.1c0.8-0.4,1.5-1,2.1-1.6c1.3-1.3,2.3-2.9,2.7-4.8c0.2-0.7,0.2-1.5,0.1-2.3
				c0.3,0.1,0.7,0.3,1,0.5C121.9,96.5,122.3,96.9,122.8,97.5z M90.3,83.8L90.3,83.8c0-0.1,0-0.2,0-0.4c-0.8-1.5-2-2.7-3.3-3.8
				c-1.3-1.1-2.8-1.9-4.5-2.5c-1.8-0.7-3.9-1-5.9-0.9c-1.6,0.1-3.1,0.5-4.5,1.1c-0.7,0.3-1.2,1.1-1,2c0.2,1,1.2,1.6,2.2,1.4
				c2.7-0.6,5.4-0.6,8.1,0.1c2.8,0.7,5.5,2,8.2,3.4C89.9,84.2,90.2,84,90.3,83.8z M88.5,115.8c0.8-2.7-0.5-5.6-2.8-7.1
				c-1.8-1.2-3.9-1.6-5.9-1c-0.6,0.2-1.2,0.4-1.7,0.7c-0.1,0.1-0.3,0.2-0.3,0.4c-0.1,0.3,0.1,0.7,0.5,0.8c0.3,0.1,0.6,0.1,0.9,0.2
				c0.8,0.2,1.7,0.4,2.4,0.6c-0.4,0.2-0.8,0.4-1.2,0.5c-5.9,2.9-12.3,5.4-19,5.6c-6.2,0.2-11.4-1.5-16.3-4.9
				c-0.6-0.4-1.2-0.8-1.7-1.3c-0.2-0.2-0.4-0.2-0.6-0.2c-0.2,0-0.4,0.1-0.5,0.2c0,0-0.7,0.5-0.2,1.2c0.1,0.2,0.2,0.4,0.4,0.6
				c0.1,0.2,0.3,0.4,0.5,0.6c-0.1,2.7,0.1,5.4,0.8,8.1c0.8,2.8,2.1,5,3.8,6.7c5.3,5.4,14.4,6,22.1,4.4c8.9-2.1,14.7-9.7,15.7-18.5
				c0.7,0.8,1.3,1.7,2,2.6C87.7,116.3,88.4,116.3,88.5,115.8z M85.8,91.6c0.7-0.3-0.1-1.2-0.3-1.7c-0.6-1-1.4-1.9-2.3-2.6
				c-1.9-1.5-4.4-2.8-7-2.7c-2.6,0.1-5.2,1.5-6.2,3.9l-0.1,0.2c-0.1,0.4,0.3,0.8,0.7,0.7c0.4-0.1,0.8-0.2,1.1-0.3
				c2.2-0.7,4.4-1,6.6-0.4c2.6,0.6,4.5,1.9,7.1,2.9C85.6,91.6,85.7,91.6,85.8,91.6z M64.1,90.7c0.8-2.5,1-5.1,0.4-7.7
				c-0.2-0.7-1.2-0.7-1.3,0c-0.3,1.1-0.6,2.3-1,3.4c-0.7,2.1-1.6,4-2.8,5.9c-0.5,0.8-1,1.6-1.5,2.4c-0.9,0-1.8,0.3-2.5,0.7
				c-3.8,1.8-5.2,6.9-2.8,10.5c0.8,1.1,1.8,2,3.1,2.5c2.4,0.9,5.2,0.2,6.9-1.5c0.5-0.6,0-1.5-0.8-1.2c-1.5,0.3-3.5,0.3-4.7-0.4
				c-1.1-0.7-1.8-2-1.8-3.3c0.1-2.7,2.3-4.2,4.9-4.3c0.4,0,0.9,0,1.5,0.1c0.5,0.1,0.9-0.5,0.6-0.9c-0.3-0.5-0.7-0.9-1.1-1.2
				C62.6,94.3,63.6,92.5,64.1,90.7z M56.4,85.4c0.7-3.4-0.1-6.5-1.9-6.9c-0.1,0-0.1,0-0.2,0c-1.3-0.1-2.7,1.2-3.6,3.2
				c-0.1,0.3-0.1,0.6-0.2,0.9l1.7,1.3c0.2,0.2,0.1,0.5-0.1,0.6l-2.1,0.5c-0.1,0.4-0.2,0.8-0.3,1.2c0,0,0,0,0,0c0,2.2,0.7,4,1.9,4.5
				c0.1,0,0.2,0,0.2,0.1C53.6,91.2,55.6,88.8,56.4,85.4z"/>
			<path d="M123.6,97.2c0,0.4-0.5,0.6-0.8,0.3c-0.5-0.5-0.9-0.9-1.4-1.2c-0.3-0.2-0.7-0.4-1-0.5c0.1,0.8,0,1.5-0.1,2.3
				c-0.4,1.8-1.4,3.5-2.7,4.8c-0.6,0.6-1.3,1.2-2.1,1.6c-0.2,0.1-0.4,0-0.5-0.1c-0.1-0.1,0-0.2,0-0.3c0.4-0.7,0.7-1.5,1.1-2.2
				c0,0,0,0,0,0c0.6-1.3,1.1-2.5,1.5-3.9c0-0.1,0.1-0.3,0.1-0.4c0.1-0.6,0.2-1.1,0.3-1.7c-0.5,0.1-1,0.3-1.5,0.6
				c-0.8,0.4-1.7,0.9-2.6,1.3c-0.2,0.1-0.5,0-0.6-0.2c-0.1-0.1,0-0.3,0-0.4c0.1-0.2,0.2-0.3,0.3-0.5c1.2-1.7,2.8-3,4.9-3.5
				C121,92.6,123.5,94.5,123.6,97.2z"/>
			<path class="st0" d="M121,59.3c0.5,2.8,0.6,5.8,0.3,8.7c-0.3,3-0.9,6-1.7,8.9c-3.3-1.2-12-4.2-14.2-5c1.7-7.1,2.8-14.5,1.2-21.8
				c-1.1-4.7-3.1-8.5-5.9-11.4c7.9,3,15.4,7.7,18.7,15.1C120.2,55.5,120.7,57.4,121,59.3z"/>
			<path class="st0" d="M106.7,83.6l8.9,2.7c-1.3,0.5-2.5,1.3-3.5,2.2l-5.4-1.7l-2.6-0.8c0,0,0,0,0,0l-2.1-0.7L99.2,83l3.3-0.7
				l2.4,0.7l0.6,0.2L106.7,83.6z"/>
			<path class="st0" d="M102.7,50.9c1.4,6.2,0.5,13.8-1.1,19.6c-0.4-0.2-0.7-0.3-0.7-0.3c-14.8-5.9-30.9-9.9-47-7.7
				c-1.5,0.2-3.1,0.5-4.5,0.7c0.4-5.1,1.5-10.3,3.6-15C58,37.9,70.6,33,81.7,34.2C91.9,35.3,100.7,40.2,102.7,50.9z M84.8,58.7
				c0.3-2.3,0.4-5.6-1.7-8.4c-2-2.9-5.8-4.7-11.1-5.4c-4-0.5-7.4,0-10.2,1.5c-0.6,0.4-1.3,0.8-1.8,1.2c-4.8,3.9-5.4,10.3-5.5,11
				c0,0.3,0.1,0.6,0.2,0.9c0,0.1,0.1,0.1,0.2,0.2l0,0c0.3,0.3,0.7,0.4,1,0.3c11.4-1.7,21.4,0.6,26.4,2.1c0.2,0.1,0.4,0.1,0.4,0.1
				c0.1,0,0.2,0,0.3,0c0.2,0,0.5-0.1,0.7-0.2l0.1,0c0.3-0.2,0.4-0.5,0.5-0.8c0-0.2,0.1-0.4,0.1-0.6C84.6,60,84.7,59.4,84.8,58.7z"/>
			<path d="M90.3,83.8L90.3,83.8c-0.1,0.3-0.4,0.5-0.7,0.3c-2.7-1.3-5.4-2.6-8.2-3.4C78.7,80,76,80,73.3,80.6c-1,0.2-2-0.4-2.2-1.4
				c-0.2-0.8,0.3-1.6,1-2c1.4-0.6,3-1,4.5-1.1c2-0.1,4,0.2,5.9,0.9c1.6,0.6,3.2,1.4,4.5,2.5c1.3,1.1,2.5,2.3,3.3,3.8
				C90.3,83.5,90.3,83.6,90.3,83.8z"/>
			<path d="M85.8,108.6c2.2,1.6,3.5,4.5,2.8,7.1c-0.2,0.5-0.8,0.6-1.1,0.1c-0.7-0.8-1.3-1.7-2-2.6c-1.1,8.8-6.8,16.4-15.7,18.5
				c-7.7,1.6-16.7,1-22.1-4.4c-1.7-1.7-3-3.9-3.8-6.7c-0.8-2.7-0.9-5.4-0.8-8.1c-0.2-0.2-0.3-0.4-0.5-0.6c-0.1-0.2-0.3-0.4-0.4-0.6
				c-0.5-0.7,0.2-1.2,0.2-1.2c0.2-0.1,0.3-0.2,0.5-0.2c0.2,0,0.4,0.1,0.6,0.2c0.6,0.4,1.1,0.9,1.7,1.3c4.9,3.4,10.1,5.1,16.3,4.9
				c6.6-0.2,13.1-2.6,19-5.6c0.4-0.2,0.8-0.4,1.2-0.5c-0.8-0.3-1.6-0.5-2.4-0.6c-0.3,0-0.6-0.1-0.9-0.2c-0.4-0.1-0.6-0.4-0.5-0.8
				c0-0.2,0.2-0.3,0.3-0.4c0.5-0.3,1.1-0.6,1.7-0.7C81.9,107,84,107.4,85.8,108.6z M68.9,128.3c6.1-1.5,10.4-6,12.5-11.6
				c-5.5,5.2-13.1,9.3-20.2,8.2c-0.4-0.1-0.4-0.7,0-0.8c4.8-0.6,9.1-2.7,13-5.5c1-0.7,2-1.5,3-2.3c-0.1,0-0.1,0.1-0.2,0.1
				c-4.4,1.8-9.1,3.2-13.9,3.5c-5.6,0.4-12-0.9-16.7-4.2c0.4,4.8,2.3,9.4,6.9,11.6C58,129.6,63.8,129.4,68.9,128.3z"/>
			<path d="M85.5,89.9c0.2,0.5,1,1.3,0.3,1.7c-0.1,0.1-0.2,0.1-0.4,0c-2.6-1-4.5-2.3-7.1-2.9c-2.2-0.6-4.4-0.3-6.6,0.4
				c-0.4,0.1-0.7,0.2-1.1,0.3c-0.4,0.1-0.8-0.3-0.7-0.7l0.1-0.2c1-2.4,3.7-3.9,6.2-3.9c2.6-0.1,5.1,1.2,7,2.7
				C84.1,88,84.9,88.9,85.5,89.9z"/>
			<path d="M83.2,50.2c2,2.8,2,6.1,1.7,8.4c-0.1,0.7-0.2,1.4-0.3,1.9c0,0.2-0.1,0.4-0.1,0.6c-0.1,0.3-0.2,0.6-0.5,0.8l-0.1,0
				c-0.2,0.1-0.5,0.2-0.7,0.2c-0.1,0-0.2,0-0.3,0c-0.1,0-0.2,0-0.4-0.1c-5-1.5-15-3.8-26.4-2.1c-0.4,0-0.8-0.1-1-0.3l0,0
				c-0.1-0.1-0.1-0.1-0.2-0.2c-0.2-0.2-0.3-0.5-0.2-0.9c0.1-0.7,0.7-7.1,5.5-11c0.6-0.5,1.2-0.9,1.8-1.2c2.8-1.5,6.2-2,10.2-1.5
				C77.4,45.5,81.2,47.3,83.2,50.2z M82.4,58.1c0-0.3,0.1-0.7,0.1-1.1c-3.1-0.8-15.8-3.9-24.6-1.9c-0.1,0.2-0.1,0.3-0.2,0.5
				c0,0.2-0.1,0.3-0.1,0.5c-0.1,0.4-0.2,0.8-0.3,1.1c2.3-0.3,4.6-0.4,6.8-0.4c7.6,0,14,1.4,18.1,2.6c0,0,0,0,0,0
				C82.3,59,82.4,58.6,82.4,58.1z"/>
			<path class="st0" d="M82.5,57c0,0.4-0.1,0.7-0.1,1.1c-0.1,0.5-0.1,0.9-0.2,1.3c0,0,0,0,0,0c-4-1.1-10.5-2.6-18.1-2.6
				c-2.2,0-4.5,0.1-6.8,0.4c0.1-0.3,0.2-0.7,0.3-1.1c0-0.2,0.1-0.3,0.1-0.5c0-0.2,0.1-0.3,0.2-0.5C66.7,53.2,79.4,56.2,82.5,57z"/>
			<path class="st0" d="M81.4,116.8c-2.1,5.6-6.3,10.1-12.5,11.6c-5.1,1.1-10.9,1.3-15.7-1c-4.7-2.2-6.6-6.8-6.9-11.6
				c4.7,3.4,11.1,4.6,16.7,4.2c4.8-0.3,9.5-1.6,13.9-3.5c0.1,0,0.1-0.1,0.2-0.1c-1,0.8-2,1.6-3,2.3c-3.9,2.7-8.2,4.9-13,5.5
				c-0.4,0.1-0.5,0.7,0,0.8C68.3,126.1,75.8,121.9,81.4,116.8z"/>
			<path d="M64.5,83.1c0.6,2.5,0.4,5.2-0.4,7.7c-0.5,1.8-1.5,3.5-2.9,4.8c0.4,0.3,0.8,0.7,1.1,1.2c0.3,0.4-0.1,1-0.6,0.9
				c-0.5-0.1-1-0.1-1.5-0.1c-2.6,0.1-4.9,1.6-4.9,4.3c-0.1,1.3,0.7,2.6,1.8,3.3c1.2,0.7,3.2,0.7,4.7,0.4c0.7-0.2,1.3,0.7,0.8,1.2
				c-1.8,1.7-4.5,2.4-6.9,1.5c-1.3-0.5-2.4-1.4-3.1-2.5c-2.4-3.5-1-8.6,2.8-10.5c0.8-0.4,1.6-0.6,2.5-0.7c0.5-0.8,1-1.6,1.5-2.4
				c1.2-1.8,2.1-3.8,2.8-5.9c0.4-1.1,0.7-2.3,1-3.4C63.4,82.4,64.4,82.4,64.5,83.1z"/>
			<path d="M54.5,78.5c1.8,0.4,2.6,3.4,1.9,6.9c-0.7,3.4-2.8,5.8-4.6,5.5c-0.1,0-0.2,0-0.2-0.1c-1.2-0.4-1.9-2.2-1.9-4.5
				c0,0,0,0,0,0c0.1-0.4,0.2-0.8,0.3-1.2l2.1-0.5c0.3-0.1,0.4-0.4,0.1-0.6l-1.7-1.3c0.1-0.3,0.1-0.6,0.2-0.9c0.9-2,2.3-3.3,3.6-3.2
				C54.3,78.5,54.4,78.5,54.5,78.5z"/>
		</g>
	</g>
</g>
</svg>
