<?xml version="1.0" encoding="UTF-8"?>
<svg id="Layer_1" data-name="Layer 1" xmlns="http://www.w3.org/2000/svg" viewBox="0 0 2783.98 1134.07">
  <defs>
    <style>
      .cls-1 {
        fill: #fff;
        stroke-width: 0px;
      }
    </style>
  </defs>
  <path class="cls-1" d="m946.54,860h42.89c.24,6.14-.58,11.87-2.45,17.21-1.88,5.32-4.68,9.97-8.36,13.91-3.7,3.96-8.25,7.07-13.64,9.31-5.4,2.26-11.6,3.4-18.62,3.4-7.53,0-14.15-1.47-19.85-4.42-5.7-2.95-10.49-6.89-14.39-11.86-3.89-4.95-6.83-10.66-8.84-17.11-2-6.46-3-13.19-3-20.22s.87-14.13,2.63-20.97c1.75-6.83,4.49-12.9,8.19-18.23,3.69-5.34,8.46-9.63,14.29-12.88,5.83-3.27,12.82-4.89,20.97-4.89,5,0,9.74.59,14.2,1.78,4.44,1.2,8.43,2.98,11.94,5.37,3.51,2.37,6.46,5.42,8.84,9.12,2.37,3.7,4.01,8.12,4.89,13.25h17.87c-1.25-7.9-3.61-14.63-7.05-20.2-3.44-5.59-7.71-10.19-12.79-13.83s-10.85-6.3-17.3-8c-6.46-1.7-13.33-2.55-20.59-2.55-10.67,0-19.98,1.99-27.94,5.93-7.96,3.96-14.6,9.25-19.93,15.89-5.34,6.65-9.34,14.39-12.03,23.23-2.71,8.84-4.04,18.15-4.04,27.93,0,8.78,1.43,17.24,4.31,25.4,2.88,8.14,7.1,15.35,12.61,21.63,5.51,6.26,12.23,11.25,20.13,14.95,7.9,3.69,16.86,5.54,26.9,5.54,7.88,0,15.72-1.54,23.51-4.61,7.77-3.06,14.29-8.11,19.56-15.14l4.7,16.74h11.28v-70.71h-58.87v15.05Z"/>
  <path class="cls-1" d="m1228.09,898.55c-.5-3.25-.82-6.59-.93-9.97-.13-3.38-.32-6.71-.58-9.97-.37-3.27-.91-6.39-1.59-9.41-.7-3.01-1.76-5.74-3.2-8.19-1.44-2.44-3.38-4.53-5.83-6.3-2.44-1.76-5.61-3.01-9.5-3.77v-.37c8.16-2.26,14.08-6.46,17.79-12.61,3.69-6.14,5.54-13.28,5.54-21.44,0-10.91-3.61-19.5-10.82-25.77s-17.21-9.41-29.99-9.41h-63.2v134.29h17.87v-57.36h43.63c4.39,0,7.9.66,10.53,1.97,2.64,1.31,4.77,3.08,6.39,5.27,1.63,2.2,2.84,4.76,3.59,7.71.74,2.95,1.38,6.06,1.87,9.31.63,3.27.99,6.59,1.12,9.97.13,3.4.26,6.55.38,9.5.13,2.95.4,5.61.85,8,.43,2.39,1.28,4.26,2.53,5.64h19.93c-1.87-2.26-3.28-4.86-4.23-7.8-.93-2.95-1.67-6.04-2.16-9.31Zm-25.48-59.91c-2.82,1.83-6.12,3.04-9.89,3.67-3.75.64-7.71.95-11.84.95h-37.24v-46.84h44.38c8.4,0,14.48,2.13,18.25,6.39,3.75,4.26,5.64,9.79,5.64,16.55,0,4.89-.85,8.88-2.55,11.95-1.68,3.06-3.94,5.51-6.76,7.32Z"/>
  <path class="cls-1" d="m1385.15,781.37l-52.3,134.29h18.25l15.05-40.44h56.8l14.68,40.44h19.74l-52.48-134.29h-19.74Zm-13.36,78.8l22.77-62.62h.37l22.38,62.62h-45.52Z"/>
  <path class="cls-1" d="m1623.45,781.37h-58.87v134.29h17.87v-54.91h41c13.54.13,23.79-3.33,30.75-10.35,6.97-7.02,10.45-16.81,10.45-29.34s-3.48-22.29-10.45-29.24c-6.95-6.97-17.21-10.45-30.75-10.45Zm16.26,58.12c-4.7,4.26-12.13,6.33-22.29,6.22h-34.98v-49.29h34.98c10.16,0,17.59,2.1,22.29,6.3,4.71,4.21,7.07,10.32,7.07,18.35s-2.36,14.16-7.07,18.43Z"/>
  <polygon class="cls-1" points="1869.08 839.12 1798.36 839.12 1798.36 781.37 1780.49 781.37 1780.49 915.66 1798.36 915.66 1798.36 854.17 1869.08 854.17 1869.08 915.66 1886.95 915.66 1886.95 781.37 1869.08 781.37 1869.08 839.12"/>
  <rect class="cls-1" x="2011.08" y="781.37" width="17.87" height="134.29"/>
  <path class="cls-1" d="m2245.44,880.49c-1.88,4.77-4.49,8.88-7.8,12.32-3.33,3.45-7.27,6.14-11.86,8.09-4.57,1.94-9.81,2.92-15.7,2.92-8.03,0-14.92-1.51-20.69-4.52-5.77-3.01-10.5-7.05-14.2-12.13-3.7-5.08-6.42-11.04-8.19-17.87-1.75-6.84-2.63-14.08-2.63-21.73,0-7.02.88-13.8,2.63-20.32,1.76-6.52,4.49-12.32,8.19-17.4,3.7-5.08,8.4-9.12,14.1-12.13,5.7-3,12.58-4.5,20.61-4.5,9.39,0,17.51,2.37,24.36,7.15,6.83,4.76,11.25,11.91,13.25,21.44h17.87c-.99-7.15-3.12-13.44-6.39-18.91-3.25-5.45-7.34-10-12.23-13.64s-10.46-6.39-16.73-8.27c-6.28-1.89-12.93-2.84-19.95-2.84-10.27,0-19.4,1.86-27.37,5.56-7.96,3.7-14.6,8.75-19.93,15.14-5.34,6.39-9.37,13.89-12.13,22.46-2.76,8.6-4.13,17.79-4.13,27.56s1.28,18.94,3.85,27.46c2.58,8.52,6.43,15.93,11.57,22.19s11.6,11.18,19.37,14.76,16.87,5.37,27.27,5.37c17.18,0,30.73-4.7,40.64-14.1,9.9-9.41,15.73-22.58,17.48-39.5h-17.87c-.37,5.51-1.51,10.66-3.38,15.41Z"/>
  <path class="cls-1" d="m2469.73,851.35c-4.09-2.88-8.68-5.18-13.83-6.87-5.14-1.68-10.38-3.16-15.7-4.42-5.34-1.25-10.58-2.4-15.7-3.48-5.14-1.06-9.76-2.4-13.83-4.04-4.09-1.63-7.34-3.73-9.77-6.3-2.45-2.58-3.67-5.93-3.67-10.06,0-4.39.83-8.06,2.53-11.01,1.7-2.95,3.96-5.3,6.78-7.05,2.82-1.76,6.04-3.01,9.68-3.77,3.64-.75,7.34-1.12,11.1-1.12,9.28,0,16.89,2.16,22.85,6.49,5.96,4.33,9.44,11.31,10.43,20.96h16.94c-.26-7.39-1.67-13.75-4.23-19.08-2.58-5.34-6.09-9.74-10.54-13.27-4.44-3.51-9.61-6.07-15.51-7.71-5.9-1.62-12.29-2.45-19.18-2.45-6.15,0-12.13.78-17.96,2.36-5.83,1.57-11.04,3.96-15.62,7.15-4.57,3.2-8.24,7.27-10.99,12.23-2.76,4.95-4.13,10.82-4.13,17.59,0,6.14,1.22,11.25,3.65,15.32,2.45,4.09,5.7,7.4,9.79,9.98,4.07,2.56,8.68,4.63,13.83,6.2,5.13,1.57,10.37,2.95,15.7,4.13,5.32,1.2,10.56,2.36,15.7,3.48,5.14,1.14,9.74,2.61,13.83,4.42,4.07,1.83,7.32,4.17,9.77,7.05,2.45,2.9,3.67,6.65,3.67,11.3,0,4.89-1.01,8.89-3.01,12.03s-4.65,5.61-7.9,7.43c-3.27,1.81-6.92,3.09-11.01,3.85-4.07.75-8.11,1.14-12.13,1.14-5.02,0-9.9-.63-14.66-1.89-4.77-1.25-8.94-3.19-12.51-5.83-3.57-2.63-6.46-5.98-8.65-10.06-2.2-4.07-3.28-8.92-3.28-14.56h-16.94c0,8.14,1.47,15.21,4.42,21.15,2.95,5.96,6.95,10.85,12.03,14.68,5.08,3.83,10.98,6.68,17.69,8.56,6.7,1.87,13.81,2.82,21.34,2.82,6.14,0,12.32-.72,18.52-2.16,6.22-1.44,11.83-3.77,16.84-6.95,5.02-3.2,9.12-7.34,12.32-12.42,3.19-5.08,4.79-11.18,4.79-18.35,0-6.63-1.22-12.15-3.67-16.54-2.45-4.39-5.7-8.03-9.77-10.91Z"/>
  <path class="cls-1" d="m960.35,538.91c1.7-.37,2.29-.87,2.47-.88.03-.1.21.1.53-.95.38-.72.68-1.44.9-2.15,1.54-4.97-.78-9.62-5.11-13.7-11.66-11.39-26.77-19.16-41.66-26.07-21.23-9.45-43.81-17.08-66.53-22.77,0,0,0,0,0,0,0,0,0,0,0,0-1.79,9.87-4.04,19.68-6.68,29.39,29.11,13.59,88.19,41.42,116.09,37.13Z"/>
  <path class="cls-1" d="m894.12,388.94c1.04,10.8,1.51,21.87,1.38,33.06,19.9,6.38,40.38,13.76,59.33,22.77-11.14-92.21,8.46-174.46,17.77-206.57,2.07-7.16-3.3-14.31-10.77-14.31h-101.86c-7.31,0-13.75,4.81-15.83,11.81-.03.08-.05.16-.08.22-1.76,5.98-4.01,14.04-6.36,23.86.64.62,1.23,1.25,1.83,1.87,30.52,32.54,49.9,77.73,54.59,127.29Z"/>
  <path class="cls-1" d="m903.69,611.1c2.61.48,5.26-.05,7.5-1.49,2.03-1.32,3.5-3.26,4.22-5.55.09-.3.17-.6.24-.91,0-.03.02-.06.02-.08h0s0,0,0,0c.58-2.71.06-5.48-1.44-7.8s-3.83-3.91-6.54-4.49l-.67-.18-2.52-.77s0,0,0,0h0c.32,3.43.06,6.92-.79,10.32-.22.86-.47,1.72-.76,2.55-.87,2.51-2.07,4.9-3.53,7.07h0s0,0,0,0l4.26,1.31Z"/>
  <path class="cls-1" d="m888.08,597.58c.14-.41.27-.83.37-1.26,1.03-4.1.32-8.32-2.02-11.86l-.16-.24-22.46-6.92-5.22-1.6c5.62,7.31,9.12,15.96,10.91,24.88l1.02.32s0,0,0,0l12.32,3.78c2.44-1.77,4.25-4.22,5.24-7.11Z"/>
  <path class="cls-1" d="m897.95,715.07h308.41c3.51,0,6.87-1.59,9.07-4.34,6.91-8.68,7.39-19.53,7.66-26.17,3.24-82.07-27.46-129.61-64.75-178.35-8.32-10.86-36.12-48.25-71.4-47.85-28.87.34-27.94,35.91-15.53,60.68,15.53,31,17.06,34.61,18.39,51.15,1.81,23.14-5.13,51.42-59.7,48.52-15.78-.85-25.04-7.71-30.36-18.51-8.6,5.24-18.36,8.76-29.21,10.61-2.8,18.47-13.22,34.85-29.19,45.23-10.25,6.65-22.1,10.32-34.26,10.59-.5.02-.99.02-1.49.02-1.3,0-2.61-.03-3.91-.11-4.89,14.15-11.68,27.43-20.06,39.38,3.35,5.48,9.39,9.15,16.33,9.15Z"/>
  <path class="cls-1" d="m1442.1,710.36c.98-6.22.35-13.12-1.94-19.84-36.76-107.55-107.5-139.69-104.18-245.3,3.56-114.6,91.3-199.65,107.37-212.35,5.69-4.49,4.13-7.98.45-7.98-8.8,0-104.92-.83-136.98-1.15-8.94-.08-17.53,3.83-23.04,10.86-.37.46-132.33,164.67-78.02,258,51.82,89.02,61.24,127.06,64.22,161.21,4.44,50.49,1.31,41.44,3.25,53.21.34,2.08.96,3.86,1.84,5.4.99,1.76,2.92,2.79,4.94,2.79h156.39c2.84,0,5.27-2.05,5.7-4.86Z"/>
  <path class="cls-1" d="m1762.37,416.45c-16.2,0-37.01,22.35-94.86,22.35-42.43,0-145.89-29.29-145.89-96.36,0-24.68,10.69-42.78,43.97-43.37,58.61-1.06,103.45,76.51,169.78,76.51,45.52,0,61.7-37.03,61.7-83.3,0-14.9-1.2-40.6-5.66-57.84-1.59-6.14-7.11-10.4-13.44-10.42-45.83-.05-236.97-.22-240.97.02-36.47,2.23-48.98,14.77-90.05,58.77-31.39,33.66-87.17,152.92-46.5,239.48,25.91,55.14,21.26,41.52,70.08,131.53,14.28,20.91,19.55,48.58,19.69,50.25.5,5.08-.43,9.68,3.11,11.15.77.3,14.52,0,20.45,0h149.46c8.59,0,15.06-8.04,12.95-16.38-.02-.06-.03-.14-.05-.22-18.33-71-168.07-163.08-149.82-192.95,7.31-11.95,22.45-13.94,42.53-13.94,49.37,0,95.58,42.72,148.77,42.72,43.98,0,54-38.55,54-103.38,0-10.75-3.86-14.61-9.26-14.61Z"/>
  <path class="cls-1" d="m2126.99,431.06c-1.25-10.86-9.79-15.06-15.21-15.06-16.2,0-31.08,22.8-88.91,22.8-42.43,0-113.17-17.27-113.17-84.35,0-24.68,28.06-46.68,57.25-39.43,57.72,14.34,57.46,60.55,123.78,60.55,45.52,0,61.69-37.03,61.69-83.3,0-12.88-.9-33.82-4.02-50.39-1.94-10.37-11.01-17.85-21.53-17.85h-260.95c-15.59,0-28.02,12.99-27.35,28.57.96,22.37,3.03,51.32-.7,70.74-9.61,50.06-21.78,45.41-21.02,86.01.95,51.82-15.32,109.25-27.01,160.76-11.94,52.56-41.71,112.48-35.12,140.96.56,2.44,2.79,4.15,5.3,4.15h214.61c53.31,0-84.55-99.55-84.27-193.82.05-17.74,18.99-40.2,37.64-32.78,50.33,20.06,92.09,51.64,145.02,45.83,43.71-4.79,61.32-38.97,53.98-103.38Z"/>
  <path class="cls-1" d="m2502.77,547.44c-21.58,0-32.38,70.98-136.5,70.98-86.38,0-103.38-26.97-106.35-85.52-1.84-36.47,22.53-45.19,63.13-28.55,69.22,28.38,52.49,30.01,104.13,30.01,37.01,0,44.74-38.57,44.74-102.6,0-10.8-2.32-13.88-6.92-13.88-13.88,0-30.89,22.37-79.46,22.37-67.1,0-125.24-40.76-112.64-93.91,6.94-29.35,34.35-41.08,64.27-33.65,57.44,14.29,52.99,53.52,113.96,53.52,45.47,0,61.69-26.97,61.69-72.52,0-12.07-.74-30.59-3.22-46.35-2.1-13.46-13.8-23.31-27.42-23.31h-271.19c-11.52,0-20.16,10.54-17.88,21.82,5.75,28.47,13.76,76.41-16.12,122.85-24.24,37.65-1.75,42.11-7.32,105.1-6.91,78.31-77.74,200.31-53.95,230.61.11.18.26.34.38.5,5.3,6.6,13.41,10.32,21.87,10.32h326.66c8.03,0,15.91-2.8,21.86-8.19,21.68-19.61,31.73-55.38,31.73-116.36,0-29.32-6.97-43.23-15.45-43.23Z"/>
  <path class="cls-1" d="m879.87,668.47c1.59-3.83,3.04-7.74,4.31-11.73,1.36-4.29,2.52-8.66,3.47-13.1l6.42,1.79,1.46.38.43.1c3.17.67,6.41,1.01,9.63,1.01h1.04c8.51-.19,16.79-2.76,23.97-7.42,9.35-6.08,15.98-15.12,19.05-25.51,1.4-4.72,2.06-9.73,1.91-14.86-.06-2.23-.3-4.42-.7-6.6.45.02,1.33.02,1.33.02,16.26,0,29.87-3.8,40.55-11.34,0,0,0,0,0,0,0,0,0,0,0,0,2.13-1.47,4.13-3.11,6.02-4.9l.14-.14c15.65-15.13,20.7-37.54,12.87-57.11l-.19-.45c-5.27-12.32-13.54-20.4-20.19-26.89l-2.37-2.32-.46-.42c-8.65-7.55-18.89-14.28-30.16-20.37-24.76-13.35-54.45-23.55-83.11-32.27.88-15.46.62-30.73-.82-45.55-3.86-41.05-18.64-78.66-41.92-107.18-2.37-2.9-4.82-5.72-7.37-8.43-38.33-40.62-97.42-71.37-171.42-89.3-.95-1.97-2.1-3.88-3.45-5.66-5.3-7.07-13.04-11.63-21.79-12.87l-27.18-3.85c-1.54-.22-3.11-.34-4.65-.34-7.96,0-15.4,2.82-21.18,7.68-1.09-.14-2.18-.27-3.25-.4-10.3-1.31-20.88-1.99-31.41-1.99-79.67,0-154.19,37.59-194.46,98.11l-.27.42c-27.99,44.37-37.16,95.99-42.01,136.13-.61,5.21-1.52,13.04.79,21.34,1.71,6.7,5.24,12.79,10.09,17.71-.46,4.05-.95,7.96-1.39,11.54-5.42,42.7-15.48,83.16-29.9,120.22l-.14.38c-3.3,9.04-6.89,18.49-10.69,28.49-6.27,16.52-12.74,33.62-18.07,49.24-11.12,30.99-17.08,61.63-17.71,91.22-.75,50.25,10.91,96.04,33.71,132.45,26.13,41.74,65.73,68.51,114.5,77.42,6.92,1.49,15.69,2.48,19.24,2.85,1.57.16,3.73.42,6.14.69,8.83,1.04,15.99,1.84,20.93,1.91,2.68.1,5.51.27,8.51.46,4.89.3,9.92.62,15.05.62.95,0,1.87,0,2.8-.03h1.49c14.87,0,26.45-.38,34.29-1.12.67-.05,2.53-.18,4.45-.29,3.89-.26,5.58-.35,6.54-.45l.53-.06c2.71-.35,5.43-.69,8.16-1.03,5.19-.64,10.4-1.28,15.53-2l.3-.03.32-.06c37.93-6.47,72.91-17.37,103.83-32.35,22.58-10.77,43.58-23.78,62.44-38.65,14.98-11.14,26.76-26.42,33.6-43.45,15.16-.67,27.93-5.82,37.53-10.34,6.95-3.28,11.57-9.79,12.56-17.14,17.55-6.26,29.19-16.42,35.62-23.41,5.99-6.54,7.58-15.94,4.05-23.99-.3-.71-.66-1.39-1.03-2.05,3.78-2.98,6.92-5.82,9.37-8.2,6.54-6.36,8.54-15.89,5.14-24.29-.42-1.01-.91-1.99-1.46-2.92.79-.51,1.57-1.04,2.36-1.57,20.2-13.68,36.05-33.63,45.9-56.89h0s0,0,0,0h0c.12-.29.22-.58.34-.86Zm-9.14-47.16c-2.32,34.61-19.1,68.69-48.28,88.43-15.38,10.42-32.4,18.62-51.53,19.16l-.87.74c-1.51.93-1.54,3.24-.05,3.83,6.07,2.39,20.09,6.3,42.49,3.69,1.83-.21,2.63,2.18,1.19,3.59-7.42,7.23-24.55,21.39-48.01,25.12-2.07.32-2.58,3.53-.66,4.12,8.68,2.71,22.32,5.64,33.97,2.34,1.89-.54,2.96,1.89,1.52,3.44-7.55,8.22-24.44,22.05-52.88,22.59-.99.02-1.67,1.3-1.11,2.12,1.63,2.39,5.19,6.1,11.94,7.29,1.83.34,1.84,3.17.03,4.02-11.14,5.26-25.62,10.86-42.85,7.5-.98,2.87-1.94,5.74-2.9,8.6-5.21,15.88-15.53,29.95-28.99,39.88-18.2,14.39-38.04,26.53-58.92,36.5-31.02,15.01-64.69,24.92-98.61,30.7-7.76,1.07-15.7,1.99-23.49,2.98-1.27.14-9.23.59-10.72.72-9.87.95-24.29,1.07-34.31,1.06-8.28.22-17.35-.79-25.67-1.06-5.85-.03-19.53-1.91-25.49-2.5-5.13-.53-12.31-1.46-17.35-2.56-93.17-16.86-133.5-102.37-132.21-190.05.62-29.11,6.79-57.7,16.58-84.94,8.36-24.52,19.72-52.99,28.68-77.47,15.57-40.01,25.69-82.26,31.08-124.95.99-7.74,1.94-15.64,2.64-23.44-5.66-2.37-10.33-7.16-11.86-13.44-1.31-4.5-.77-9.34-.24-13.91,5.35-44.21,14.9-89.47,39.08-127.8,44.3-66.56,129.24-97.4,206.92-87.39,4.84.54,9.6,1.23,14.31,2,1.92-5.99,7.92-9.92,14.36-9l27.18,3.85c7.19,1.03,12.21,7.68,11.18,14.87l-.06.48c64.72,14.1,130.49,40.49,173.83,86.43,6.46,6.89,12.18,14.39,17.21,22.35,0,0,0,0,0,0,15.37,24.42,24.08,53.17,26.76,81.46,1.87,19.47,1.55,38.9-.58,58.13,34.88,10.22,80.02,24.19,109.98,44.48,0,0,0,0,0,0,0,0,0,0,0,0,4.12,2.79,7.93,5.69,11.41,8.72,6.75,6.67,13.68,12.82,17.82,22.45,4.69,11.71,1.65,25.35-7.55,34.71-.21.22-.43.46-.67.69-28.44,26.9-97.48-2.64-135.94-21.47-4.86-2.37-9.21-4.58-12.95-6.47-.79-.4-1.55-.82-2.32-1.23-.08.21-.16.42-.22.59-.18-.06-.46-.18-.87-.32l-4.31,17.03,28.61,8.8s0,0,0,0l54.25,16.68c8.76,2,15.88,8.27,19,17.19.8,2.28,1.25,4.68,1.31,7.1.11,3.6-.46,7.04-1.61,10.2-1.93,5.27-5.49,9.75-10.29,12.87-4.12,2.68-8.78,4.1-13.57,4.21-2.02.05-4.05-.14-6.07-.58l-.67-.18-24.98-6.99-3.57-.99c-.03,1.01-.1,2.02-.16,3.03Z"/>
  <path class="cls-1" d="m381.31,820.29c31.28,14.69,68.61,13.35,102,6.36,39.95-9.81,67.63-38.74,81.19-75.24-35.94,33.6-84.86,60.57-131.39,53.1-2.82-.51-2.76-4.69.16-5.02,30.92-3.7,59.11-17.79,84.27-35.56,6.63-4.76,13.09-9.77,19.37-15-.42.19-.85.37-1.27.56-28.78,11.95-59.3,20.86-90.59,22.62-36.32,2.31-78.05-5.56-108.8-27.35,2.32,31.42,14.65,61.03,45.06,75.52Z"/>
  <path class="cls-1" d="m721,459.13c14.64,5.19,71.25,25.2,92.61,32.77,5.29-18.71,9.2-38.23,10.88-57.83,1.63-18.94,1.2-37.97-2.07-56.43-2.16-12.29-5.59-24.32-10.48-35.91-20.91-47.99-70.2-78.59-121.36-98.35,18.19,19.08,31.57,43.6,38.5,74.33,10.06,47.43,3.19,95.32-8.09,141.42Z"/>
  <path class="cls-1" d="m411.86,350.72c-.38,1.08-.72,2.14-1.04,3.17-.32,1.04-.61,2.05-.89,3.03-.75,2.68-1.33,5.16-1.78,7.35,15.27-1.78,30.12-2.53,44.35-2.53,49.42,0,91.35,9.12,117.4,16.58,0,0,0,0,0,0h0c.48-2.55.98-5.37,1.36-8.38.29-2.21.51-4.55.64-6.95-20.48-5.37-102.84-25.12-160.06-12.27Z"/>
  <path class="cls-1" d="m691.56,449.23s1.97.82,4.53,1.87c10.43-38.23,16.15-87.65,7.15-127.75-13.33-69.64-70.58-101.39-136.68-108.88-72.22-7.64-153.77,24.32-186.4,92.18-13.8,30.32-20.89,63.95-23.47,97.36,9.73-1.81,19.56-3.53,29.56-4.81,104.07-14.24,209.2,11.55,305.3,50.02Zm-111.01-53.95c-1.35.88-2.95,1.35-4.53,1.35-.59,0-1.19-.06-1.78-.19-.61-.13-1.27-.34-2.88-.83-32.29-9.84-97.48-24.72-171.4-13.96h0c-2.43.35-4.88-.4-6.7-2.05l-.09-.08c-.37-.35-.7-.72-.99-1.12-1.19-1.57-1.76-3.54-1.6-5.54.34-4.61,4.26-46.18,35.76-71.69,3.77-3.06,7.76-5.74,11.99-8.06,18.07-9.97,40.23-13.22,66.1-9.69,34.47,4.69,58.68,16.57,71.94,35.28,13.14,18.51,12.87,39.71,10.74,54.91-.67,4.78-1.52,8.96-2.2,12.29-.3,1.49-.58,2.82-.79,3.96h0c-.37,2.06-1.51,3.9-3.19,5.15l-.37.28Z"/>
  <path class="cls-1" d="m584.8,721.99c.18-.18.34-.35.5-.53h0s0,0,0,0l-1.11-.08s0,0,0,0h0c.21.19.4.4.61.61Z"/>
  <path class="cls-1" d="m412.6,608.9s-.07.04-.1.06l.11-.06c-.67.38-1.35.75-2.02,1.12-.02.05-.05.08-.06.13h0s0,0,0,0l2.08-1.25Z"/>
  <path class="cls-1" d="m683.29,532.64l14.32,13.09c.74-.69,1.39-1.47,1.94-2.32.93-1.39,1.63-2.95,2.05-4.63.51-2.05.59-4.12.24-6.1-.21-1.28-.59-2.53-1.14-3.72l-17.42,3.69Z"/>
  <path class="cls-1" d="m712.52,552.32l16.65,5.13,35.11,10.78c6.57-6.31,14.29-11.36,22.77-14.53l-57.88-17.79-11.5-3.54c.32,3.41.06,6.87-.79,10.24-.88,3.49-2.36,6.78-4.36,9.71Z"/>
  <path class="cls-1" d="m834.23,593.27c-6.83-6.3-16.54-10.08-25.88-9.07-3.88.53-7.48,1.36-11.01,2.44h-.02c-5.85,1.76-11.42,4.18-17.53,6.87-10.64,5.08-21.52,12.34-33.5,20.46l-4.86,20.24-4.45,18.57c-.42,2.93-3.14,4.98-6.07,4.57l-15.11-4.97-4.97-1.62-11.71-3.85c-2.92-.4-4.95-3.04-4.58-5.96.88-7.07,2.68-19.56,5.16-34.72.99-6.14,2.13-12.72,3.36-19.56,1.14-6.39,2.39-13.01,3.72-19.69l-5.77-1.73c-5.34-1.63-10.22-4.42-14.34-8.19l-21.37-19.52c-3.22-2.95-4.33-7.55-2.72-11.7,1.33-3.44,4.47-5.85,8.08-6.62l24.93-5.29c5.74-1.22,11.7-1.04,17.35.51-2.02-11.81-7.05-21.23-12.31-28.25h-.02c-.16-.22-.32-.45-.51-.67-1.62-2.13-3.27-4.02-4.84-5.69-95.99-39.38-201.35-68.35-305.37-54.33-11.82,1.73-23.76,4.2-35.76,6.71-.37,14.36-1.23,28.7-2.66,42.97,6.43-3.75,13.43-6.39,20.7-7.98,6.51-1.43,13.22-2.02,19.93-1.83,21.39.59,42.85,9.18,57.59,24.31,9.44,9.84-2.52,24.87-14.16,18.06-14.05-8.62-28.23-15.45-44.48-17.82-.43-.06-.88-.13-1.31-.18-6.55-.87-13.14-1.11-19.76-.93-6.7.18-13.43.79-20.24,1.63-3.62,28.22-9.45,56.15-17.9,83.45-11.09,35.06-23.97,70.15-34.61,105.3-14.89,50.17-12.9,106.14,9.52,153.63,13.11,27.06,32.8,47.75,60.57,59.49,13.57,5.46,28.57,8.8,43.33,10.05,3.14.42,16.87,1.86,19.72,2,2.44.1,9.31.45,11.86.56,15.06.87,32.24.56,47.3-.69,1.43-.08,8.56-.62,9.82-.69,1.3-.16,4.52-.62,5.85-.79,41.31-4.82,82.52-16.58,119.42-35.8,13.76-7.05,27.35-15.29,39.66-24.52,7.07-4.89,13.14-11.28,17.08-18.97,2.05-3.69,4.02-9.73,5.59-13.62l5.85-15.4c12.35-32.82,25.08-65.66,41.9-96.48,4.36-7.98,8.99-15.81,13.96-23.47.87-1.3,2.61-1.65,3.89-.79.9.59,1.33,1.62,1.23,2.61-.51,5.1-1.23,10.13-2.05,15.11,1.04.29,2.12.75,3.27,1.46,4.18,3.22,8.06,6.15,13.76,6.94,4.57.75,9.85.5,15.29-.8,32.74-8.03,57.44-35.59,60.5-69.52,1.01-10.19-.02-21.42-5.22-30.01-1.38-2.31-3.08-4.41-5.1-6.26Zm-344.21-24.31l.34-1.19c6.43-15.85,23.78-25.16,40.51-25.57,16.78-.95,33.2,7.51,45.3,17.45,5.93,4.9,11.06,10.7,15.16,17.19,1.33,2.93,6.52,8.57,2.08,10.83-.77.34-1.6.34-2.34.06-16.66-6.28-29.47-15.08-46.19-18.89-14.6-3.75-28.71-2.13-42.97,2.48-2.34.7-4.87,1.46-7.42,2.16-2.66.82-5.3-1.91-4.45-4.53Zm74.64-52.04c-17.69-4.55-35.06-4.28-52.86-.51-6.38,1.59-12.87-2.48-14.13-8.94-1.06-5.42,1.86-10.7,6.73-12.82,9.18-4.09,19.28-6.52,29.37-7.07,13.01-.8,26.28,1.44,38.23,5.82,10.7,3.86,20.56,9.37,29.13,16.3,8.57,7,16.01,14.93,21.28,24.8,0,0,0,0,0,.01,0,0,0,0,0,0,.08.82.16,1.59.29,2.37,0,0,0,0,0,0,0,0,0,0,0,0-.02.02,0,.03,0,.03-.59,1.79-2.77,3.01-4.66,1.86-17.58-8.59-34.88-17.13-53.37-21.84Zm-143.01,75.34c7.66-11.76,13.8-24.45,18.23-38.07,2.4-7.11,4.49-14.69,6.36-21.95,1.14-4.42,7.61-4.37,8.68.05,4.01,16.54,2.58,33.73-2.53,49.98-3.57,11.46-9.74,22.9-18.71,31.21,2.79,2,5.21,4.57,7.05,7.69,1.71,2.74-.72,6.46-3.88,6.06-3.41-.34-6.63-.51-9.45-.43-17.21.35-31.61,10.11-32.19,27.96-.32,8.62,4.29,17.16,11.63,21.65,8.08,4.76,21.07,4.82,30.86,2.6,4.82-1.51,8.49,4.39,5.03,8.03-11.49,11.12-29.19,15.29-45.04,9.58-8.4-3.32-15.32-9.13-20.33-16.57-15.77-22.95-6.81-55.95,18.15-67.99,4.94-2.66,10.67-4.18,16.46-4.47,3.08-5.24,6.59-10.11,9.68-15.32Zm-63.44-39.02c.66-2.61,1.3-5.26,1.91-7.9v-.02l13.44-3.46c1.78-.46,2.28-2.74.85-3.89l-10.85-8.7c.38-1.91.75-3.83,1.11-5.75,5.93-13.24,14.98-21.74,23.39-21.01.46.03.95.11,1.41.21,11.58,2.5,17.13,22.43,12.39,44.54-4.76,22.1-17.99,38.01-29.59,35.51-.53-.11-1.06-.27-1.57-.45-7.9-2.92-12.59-14.45-12.5-28.99,0-.02,0-.05.02-.1Zm-47.6,156.1c2.02-1.47,4.97-1.7,7.35.43,3.73,2.87,7.47,5.59,11.23,8.16,31.92,21.86,65.6,33.09,105.78,31.57,43.17-1.39,84.87-17.11,123.33-36.28,2.53-1.2,5.1-2.39,7.69-3.51-5.11-1.87-10.54-3.11-15.88-4.2-1.87-.35-3.85-.72-5.82-1.23-2.26-.56-3.64-2.85-3.06-5.11.29-1.14,1.03-2.07,1.97-2.61,3.56-2.1,7.35-3.75,11.38-4.79,13.03-3.49,27.08-1.38,38.52,6.6,14.6,10.14,22.93,29.13,17.93,46.52-1.04,3.28-5.38,3.67-7.19.85-4.41-5.42-8.46-11.26-12.85-16.7-6.91,57.44-44.45,106.44-102.39,120.35-49.8,10.5-108.85,6.27-143.62-28.78-11.06-11.17-19.66-25.44-24.72-43.37-4.97-17.37-6.14-35.09-5.48-52.33-1.04-1.25-2.03-2.53-3.01-3.85-.87-1.23-1.6-2.36-2.39-3.69.34-2.68.75-5.35,1.22-8.01v-.02Zm523.24-83.35c-3.16-3.4-6.15-6.06-9.1-8.04-2.16-1.47-4.31-2.58-6.47-3.35.53,4.92.21,9.9-.82,14.64-2.74,11.89-9.13,22.46-17.58,30.92-4.17,4.09-8.64,7.72-13.97,10.45-1.07.54-2.39.13-2.95-.95-.35-.7-.29-1.47.06-2.11,2.36-4.77,4.74-9.53,7-14.34l.02-.02c3.85-8.16,7.32-16.44,9.52-25.08.22-.9.45-1.78.64-2.68.82-3.61,1.22-7.16,1.62-10.77-3.09.9-6.38,2.23-9.98,3.96-5.46,2.55-11.01,5.64-17.06,8.54-1.43.71-3.19.11-3.88-1.33-.42-.88-.34-1.89.13-2.68.61-.99,1.25-1.99,1.92-2.95,7.51-11.04,18.01-19.8,31.98-22.66,16.95-3.48,33.44,9.37,34.13,26.63.08,2.84-3.49,3.97-5.21,1.79Z"/>
  <polygon class="cls-1" points="825.55 508.14 825.42 509.47 825.72 508.19 825.55 508.14"/>
</svg>