<?xml version="1.0" encoding="UTF-8"?>
<svg xmlns="http://www.w3.org/2000/svg" version="1.1" viewBox="0 0 1921.7 1105.7">
  <defs>
    <style>
      .cls-1 {
        fill: #0f2d26;
      }

      .cls-2 {
        fill: #094438;
      }
    </style>
  </defs>
  <!-- Generator: Adobe Illustrator 28.7.0, SVG Export Plug-In . SVG Version: 1.2.0 Build 136)  -->
  <g>
    <g id="Layer_1">
      <path class="cls-2" d="M.7,128l64,42.7c64,42.7,192,128,320,106.7,128-21.3,282.7-77.5,410.7-120.2s229.4-71.8,357.4-36.2c113.3,31,292.1,67.7,420.4,100,89.2,22.5,183.6,13.5,266.5-26.4,53.4-25.7,81.9-54.2,81.9-54.2l169.7,13.4L1921,0H.7v128Z"/>
      <path class="cls-1" d="M0,256.4l64-35.6c64-35.1,192.1-107.1,320.2-120.9,128.1-14.3,256.1,28.4,384.2,21.3,128.1-7.6,256.1-63.6,384.2-92.6C1280.7.3,1408.7.3,1536.8,14.5c128.1,13.7,256.1,43.1,320.2,56.8l64,14.3V.3H0v256.1Z"/>
    </g>
  </g>
</svg>