<?xml version="1.0" encoding="UTF-8"?>
<svg xmlns="http://www.w3.org/2000/svg" version="1.1" viewBox="0 0 1921.7 1105.7">
  <defs>
    <style>
      .cls-1 {
        fill: #0f2d26;
      }

      .cls-2 {
        fill: #094438;
      }

      .cls-3 {
        fill: #0c594a;
      }
    </style>
  </defs>
  <!-- Generator: Adobe Illustrator 28.7.0, SVG Export Plug-In . SVG Version: 1.2.0 Build 136)  -->
  <g>
    <g id="Layer_1">
      <g id="Layer_1-2" data-name="Layer_1">
        <g id="Layer_1-2">
          <rect class="cls-3" x="0" width="1921.7" height="1105.7"/>
          <path class="cls-2" d="M1921.7,980h-53.4c-53.4,0-160.2,0-266.9,0-106.8,0-213.6,0-320.3,0-106.8,0-213.6,0-320.3,0-106.8,0-213.6,0-320.3,0-106.8,0-213.6,0-320.3,0s-213.6,0-266.9,0H-.3v-427.1s53.4,28.4,53.4,28.4c53.4,29,160.2,85,266.9,106.8,106.8,21,213.6,7.6,320.3-7.1,106.8-14.7,213.6-28,320.3,0,106.8,28,213.6,100.1,320.3,135.2,106.8,35.6,213.6,35.6,320.3,28.6,106.8-7.6,213.6-21,266.9-28.6l53.4-7.1v170.8Z"/>
          <g id="Layer_1-2-2" data-name="Layer_1-2">
            <path class="cls-1" d="M1.9,939.2l53.3-28.4c53.3-28.9,160-84.9,266.6-71.2,106.7,14.3,213.3,99.6,320,106.7,106.7,7.6,213.3-64.4,320-85.3,106.7-21.7,213.3,7.6,320,42.7,106.7,35.6,213.3,78.3,320,64,106.7-13.7,213.3-85.7,266.6-120.8l53.3-35.6v341.3H1.9v-213.3h0Z"/>
          </g>
        </g>
      </g>
    </g>
  </g>
</svg>