<?xml version="1.0" encoding="UTF-8"?>
<svg xmlns="http://www.w3.org/2000/svg" version="1.1" viewBox="0 0 1921.7 1105.7">
  <defs>
    <style>
      .cls-1 {
        fill: #0f2d26;
      }

      .cls-2 {
        fill: #094438;
      }

      .cls-3 {
        fill: #0c594a;
      }
    </style>
  </defs>
  <!-- Generator: Adobe Illustrator 28.7.0, SVG Export Plug-In . SVG Version: 1.2.0 Build 136)  -->
  <g>
    <g id="Layer_1">
      <g id="Layer_1-2" data-name="Layer_1">
        <g id="Layer_1-2">
          <g id="Layer_1-2-2" data-name="Layer_1-2">
            <rect class="cls-3" width="1921.7" height="1105.7"/>
            <path class="cls-2" d="M1921.7,980H-.3v-427.1l53.4,28.4c53.4,29,160.2,85,266.9,106.8,106.8,21,213.6,7.6,320.3-7.1,106.8-14.7,213.6-28,320.3,0,106.8,28,213.6,100.1,320.3,135.2,106.8,35.6,214.4,63.8,321.1,56.8,106.8-7.6,266.4-86.4,319.7-94l-.2,200.9h.2Z"/>
            <g id="Layer_1-2-2">
              <path class="cls-1" d="M-.3,939.2l53.4-28.4c53.4-28.9,160.2-85,266.9-71.3,106.8,14.3,213.5,99.7,320.4,106.8,106.8,7.6,213.5-64.5,320.4-85.4,106.8-21.7,213.5,7.6,320.4,42.7,106.8,35.6,213.5,78.4,320.4,64.1,106.8-13.7,213.5-85.8,266.9-120.9l53.4-35.6v341.7H-.3v-213.5H-.3Z"/>
            </g>
          </g>
        </g>
      </g>
    </g>
  </g>
</svg>